<?xml version="1.0" encoding="UTF-8" standalone="no"?>
<!DOCTYPE svg PUBLIC "-//W3C//DTD SVG 20010904//EN"
              "http://www.w3.org/TR/2001/REC-SVG-20010904/DTD/svg10.dtd">

<svg xmlns="http://www.w3.org/2000/svg"
     width="0.222222in" height="0.222222in"
     viewBox="0 0 20 20">
  <path id="Imported Path"
        fill="black" stroke="black" stroke-width="1"
        d="M 20.00,17.50
           C 20.00,17.50 20.00,12.50 20.00,12.50
             20.00,12.50 15.00,12.50 15.00,12.50
             15.00,12.50 16.37,13.87 16.37,13.87
             15.27,15.70 13.43,17.01 11.25,17.38
             11.25,17.38 11.25,9.82 11.25,9.82
             13.40,9.27 15.00,7.33 15.00,5.00
             15.00,2.24 12.76,0.00 10.00,0.00
             7.24,0.00 5.00,2.24 5.00,5.00
             5.00,7.33 6.60,9.27 8.75,9.82
             8.75,9.82 8.75,17.38 8.75,17.38
             6.57,17.01 4.73,15.70 3.63,13.87
             3.63,13.87 5.00,12.50 5.00,12.50
             5.00,12.50 0.00,12.50 0.00,12.50
             0.00,12.50 0.00,17.50 0.00,17.50
             0.00,17.50 1.53,15.97 1.53,15.97
             3.36,18.46 6.56,20.03 10.00,20.00
             13.43,20.03 16.64,18.46 18.47,15.97
             18.47,15.97 20.00,17.50 20.00,17.50 Z
           M 10.00,7.50
           C 8.62,7.50 7.50,6.38 7.50,5.00
             7.50,3.62 8.62,2.50 10.00,2.50
             11.38,2.50 12.50,3.62 12.50,5.00
             12.50,6.38 11.38,7.50 10.00,7.50 Z" />
</svg>
