<?xml version="1.0" encoding="utf-8"?>
<!-- Generator: Adobe Illustrator 16.0.0, SVG Export Plug-In . SVG Version: 6.00 Build 0)  -->
<!DOCTYPE svg PUBLIC "-//W3C//DTD SVG 1.1//EN" "http://www.w3.org/Graphics/SVG/1.1/DTD/svg11.dtd">
<svg version="1.1" id="Layer_1" xmlns="http://www.w3.org/2000/svg" xmlns:xlink="http://www.w3.org/1999/xlink" x="0px" y="0px"
	 width="126px" height="126px" viewBox="0 0 126 126" enable-background="new 0 0 126 126" xml:space="preserve">
<g>
	<path fill="#010101" d="M82.401,53.63l25.414-18.354l-4.099-5.675L77.563,48.489c-4.838-3.988-11.038-6.385-17.798-6.385
		c-15.464,0-28,12.536-28,28h56C87.766,63.945,85.771,58.254,82.401,53.63z"/>
	<path fill="#010101" d="M78.917,75.172H41.281c-4.491,0-8.146,3.654-8.146,8.146s3.654,8.146,8.146,8.146h37.636
		c4.491,0,8.145-3.654,8.145-8.146S83.408,75.172,78.917,75.172z M42.123,89.777c-3.723,0-6.74-3.018-6.74-6.74
		c0-3.724,3.018-6.741,6.74-6.741c3.724,0,6.741,3.018,6.741,6.741C48.864,86.76,45.847,89.777,42.123,89.777z M60.38,89.777
		c-3.724,0-6.741-3.018-6.741-6.74c0-3.724,3.018-6.741,6.741-6.741c3.723,0,6.74,3.018,6.74,6.741
		C67.12,86.76,64.103,89.777,60.38,89.777z M78.636,89.777c-3.723,0-6.74-3.018-6.74-6.74c0-3.724,3.018-6.741,6.74-6.741
		s6.741,3.018,6.741,6.741C85.377,86.76,82.358,89.777,78.636,89.777z"/>
	<path fill="#010101" d="M21.523,72.227c-2.062,2.562-3.339,6.108-3.339,10.028c0,7.813,5.066,14.145,11.315,14.145h62.23
		c6.25,0,11.315-6.332,11.315-14.145c0-3.92-1.277-7.467-3.339-10.028H21.523z M27.6,82.604c-2.302,0-4.167-1.865-4.167-4.166
		c0-2.302,1.865-4.167,4.167-4.167c2.301,0,4.166,1.865,4.166,4.167C31.766,80.739,29.9,82.604,27.6,82.604z M78.917,93.147H41.281
		c-5.421,0-9.83-4.41-9.83-9.83c0-5.421,4.409-9.83,9.83-9.83h37.636c5.42,0,9.83,4.409,9.83,9.83
		C88.747,88.737,84.337,93.147,78.917,93.147z M92.266,82.604c-2.301,0-4.166-1.865-4.166-4.166c0-2.302,1.865-4.167,4.166-4.167
		c2.302,0,4.167,1.865,4.167,4.167C96.433,80.739,94.567,82.604,92.266,82.604z"/>
	<circle fill="#010101" cx="27.516" cy="78.271" r="2.25"/>
	<circle fill="#010101" cx="92.381" cy="78.271" r="2.25"/>
</g>
</svg>
