<?xml version="1.0" encoding="UTF-8" ?>
<!DOCTYPE svg PUBLIC "-//W3C//DTD SVG 1.1//EN" "http://www.w3.org/Graphics/SVG/1.1/DTD/svg11.dtd">
<svg width="128pt" height="128pt" viewBox="0 0 128 128" version="1.1" xmlns="http://www.w3.org/2000/svg">
    <defs>
    <linearGradient id="de_color" x1="0%" y1="0%" x2="100%" y2="0%">
      <stop offset="0%" style="stop-color:rgb(70,200,210);stop-opacity:1" />
      <stop offset="100%" style="stop-color:rgb(10,140,155);stop-opacity:1" />
    </linearGradient>
  </defs>
<path stroke-width="2" stroke="black" fill="url(#de_color)" d="M64.93,47.96000000000001C68.37,46.93000000000001,72.19999999999999,46.540000000000006,74.85,43.85000000000001C77.57,43.52000000000001,80.32999999999998,43.83,83.06,43.85000000000001C83.41,44.230000000000004,84.1,44.99000000000001,84.44999999999999,45.370000000000005C88.45999999999998,45.71000000000001,93.38999999999999,44.33,96.65,47.32000000000001C98.50999999999999,50.34000000000002,98.26999999999998,54.06000000000002,98.57,57.46000000000001C106.04999999999998,57.60000000000001,113.57,57.10000000000001,121.01999999999998,57.84000000000002C123.79999999999998,57.93000000000001,125.35999999999999,60.370000000000005,126.69,62.46000000000001C124.07999999999998,62.94000000000001,124.41999999999999,65.81000000000002,123.79999999999998,67.7C123.38,71.56000000000002,119.94,73.85000000000001,117.47999999999999,76.46C113.94,79.69000000000001,110.31,84.04,105.07,83.90000000000002C88.37,84.19000000000001,71.66999999999999,83.90000000000002,54.97,84.22000000000001C52.78,84.12000000000002,50.459999999999994,84.46,48.389999999999986,83.60000000000001C41.379999999999995,79.67,35.75,73.85000000000001,29.539999999999992,68.87000000000002C30.08999999999999,67.29,30.64999999999999,65.71,31.14999999999999,64.11C32.69999999999999,63.42,34.31999999999999,62.84000000000002,36.03999999999999,62.77000000000001C41.889999999999986,62.370000000000005,47.72999999999999,61.89,53.579999999999984,61.39C54.64999999999999,60.260000000000005,55.72999999999999,59.120000000000005,56.79999999999998,57.97000000000001C58.56999999999999,57.99000000000001,60.34,58.030000000000015,62.109999999999985,58.08C59.66,57.06000000000002,58.00999999999999,55.040000000000006,56.92999999999999,52.69000000000001C38.29999999999998,52.260000000000005,19.669999999999987,51.97000000000001,1.0499999999999972,51.35000000000001C1.2299999999999898,50.96000000000001,1.5899999999999892,50.18000000000001,1.769999999999996,49.8C19.859999999999985,49.52000000000001,37.97,50.150000000000006,56.06999999999999,50.11C59.129999999999995,49.92,61.989999999999995,48.71000000000001,64.93,47.96000000000001C64.93,47.96000000000001,64.93,47.96000000000001,64.93,47.96000000000001" />
</svg>
