<?xml version="1.0" encoding="UTF-8" ?>
<!DOCTYPE svg PUBLIC "-//W3C//DTD SVG 1.1//EN" "http://www.w3.org/Graphics/SVG/1.1/DTD/svg11.dtd">
<svg xmlns="http://www.w3.org/2000/svg"
     width="1.38889in" height="0.583333in"
     viewBox="0 0 100 42">
    <defs>
    <linearGradient id="us_color" x1="0%" y1="0%" x2="100%" y2="0%">
<stop offset="0%" style="stop-color:rgb(55,105,40);stop-opacity:1" />
<stop offset="100%" style="stop-color:rgb(60,145,30);stop-opacity:1" />
    </linearGradient>
  </defs>
<path id="Armor"
      fill="url(#us_color)" stroke="black" stroke-width="1"
      d="M 1.88,14.88 C 1.88,14.88 3.88,15.00 3.88,15.00 3.88,15.00 4.75,15.75 4.75,15.75 4.75,15.75 5.88,15.00 5.88,15.00 5.88,15.00 8.75,14.75 8.75,14.75 8.75,14.75 9.50,14.12 9.50,14.12 9.50,14.12 25.50,14.25 25.50,14.25 25.50,14.25 25.50,14.88 25.50,14.88 25.50,14.88 34.88,14.75 34.88,14.75 34.88,14.75 37.88,15.25 37.88,15.25 37.88,15.25 44.50,15.25 44.50,15.25 44.50,15.25 47.38,16.62 47.38,16.62 47.38,16.62 48.62,17.75 48.62,17.75 48.62,17.75 46.00,18.00 46.00,18.00 46.00,18.00 43.12,17.88 43.12,17.88 43.12,17.88 41.88,17.12 41.88,17.12 41.88,17.12 37.62,17.25 37.62,17.25 37.62,17.25 36.00,18.75 36.00,18.75 36.00,18.75 34.62,19.50 34.62,19.50 34.62,19.50 34.62,20.50 34.62,20.50 34.62,20.50 31.12,20.62 31.12,20.62 31.12,20.62 34.88,21.00 34.88,21.00 34.88,21.00 34.88,22.25 34.88,22.25 34.88,22.25 32.38,22.50 32.38,22.50 32.38,22.50 27.38,23.25 27.38,23.25 27.38,23.25 26.00,24.50 26.12,24.50 26.25,24.50 26.00,28.50 26.00,28.50 26.00,28.50 27.50,31.62 27.50,31.62 27.50,31.62 29.75,33.62 29.75,33.62 29.75,33.62 31.38,34.50 31.38,34.50 31.38,34.50 33.75,35.62 33.75,35.62 33.75,35.62 36.25,36.38 36.25,36.38 36.25,36.38 38.75,37.25 38.75,37.25 38.75,37.25 42.00,37.25 42.00,37.25 42.00,37.25 83.38,37.38 83.38,37.38 83.38,37.38 86.62,36.62 86.62,36.62 86.62,36.62 88.88,35.88 88.88,35.88 88.88,35.88 90.62,35.25 90.62,35.25 90.62,35.25 92.38,33.25 92.38,33.25 92.38,33.25 92.62,30.25 92.62,30.25 92.62,30.25 91.12,29.12 91.12,29.12 91.12,29.12 91.38,27.75 91.38,27.75 91.38,27.75 95.38,27.75 95.38,27.75 95.38,27.75 95.62,23.00 95.62,23.00 95.62,23.00 96.75,22.75 96.75,22.75 96.75,22.75 96.88,16.12 96.88,16.12 96.88,16.12 93.50,16.12 93.50,16.12 93.50,16.12 92.62,17.00 92.62,17.00 92.62,17.00 83.00,17.12 83.00,17.12 83.00,17.12 76.38,17.12 76.38,17.12 76.38,17.12 74.88,17.88 74.88,17.88 74.88,17.88 74.88,16.12 74.88,16.12 74.88,16.12 79.62,15.88 79.62,15.88 79.62,15.88 79.62,9.12 79.62,9.12 79.62,9.12 72.62,9.25 72.62,9.25 72.62,9.25 72.62,4.75 72.62,4.75 C 71.62,6.62 70.75,5.50 70.75,5.50 70.75,5.50 67.62,5.50 67.62,5.50 67.62,5.50 65.62,5.00 65.62,5.00 65.62,5.00 63.12,5.12 63.12,5.12 63.12,5.12 62.62,6.00 62.62,6.00 62.62,6.00 61.88,7.50 61.88,7.50 61.88,7.50 60.25,8.12 60.25,8.12 60.25,8.12 55.38,8.25 55.38,8.25 55.38,8.25 54.88,9.38 54.88,9.38 54.88,9.38 49.62,9.25 49.62,9.25 49.62,9.25 48.50,10.50 48.50,10.50 48.50,10.50 45.38,10.50 45.38,10.50 45.38,10.50 44.62,11.25 44.62,11.25 44.62,11.25 35.50,11.50 35.50,11.50 35.50,11.50 35.50,12.25 35.50,12.25 35.50,12.25 26.00,12.38 26.00,12.38 26.00,12.38 6.25,12.12 6.25,12.12 6.25,12.12 5.50,11.38 5.50,11.38 5.50,11.38 3.38,11.50 3.38,11.50 3.38,11.50 2.38,12.38 2.38,12.38 2.38,12.38 1.62,13.12 1.62,13.12 1.62,13.12 1.88,14.75 1.88,14.75" />
</svg>
