<?xml version="1.0" encoding="UTF-8" standalone="no"?>
<!DOCTYPE svg PUBLIC "-//W3C//DTD SVG 20010904//EN"
              "http://www.w3.org/TR/2001/REC-SVG-20010904/DTD/svg10.dtd">

<svg xmlns="http://www.w3.org/2000/svg"     
     viewBox="0 0 100 75">
     <defs>
     <linearGradient id="de_color" x1="0%" y1="0%" x2="100%" y2="0%">
       <stop offset="0%" style="stop-color:rgb(80,80,80);stop-opacity:1" />
       <stop offset="100%" style="stop-color:rgb(200,200,200);stop-opacity:1" />
     </linearGradient>
     </defs>
  <path id="Artillery"
        fill="url(#de_color)" stroke="black" stroke-width="1"
        d="M 2.88,14.88
           C 2.88,14.88 3.50,13.62 3.50,13.62
             3.50,13.62 30.75,23.88 30.75,23.88
             30.75,23.88 33.00,23.62 33.00,23.62
             33.00,23.62 59.75,33.88 59.75,33.88
             59.75,33.88 62.00,28.88 62.00,28.88
             62.00,28.88 64.12,29.00 64.12,29.00
             64.12,29.00 65.25,29.50 65.25,29.50
             65.25,29.50 66.12,28.25 66.12,28.25
             66.12,28.25 66.12,30.38 66.12,30.38
             66.12,30.38 70.00,31.75 70.00,31.75
             70.00,31.75 71.00,31.50 71.00,31.50
             71.00,31.50 72.00,31.88 72.00,31.88
             72.00,31.88 72.38,33.75 72.38,33.88
             72.38,34.00 73.50,34.25 73.50,34.25
             73.50,34.25 74.75,34.38 74.75,34.38
             74.75,34.38 75.88,35.88 75.88,35.88
             75.88,35.88 75.12,36.75 75.12,36.75
             75.12,36.75 74.50,40.38 74.50,40.38
             74.50,40.38 76.12,39.50 76.12,39.50
             76.12,39.50 80.38,40.88 80.38,40.88
             80.38,40.88 79.88,42.50 79.88,42.50
             79.88,42.50 82.62,43.50 82.75,43.50
             82.88,43.50 84.25,44.12 84.25,44.12
             84.25,44.12 83.62,45.62 83.62,45.62
             83.62,45.62 82.75,46.62 82.75,46.62
             82.75,46.62 83.75,47.12 83.75,47.12
             83.75,47.12 81.50,51.50 81.50,51.50
             81.50,51.50 80.00,51.12 80.00,51.12
             80.00,51.12 79.25,50.12 79.25,50.12
             79.25,50.12 74.62,48.50 74.62,48.50
             74.62,48.50 74.88,52.62 74.88,52.62
             74.88,52.62 75.88,52.62 75.88,52.62
             75.88,52.62 76.50,53.88 76.50,53.88
             76.50,53.88 79.62,53.88 79.62,53.88
             79.62,53.88 79.88,55.50 79.88,55.50
             79.88,55.50 73.62,55.50 73.62,55.50
             73.62,55.50 73.75,56.38 73.75,56.38
             73.75,56.38 67.00,56.50 67.00,56.50
             67.00,56.50 67.88,57.88 67.88,58.00
             67.88,58.12 97.00,59.62 97.00,59.62
             97.00,59.62 97.12,61.62 97.12,61.62
             97.12,61.62 28.00,61.88 28.00,61.88
             28.00,61.88 28.00,60.00 28.00,60.00
             28.00,60.00 56.25,58.00 56.25,58.00
             56.25,58.00 57.62,54.62 57.62,54.62
             57.62,54.62 56.88,54.00 56.88,54.00
             56.88,54.00 54.88,53.75 54.88,53.75
             54.88,53.75 54.25,54.50 54.25,54.50
             54.25,54.50 49.25,54.50 49.25,54.50
             49.25,54.50 48.12,53.50 48.12,53.50
             48.12,53.50 46.00,53.00 46.00,53.00
             46.00,53.00 46.25,48.38 46.25,48.38
             46.25,48.38 48.12,47.62 48.12,47.62
             48.12,47.62 48.12,46.62 48.12,46.62
             48.12,46.62 47.12,46.00 47.12,46.00
             47.12,46.00 47.38,44.50 47.38,44.50
             47.38,44.50 48.00,43.38 48.00,43.38
             48.00,43.38 51.88,42.38 51.88,42.38
             51.88,42.38 57.12,41.62 57.00,41.62
             56.88,41.62 55.00,40.50 55.00,40.50
             55.00,40.50 39.12,34.50 39.12,34.50
             39.12,34.50 38.50,32.88 38.50,32.88
             38.50,32.88 39.62,32.12 39.62,32.12
             39.62,32.12 41.38,32.12 41.38,32.12
             41.38,32.12 42.75,32.00 42.75,32.00
             42.75,32.00 43.00,31.12 43.00,31.12
             43.00,31.12 31.12,26.75 31.12,26.75
             31.12,26.75 30.00,25.50 30.00,25.50
             30.00,25.50 2.75,14.88 2.75,14.88" />
</svg>
