<?xml version="1.0" encoding="UTF-8" standalone="no"?>
<!DOCTYPE svg PUBLIC "-//W3C//DTD SVG 20010904//EN"
              "http://www.w3.org/TR/2001/REC-SVG-20010904/DTD/svg10.dtd">

<svg xmlns="http://www.w3.org/2000/svg"
     viewBox="0 0 60 45">
<defs>
<linearGradient id="fr_color" x1="0%" y1="0%" x2="100%" y2="0%">
<stop offset="0%" style="stop-color:rgb(70,200,210);stop-opacity:1" />
<stop offset="100%" style="stop-color:rgb(10,140,155);stop-opacity:1" />
</linearGradient>
</defs>
<path id="infantry_fr"
   fill="url(#fr_color)"  stroke="black" stroke-width="1"
        d="M 63.65,33.53 C 63.65,33.53 63.78,33.84 63.78,33.84 63.78,33.84 62.61,33.95 62.61,33.95 62.61,33.95 60.25,30.71 60.25,30.69 60.25,30.66 59.76,30.82 59.76,30.82 59.76,30.82 58.69,30.74 58.69,30.74 58.69,30.74 58.72,31.29 58.72,31.29 58.72,31.29 58.74,31.68 58.74,31.68 58.74,31.68 57.71,31.99 57.71,31.99 57.71,31.99 56.87,32.59 56.87,32.59 56.87,32.59 56.98,33.82 56.98,33.82 56.98,33.82 57.26,34.55 57.26,34.55 57.26,34.55 57.11,34.65 57.11,34.65 57.11,34.65 56.98,34.96 56.98,34.96 56.98,34.96 53.92,31.76 53.92,31.76 53.92,31.76 37.02,30.40 37.02,30.40 37.02,30.40 27.96,29.93 27.96,29.93 27.96,29.93 27.91,30.79 27.91,30.79 27.91,30.79 27.62,31.60 27.62,31.60 27.62,31.60 27.28,32.28 27.28,32.28 27.28,32.28 26.74,33.17 26.74,33.17 26.74,33.17 26.17,33.71 26.17,33.71 26.17,33.71 25.34,34.42 25.34,34.44 25.34,34.47 24.40,34.91 24.40,34.91 24.40,34.91 23.65,35.15 23.65,35.15 23.65,35.15 22.40,35.23 22.40,35.23 22.40,35.23 21.10,35.07 21.10,35.07 21.10,35.07 20.14,34.81 20.14,34.81 20.14,34.81 19.47,34.44 19.47,34.44 19.47,34.44 18.87,33.92 18.87,33.92 18.87,33.92 18.09,33.11 18.07,33.11 18.04,33.11 17.76,32.59 17.76,32.59 17.76,32.59 17.42,32.04 17.39,32.02 17.37,31.99 17.08,31.00 17.08,30.98 17.08,30.95 16.98,30.14 16.98,30.14 16.98,30.14 17.00,29.36 17.00,29.36 17.00,29.36 17.13,28.34 17.13,28.34 17.13,28.34 17.44,27.56 17.44,27.56 17.44,27.56 17.91,26.62 17.91,26.62 17.91,26.62 18.20,26.26 18.20,26.26 18.20,26.26 19.08,25.37 19.08,25.37 19.08,25.37 19.73,24.98 19.73,24.98 19.73,24.98 19.83,23.15 19.83,23.15 19.83,23.15 9.89,20.75 9.89,20.75 9.89,20.75 9.99,19.42 9.99,19.42 9.99,19.42 1.19,17.18 1.19,17.18 1.19,17.18 1.64,15.51 1.64,15.51 1.64,15.51 10.38,17.52 10.38,17.52 10.38,17.52 9.89,17.16 9.89,17.16 9.89,17.16 10.23,15.64 10.23,15.64 10.23,15.64 11.08,15.54 11.08,15.54 11.08,15.54 11.11,15.80 11.11,15.80 11.11,15.80 12.46,16.11 12.49,16.11 12.51,16.11 13.24,16.06 13.24,16.06 13.24,16.06 13.52,16.35 13.52,16.35 13.52,16.35 25.31,19.22 25.28,19.24 25.26,19.27 25.67,18.36 25.67,18.36 25.67,18.36 25.67,17.65 25.67,17.65 25.67,17.65 25.93,16.74 25.93,16.74 25.93,16.74 26.01,16.35 26.01,16.35 26.01,16.35 26.40,15.51 26.40,15.51 26.40,15.51 26.74,15.77 26.74,15.77 26.74,15.77 26.84,16.58 26.84,16.58 26.84,16.58 26.66,17.23 26.66,17.23 26.66,17.23 27.26,17.16 27.26,17.16 27.26,17.16 27.31,17.78 27.31,17.78 27.31,17.78 27.00,17.94 27.00,17.94 27.00,17.94 26.84,18.90 26.82,18.90 26.79,18.90 27.75,19.09 27.75,19.09 27.75,19.09 27.78,19.58 27.78,19.58 27.78,19.58 26.56,19.56 26.56,19.56 26.56,19.56 26.45,19.79 26.45,19.79 26.45,19.79 27.23,20.52 27.23,20.52 27.23,20.52 27.54,20.62 27.54,20.62 27.54,20.62 27.93,20.75 27.93,20.75 27.93,20.75 28.32,19.74 28.32,19.74 28.32,19.74 28.61,19.97 28.61,19.97 28.61,19.97 28.53,20.57 28.55,20.57 28.58,20.57 28.68,21.02 28.68,21.02 28.68,21.02 31.62,21.98 31.62,21.98 31.62,21.98 30.97,24.67 30.97,24.67 30.97,24.67 37.67,26.23 37.67,26.23 37.67,26.23 37.20,27.79 37.20,27.79 37.20,27.79 47.11,29.18 47.11,29.18 47.11,29.18 47.24,28.24 47.24,28.24 47.24,28.24 49.84,28.47 49.84,28.47 49.84,28.47 49.87,29.41 49.87,29.41 49.87,29.41 51.11,29.54 51.11,29.54 51.11,29.54 52.70,29.62 52.70,29.62 52.70,29.62 52.67,30.06 52.67,30.06 52.67,30.06 53.37,30.04 53.37,30.01 53.37,29.98 53.42,29.75 53.42,29.75 53.42,29.75 54.18,29.72 54.18,29.72 54.18,29.72 54.43,30.22 54.43,30.19 54.43,30.17 54.95,30.04 54.95,30.04 54.95,30.04 54.82,29.52 54.82,29.52 54.82,29.52 55.08,28.65 55.08,28.65 55.08,28.65 55.55,28.92 55.55,28.92 55.55,28.92 56.15,28.84 56.15,28.84 56.15,28.84 56.17,29.57 56.17,29.57 56.17,29.57 56.49,29.57 56.49,29.57 56.49,29.57 59.83,29.75 59.83,29.75 59.83,29.75 59.86,30.04 59.86,30.04 59.86,30.04 60.15,30.09 60.15,30.09 60.15,30.09 62.64,33.43 62.64,33.43 62.64,33.43 63.62,33.45 63.62,33.45" />
</svg>
