<?xml version="1.0" encoding="UTF-8" standalone="no"?>
<!DOCTYPE svg PUBLIC "-//W3C//DTD SVG 20010904//EN"
              "http://www.w3.org/TR/2001/REC-SVG-20010904/DTD/svg10.dtd">

<svg xmlns="http://www.w3.org/2000/svg"
     width="1.66667in" height="0.744444in"
     viewBox="0 0 150 67">



<defs>
<linearGradient id="uk_color" x1="0%" y1="0%" x2="100%" y2="0%">
<stop offset="0%" style="stop-color:rgb(210,180,140);stop-opacity:1" />
<stop offset="100%" style="stop-color:rgb(160,140,100);stop-opacity:1" />
</linearGradient>
</defs>



  <path id="Battleship"
        stroke-width="2" stroke="black" fill="url(#uk_color)"
        d="M 1.25,49.50 C 1.25,49.50 1.50,55.25 1.50,55.25 1.50,55.25 10.25,55.50 10.25,55.50 10.25,55.50 15.50,55.50 15.25,55.50 15.00,55.50 27.25,55.50 27.25,55.50 27.25,55.50 28.25,53.50 28.25,53.50 28.25,53.50 20.75,53.25 20.50,53.25 20.25,53.25 20.25,52.50 20.25,52.50 20.25,52.50 28.50,52.25 28.50,52.25 28.50,52.25 31.25,50.50 31.25,50.50 31.25,50.50 35.00,51.25 35.00,51.25 35.00,51.25 37.00,53.50 37.00,53.75 37.00,54.00 35.50,55.25 35.50,55.25 35.50,55.25 40.25,55.25 40.00,55.25 39.75,55.25 39.50,49.25 39.50,49.25 39.50,49.25 41.25,48.50 41.25,48.50 41.25,48.50 41.00,43.75 41.00,43.75 41.00,43.75 43.75,35.00 43.75,35.00 43.75,35.00 43.75,41.75 43.75,42.00 43.75,42.25 45.25,43.50 45.25,43.50 45.25,43.50 45.00,48.50 45.00,48.50 45.00,48.50 49.00,49.00 49.00,49.00 49.00,49.00 43.25,51.75 43.25,52.00 43.25,52.25 43.75,55.25 43.75,55.25 43.75,55.25 47.25,54.75 47.25,54.75 47.25,54.75 49.00,53.25 49.00,53.25 49.00,53.25 52.50,53.25 52.50,53.25 52.50,53.25 54.75,51.50 54.75,51.50 54.75,51.50 58.00,51.50 58.00,51.50 58.00,51.50 57.25,49.75 57.25,49.50 57.25,49.25 54.50,48.00 54.50,48.00 54.50,48.00 54.50,46.25 55.25,46.50 56.00,46.75 60.00,46.75 60.00,46.75 60.00,46.75 63.00,46.75 63.00,46.75 63.00,46.75 63.50,48.25 63.50,48.50 63.50,48.75 65.25,49.00 65.50,49.00 65.75,49.00 65.25,39.75 65.25,39.75 65.25,39.75 71.00,39.50 71.00,39.50 71.00,39.50 71.25,47.75 71.25,47.75 71.25,47.75 74.75,48.25 74.75,48.25 74.75,48.25 74.75,42.75 74.75,42.75 74.75,42.75 77.50,42.50 77.50,42.50 77.50,42.50 77.75,48.00 77.75,48.00 77.75,48.00 82.25,48.25 82.25,48.25 82.25,48.25 81.75,50.50 81.75,50.50 81.75,50.50 85.25,50.50 85.25,50.50 85.25,50.50 85.50,28.25 85.50,28.25 85.50,28.25 83.00,28.25 83.00,28.25 83.00,28.25 84.50,5.75 84.50,5.75 84.50,5.75 85.75,19.25 85.75,19.25 85.75,19.25 88.75,24.00 88.75,24.00 88.75,24.00 85.50,24.25 85.50,24.25 85.50,24.25 89.75,25.75 89.75,25.75 89.75,25.75 89.00,30.75 89.00,30.75 89.00,30.75 87.00,32.00 87.00,32.00 87.00,32.00 87.25,37.50 87.25,37.50 87.25,37.50 88.75,41.75 88.75,41.75 88.75,41.75 88.75,45.50 88.75,45.50 88.75,45.50 90.50,46.00 90.50,46.00 90.50,46.00 91.00,39.50 91.00,39.50 91.00,39.50 95.75,39.50 95.75,39.50 95.75,39.50 96.00,46.75 96.00,46.75 96.00,46.75 98.50,46.75 98.50,46.75 98.50,46.75 98.25,40.50 98.25,40.50 98.25,40.50 102.50,40.50 102.75,40.50 103.00,40.50 102.75,53.50 102.75,53.50 102.75,53.50 104.25,53.50 104.25,53.50 104.25,53.50 105.50,50.25 105.50,50.00 105.50,49.75 110.25,49.50 110.25,49.50 110.25,49.50 111.50,51.25 111.50,51.25 111.50,51.25 117.75,51.00 118.00,51.00 118.25,51.00 120.00,51.00 120.00,51.00 120.00,51.00 111.75,51.50 111.75,51.50 111.75,51.50 112.00,53.50 112.00,53.50 112.00,53.50 123.50,53.00 123.50,53.00 123.50,53.00 146.50,52.25 146.50,52.25 146.50,52.25 147.25,46.00 147.25,46.00 147.25,46.00 148.00,58.25 148.00,58.25 148.00,58.25 148.75,64.75 148.75,64.75 148.75,64.75 147.25,65.75 147.25,65.75 147.25,65.75 15.50,66.00 15.50,66.00 15.50,66.00 15.50,63.00 15.50,63.00 15.50,63.00 7.50,62.25 7.50,62.25 7.50,62.25 7.25,65.75 7.25,65.75 7.25,65.75 4.50,66.00 4.50,66.00 4.50,66.00 4.00,62.25 4.00,62.25 4.00,62.25 0.75,62.25 0.75,62.25 0.75,62.25 0.75,55.50 0.75,55.50" />

</svg>
