<?xml version="1.0" encoding="UTF-8" standalone="no"?>
<!DOCTYPE svg PUBLIC "-//W3C//DTD SVG 20010904//EN"
              "http://www.w3.org/TR/2001/REC-SVG-20010904/DTD/svg10.dtd">

<svg xmlns="http://www.w3.org/2000/svg"
     viewBox="0 0 100 70">
          <defs>
          <linearGradient id="de_color" x1="0%" y1="0%" x2="100%" y2="0%">
            <stop offset="0%" style="stop-color:rgb(80,80,80);stop-opacity:1" />
            <stop offset="100%" style="stop-color:rgb(200,200,200);stop-opacity:1" />
          </linearGradient>
          </defs>


  <path id="Bomber"
        fill="url(#de_color)"  stroke="black" stroke-width="1"
        d="M 46.12,11.12
           C 46.12,11.12 46.88,9.88 46.88,9.88
             46.88,9.88 48.00,9.50 48.00,9.50
             48.00,9.50 48.88,9.50 48.88,9.50
             48.88,9.50 49.75,9.88 49.88,9.88
             50.00,9.88 50.50,11.00 50.50,11.00
             50.50,11.00 51.12,12.75 51.12,12.88
             51.12,13.00 51.12,15.62 51.12,15.62
             51.12,15.62 51.25,18.12 51.25,18.12
             51.25,18.12 51.62,19.75 51.62,19.75
             51.62,19.75 51.62,27.25 51.62,27.25
             51.62,27.25 51.88,29.88 51.88,29.88
             51.88,29.88 55.75,30.00 55.75,30.00
             55.75,30.00 55.62,25.62 55.62,25.62
             55.62,25.62 54.12,25.62 54.12,25.62
             54.12,25.62 54.25,24.50 54.25,24.50
             54.25,24.50 61.50,24.25 61.50,24.25
             61.50,24.25 61.38,24.75 61.38,24.75
             61.38,24.75 58.25,24.75 58.25,24.75
             58.25,24.75 60.50,26.00 60.50,26.00
             60.50,26.00 60.62,30.75 60.62,30.75
             60.62,30.75 68.75,30.75 68.75,30.75
             68.75,30.75 68.75,26.25 68.75,26.25
             68.75,26.25 67.12,25.38 67.12,25.38
             67.12,25.38 71.25,25.25 71.25,25.25
             71.25,25.25 74.12,25.38 74.12,25.38
             74.12,25.38 71.50,26.25 71.50,26.25
             71.50,26.25 73.50,26.50 73.50,26.50
             73.50,26.50 73.62,30.88 73.62,30.88
             73.62,30.88 74.75,31.62 74.75,31.62
             74.75,31.62 83.50,32.00 83.50,32.00
             83.50,32.00 92.38,32.38 92.38,32.38
             92.38,32.38 97.62,33.25 97.62,33.25
             97.62,33.25 98.62,34.00 98.62,34.12
             98.62,34.25 98.38,35.50 98.38,35.50
             98.38,35.50 97.88,37.12 97.88,37.12
             97.88,37.12 96.12,38.12 96.12,38.12
             96.12,38.12 90.88,38.50 90.88,38.50
             90.88,38.50 75.88,40.00 75.88,40.00
             75.88,40.00 66.62,40.38 66.62,40.38
             66.62,40.38 60.25,41.00 60.25,41.00
             60.25,41.00 51.62,41.50 51.62,41.50
             51.62,41.50 51.25,50.00 51.25,50.00
             51.25,50.00 50.88,59.88 50.88,59.88
             50.88,59.88 60.50,59.88 60.50,59.88
             60.50,59.88 60.88,67.50 60.88,67.50
             60.88,67.50 59.75,67.50 59.75,67.50
             59.75,67.50 59.50,66.75 59.50,66.75
             59.50,66.75 50.38,66.88 50.38,66.88
             50.38,66.88 49.75,67.88 49.75,67.88
             49.75,67.88 47.88,68.00 47.88,68.00
             47.88,68.00 47.25,67.00 47.25,67.00
             47.25,67.00 38.50,67.00 38.50,67.00
             38.50,67.00 37.12,67.62 37.12,67.62
             37.12,67.62 37.12,60.00 37.12,60.00
             37.12,60.00 46.12,59.88 46.12,59.88
             46.12,59.88 46.12,54.75 46.12,54.75
             46.12,54.75 46.12,50.25 46.12,50.25
             46.12,50.25 45.75,41.62 45.75,41.62
             45.75,41.62 39.00,41.25 39.00,41.25
             39.00,41.25 29.00,40.88 29.00,40.88
             29.00,40.88 21.00,40.12 21.00,40.12
             21.00,40.12 15.12,39.62 15.12,39.62
             15.12,39.62 1.75,38.62 1.75,38.62
             1.75,38.62 0.50,37.38 0.50,37.38
             0.50,37.38 0.50,36.00 0.50,36.00
             0.50,36.00 1.12,34.38 1.12,34.38
             1.12,34.38 2.38,33.50 2.38,33.50
             2.38,33.50 9.50,33.25 9.50,33.25
             9.50,33.25 18.00,32.62 18.00,32.62
             18.00,32.62 23.00,32.38 23.00,32.38
             23.00,32.38 23.00,26.25 23.00,26.25
             23.00,26.25 21.88,25.38 21.88,25.38
             21.88,25.38 28.88,25.50 28.88,25.50
             28.88,25.50 27.62,26.25 27.62,26.25
             27.62,26.25 28.00,31.75 28.00,31.75
             28.00,31.75 32.38,31.38 32.38,31.38
             32.38,31.38 34.50,31.00 34.50,31.00
             34.50,31.00 36.00,31.00 36.00,31.00
             36.00,31.00 35.88,26.38 35.88,26.38
             35.88,26.38 34.12,26.38 34.12,26.38
             34.12,26.38 38.62,25.12 38.62,25.12
             38.62,25.12 41.12,26.12 41.12,26.12
             41.12,26.12 41.00,30.62 41.00,30.62
             41.00,30.62 45.12,30.62 45.12,30.62
             45.12,30.62 45.12,22.00 45.12,22.00
             45.12,22.00 45.62,16.62 45.62,16.62
             45.62,16.62 46.00,11.38 46.00,11.38" />
</svg>
