<?xml version="1.0" encoding="UTF-8" standalone="no"?>
<!-- Created with Inkscape (http://www.inkscape.org/) -->

<svg
   xmlns:dc="http://purl.org/dc/elements/1.1/"
   xmlns:cc="http://creativecommons.org/ns#"
   xmlns:rdf="http://www.w3.org/1999/02/22-rdf-syntax-ns#"
   xmlns:svg="http://www.w3.org/2000/svg"
   xmlns="http://www.w3.org/2000/svg"
   xmlns:xlink="http://www.w3.org/1999/xlink"
   xmlns:sodipodi="http://sodipodi.sourceforge.net/DTD/sodipodi-0.dtd"
   xmlns:inkscape="http://www.inkscape.org/namespaces/inkscape"
   id="svg3039"
   version="1.1"
   inkscape:version="0.48.5 r10040"
   width="500"
   height="500"
   sodipodi:docname="carrier.svg">
  <metadata
     id="metadata3045">
    <rdf:RDF>
      <cc:Work
         rdf:about="">
        <dc:format>image/svg+xml</dc:format>
        <dc:type
           rdf:resource="http://purl.org/dc/dcmitype/StillImage" />
        <dc:title></dc:title>
      </cc:Work>
    </rdf:RDF>
  </metadata>
  <defs
     id="defs3043" />
<defs>
<linearGradient id="de_color" x1="0%" y1="0%" x2="100%" y2="0%">
<stop offset="0%" style="stop-color:rgb(210,180,140);stop-opacity:1" />
<stop offset="100%" style="stop-color:rgb(160,140,100);stop-opacity:1" />
</linearGradient>
</defs>

  <path
     fill="url(#de_color)"
     d="m 8.939726,497.69417 c 0,-3.49054 -3.871975,-14.22642 -6.5588,-18.18568 L 0,476 l 16.421589,0 16.421589,0 -1.363714,-3.25 -1.363713,-3.25 -8.588013,-0.28893 c -7.76629,-0.26129 -8.588012,-0.47658 -8.588012,-2.25 0,-1.93078 1.166298,-1.96107 75.5,-1.96107 74.833334,0 75.500004,-0.0177 75.500004,-2 0,-1.73333 0.66667,-2 5,-2 4.66667,0 5,-0.16667 5,-2.5 0,-1.55556 -0.56667,-2.5 -1.5,-2.5 -1.08333,0 -1.5,-1.11111 -1.5,-4 0,-2.2 0.45,-4 1,-4 0.55,0 1,-0.9 1,-2 0,-1.87302 0.66667,-2 10.5,-2 l 10.5,0 0,-7 c 0,-6.33333 -0.19048,-7 -2,-7 -1.1,0 -2,-0.45 -2,-1 0,-0.55 0.9,-1 2,-1 1.46667,0 2,-0.66667 2,-2.5 0,-1.83333 -0.53333,-2.5 -2,-2.5 -1.1,0 -2,-0.45 -2,-1 0,-0.55 0.867,-1 1.92668,-1 1.05967,0 2.13247,-0.7875 2.38399,-1.75 0.43555,-1.66667 0.46285,-1.66667 0.57333,0 0.0693,1.04467 0.9221,1.75 2.116,1.75 1.1,0 2,0.45 2,1 0,0.55 -0.9,1 -2,1 -1.46667,0 -2,0.66667 -2,2.5 0,1.83333 0.53333,2.5 2,2.5 1.1,0 2,0.45 2,1 0,0.55 -0.9,1 -2,1 -1.80952,0 -2,0.66667 -2,7 l 0,7 3.95295,0 c 5.54459,0 8.20724,-1.48687 10.83311,-6.04943 2.04634,-3.55559 2.6706,-3.95057 6.2438,-3.95057 2.18358,0 3.97014,0.45 3.97014,1 0,0.55 1.125,1 2.5,1 1.375,0 2.5,-0.45 2.5,-1 0,-0.55 1.125,-1 2.5,-1 1.375,0 2.5,0.45 2.5,1 0,0.55 1.125,1 2.5,1 1.375,0 2.5,-0.45 2.5,-1 0,-0.55 1.575,-1 3.5,-1 3.48148,0 3.5,0.0238 3.5,4.5 0,3.29499 0.39411,4.5 1.47178,4.5 1.20937,0 1.52685,-2.45153 1.78065,-13.75 l 0.30888,-13.75 0.21934,13.75 c 0.20755,13.01022 0.32695,13.75 2.21935,13.75 2.45171,0 2.83321,4.46629 0.4593,5.37724 -1.24995,0.47965 -1.48584,2.15107 -1.25,8.85699 l 0.2907,8.26577 101,0.24297 c 55.55,0.13364 104.7125,0.24614 109.25,0.25 6.66354,0.006 8.25,0.29548 8.25,1.50703 0,1.2619 -2.22222,1.5 -14,1.5 -13.33333,0 -14,0.0952 -14,2 0,1.85315 0.66667,2 9.07946,2 l 9.07945,0 -0.70098,3.25 c -1.1153,5.17087 -4.20503,12.81608 -7.47659,18.5 l -3.0218,5.25 -217.97977,0 -217.979774,0 0,-2.30583 z"
     id="path3068" stroke="black"
     inkscape:connector-curvature="0" />
</svg>
