<?xml version="1.0" encoding="UTF-8" standalone="no"?>
<!DOCTYPE svg PUBLIC "-//W3C//DTD SVG 20010904//EN"
              "http://www.w3.org/TR/2001/REC-SVG-20010904/DTD/svg10.dtd">

<svg xmlns="http://www.w3.org/2000/svg"
     width="1.11111in" height="1.11111in"
     viewBox="0 0 100 60">
     <defs>
     <linearGradient id="de_color" x1="0%" y1="0%" x2="100%" y2="0%">
       <stop offset="0%" style="stop-color:rgb(80,80,80);stop-opacity:1" />
       <stop offset="100%" style="stop-color:rgb(200,200,200);stop-opacity:1" />
     </linearGradient>
     </defs>

  <path id="Unnamed"
        style="fill:url(#de_color);stroke:#000000;stroke-width:1"
        d="M 3.25,50.00
           C 3.25,50.00 94.00,49.25 94.00,49.25
             94.00,49.25 96.00,46.50 96.00,46.50
             96.00,46.50 96.75,44.25 96.75,44.25
             96.75,44.25 94.00,43.75 94.00,43.75
             94.00,43.75 93.25,41.75 93.25,41.50
             93.25,41.25 53.25,41.25 53.25,41.25
             53.25,41.25 53.50,33.75 53.50,33.75
             53.50,33.75 53.25,27.25 53.25,27.25
             53.25,27.25 52.25,27.50 52.25,27.50
             52.25,27.50 52.50,34.00 52.50,34.00
             52.50,34.00 46.00,33.75 45.75,33.75
             45.50,33.75 44.25,35.50 44.25,35.50
             44.25,35.50 38.00,36.00 38.00,36.00
             38.00,36.00 37.75,38.25 37.75,38.25
             37.75,38.25 37.00,40.75 37.00,40.75
             37.00,40.75 4.00,41.00 4.00,41.00
             4.00,41.00 3.75,43.75 3.75,43.50
             3.75,43.25 7.25,43.00 7.25,43.00
             7.25,43.00 7.75,45.00 7.75,45.00
             7.75,45.00 3.75,45.50 3.50,45.50
             3.25,45.50 3.25,50.00 3.25,50.00" />
</svg>
