<?xml version="1.0" encoding="UTF-8" standalone="no"?>
<!-- Created with Inkscape (http://www.inkscape.org/) -->

<svg
   xmlns:dc="http://purl.org/dc/elements/1.1/"
   xmlns:cc="http://creativecommons.org/ns#"
   xmlns:rdf="http://www.w3.org/1999/02/22-rdf-syntax-ns#"
   xmlns:svg="http://www.w3.org/2000/svg"
   xmlns="http://www.w3.org/2000/svg"
   xmlns:xlink="http://www.w3.org/1999/xlink"
   xmlns:sodipodi="http://sodipodi.sourceforge.net/DTD/sodipodi-0.dtd"
   xmlns:inkscape="http://www.inkscape.org/namespaces/inkscape"
   id="svg3039"
   version="1.1"
   inkscape:version="0.48.5 r10040"
   width="500"
   height="500"
   sodipodi:docname="carrier.svg">
  <metadata
     id="metadata3045">
    <rdf:RDF>
      <cc:Work
         rdf:about="">
        <dc:format>image/svg+xml</dc:format>
        <dc:type
           rdf:resource="http://purl.org/dc/dcmitype/StillImage" />
        <dc:title></dc:title>
      </cc:Work>
    </rdf:RDF>
  </metadata>
  <defs
     id="defs3043" />
<defs>
<linearGradient id="de_color" x1="0%" y1="0%" x2="100%" y2="0%">
<stop offset="0%" style="stop-color:rgb(210,180,140);stop-opacity:1" />
<stop offset="100%" style="stop-color:rgb(160,140,100);stop-opacity:1" />
</linearGradient>
</defs>

  <path
     fill="url(#de_color)"
     d="m 15.333591,247.54559 c 0,-4.47234 -4.086743,-18.22796 -6.9225971,-23.30085 l -2.5129898,-4.49535 17.3324469,0 17.332445,0 -1.439354,-4.16414 -1.439355,-4.16415 -9.064365,-0.37019 c -8.197062,-0.33479 -9.064363,-0.61064 -9.064363,-2.88287 0,-2.47386 1.230989,-2.51267 79.68776,-2.51267 78.984121,0 79.687771,-0.0227 79.687771,-2.56255 0,-2.22088 0.70365,-2.56255 5.27733,-2.56255 4.92552,0 5.27734,-0.21355 5.27734,-3.20319 0,-1.9931 -0.5981,-3.20319 -1.5832,-3.20319 -1.14342,0 -1.5832,-1.42363 -1.5832,-5.1251 0,-2.8188 0.47496,-5.1251 1.05547,-5.1251 0.58051,0 1.05546,-1.15314 1.05546,-2.56254 0,-2.39986 0.70365,-2.56255 11.08241,-2.56255 l 11.0824,0 0,-8.96893 c 0,-8.11474 -0.20104,-8.96893 -2.11093,-8.96893 -1.16102,0 -2.11094,-0.57656 -2.11094,-1.28127 0,-0.7047 0.94992,-1.28128 2.11094,-1.28128 1.54803,0 2.11093,-0.85418 2.11093,-3.20319 0,-2.34899 -0.5629,-3.20317 -2.11093,-3.20317 -1.16102,0 -2.11094,-0.57658 -2.11094,-1.28128 0,-0.70471 0.9151,-1.28127 2.03355,-1.28127 1.11845,0 2.25076,-1.00901 2.51623,-2.24224 0.4597,-2.13546 0.48852,-2.13546 0.60513,0 0.0732,1.33851 0.97325,2.24224 2.23337,2.24224 1.16101,0 2.11093,0.57656 2.11093,1.28127 0,0.7047 -0.94992,1.28128 -2.11093,1.28128 -1.54802,0 -2.11094,0.85418 -2.11094,3.20317 0,2.34901 0.56292,3.20319 2.11094,3.20319 1.16101,0 2.11093,0.57658 2.11093,1.28128 0,0.70471 -0.94992,1.28127 -2.11093,1.28127 -1.90989,0 -2.11094,0.85419 -2.11094,8.96893 l 0,8.96893 4.17221,0 c 5.85213,0 8.66247,-1.90509 11.43399,-7.75098 2.15985,-4.55569 2.81873,-5.06177 6.59012,-5.06177 2.30471,0 4.19036,0.57657 4.19036,1.28127 0,0.7047 1.1874,1.28128 2.63867,1.28128 1.45127,0 2.63866,-0.57658 2.63866,-1.28128 0,-0.7047 1.1874,-1.28127 2.63867,-1.28127 1.45127,0 2.63867,0.57657 2.63867,1.28127 0,0.7047 1.1874,1.28128 2.63866,1.28128 1.45128,0 2.63868,-0.57658 2.63868,-1.28128 0,-0.7047 1.66236,-1.28127 3.69413,-1.28127 3.67459,0 3.69413,0.0305 3.69413,5.76574 0,4.22178 0.41597,5.76573 1.55342,5.76573 1.27645,0 1.61154,-3.14108 1.87941,-17.61753 l 0.32602,-17.61753 0.2315,17.61753 c 0.21907,16.66967 0.34509,17.61753 2.34245,17.61753 2.58771,0 2.99037,5.72255 0.48478,6.88972 -1.31928,0.61457 -1.56826,2.75612 -1.31933,11.34825 l 0.30682,10.59072 106.60217,0.31131 c 58.6312,0.17123 110.5206,0.31537 115.30978,0.32032 7.03315,0.008 8.7076,0.37859 8.7076,1.93092 0,1.61684 -2.34548,1.92192 -14.77653,1.92192 -14.0729,0 -14.77654,0.12197 -14.77654,2.56254 0,2.37439 0.70364,2.56255 9.58306,2.56255 l 9.58307,0 -0.73987,4.16414 c -1.17715,6.62531 -4.43826,16.42093 -7.89129,23.70359 l -3.18941,6.72669 -230.07047,0 -230.070469,0 0,-2.9544 z"
     id="path3068" stroke="black" stroke-width="10"
     inkscape:connector-curvature="0" />
</svg>
