<?xml version="1.0" encoding="UTF-8" standalone="no"?>
<!-- Created with Inkscape (http://www.inkscape.org/) -->

<svg
   xmlns:dc="http://purl.org/dc/elements/1.1/"
   xmlns:cc="http://creativecommons.org/ns#"
   xmlns:rdf="http://www.w3.org/1999/02/22-rdf-syntax-ns#"
   xmlns:svg="http://www.w3.org/2000/svg"
   xmlns="http://www.w3.org/2000/svg"
   xmlns:xlink="http://www.w3.org/1999/xlink"
   xmlns:sodipodi="http://sodipodi.sourceforge.net/DTD/sodipodi-0.dtd"
   xmlns:inkscape="http://www.inkscape.org/namespaces/inkscape"
   id="svg3039"
   version="1.1"
   inkscape:version="0.48.5 r10040"
   width="382"
   height="85"
  >
  <metadata
     id="metadata3045">
    <rdf:RDF>
      <cc:Work
         rdf:about="">
        <dc:format>image/svg+xml</dc:format>
        <dc:type
           rdf:resource="http://purl.org/dc/dcmitype/StillImage" />
        <dc:title></dc:title>
      </cc:Work>
    </rdf:RDF>
  </metadata>


<defs>
<linearGradient id="de_color" x1="0%" y1="0%" x2="100%" y2="0%">
  <stop offset="0%" style="stop-color:rgb(70,200,210);stop-opacity:1" />
  <stop offset="100%" style="stop-color:rgb(10,140,155);stop-opacity:1" />
</linearGradient>
</defs>
  <path
     fill="url(#de_color)"
     stroke="black" stroke-width="2"
     d="m 26.405144,139.50292 c -0.923662,-1.40968 -4.126252,-5.44741 -7.116867,-8.97272 -2.990616,-3.52531 -5.437483,-6.87321 -5.437483,-7.43977 0,-1.6141 44.685138,-1.39738 45.337719,0.21989 0.403509,1 0.520176,1 0.583334,0 0.09624,-1.52383 9.652114,-1.74965 10.578947,-0.25 0.339919,0.55 2.616476,1 5.059017,1 3.280874,0 4.440983,-0.39184 4.440983,-1.5 0,-1.10882 -1.238747,-1.526 -4.75,-1.59968 -3.871482,-0.0812 -4.287622,-0.24776 -2.25,-0.90032 l 2.5,-0.80064 -2.5,-0.22162 c -1.375,-0.1219 0.156162,-0.60915 3.402582,-1.08278 3.24642,-0.47364 6.656853,-1.54376 7.578741,-2.37806 0.921887,-0.8343 3.284204,-1.5169 5.249593,-1.5169 3.109042,0 3.716104,0.40926 4.671259,3.14922 0.603804,1.73207 1.097825,4.20707 1.097825,5.5 0,1.42291 0.592058,2.35078 1.5,2.35078 0.825,0 1.5,-0.45 1.5,-1 0,-0.55 1.773442,-1 3.940986,-1 2.16754,0 4.21909,0.45 4.55901,1 1.01367,1.64015 6.5,1.21812 6.5,-0.5 0,-1.11111 1.16667,-1.5 4.5,-1.5 3.14221,0 4.5,0.41312 4.5,1.36916 0,0.80538 1.54413,1.62414 3.75,1.9884 2.89371,0.47785 4.04754,0.2223 5.05303,-1.11916 1.12534,-1.50133 1.02306,-1.78198 -0.75,-2.05795 -2.4409,-0.37993 -2.78165,-3.68688 -0.47124,-4.57346 2.0032,-0.7687 6.25318,-0.7579 9.16821,0.0233 2.29055,0.61384 3.15163,3.9025 1.19277,4.55545 -0.58147,0.19383 -0.75833,1.13133 -0.39301,2.08334 0.48684,1.26867 1.8088,1.73092 4.95024,1.73092 5.08809,0 5.5,-0.70263 5.5,-9.38179 0,-3.50305 0.52398,-6.74219 1.2,-7.41821 0.66,-0.66 3.585,-1.2 6.5,-1.2 5.1935,0 5.3,-0.0589 5.3,-2.92857 0,-4.16535 2.35847,-6.071433 7.51241,-6.071433 4.80715,0 5.65797,0.793564 6.45253,6.018303 l 0.53506,3.51831 5.5,-0.89948 c 4.85248,-0.79358 5.23511,-1.01975 3.25,-1.92112 -3.03284,-1.3771 -3.23158,-6.716013 -0.25,-6.716013 1.11111,0 2,-0.666667 2,-1.5 0,-0.879879 0.93018,-1.512571 2.25,-1.530409 2.0094,-0.02716 2.06287,-0.139403 0.5,-1.04969 -2.51017,-1.462041 -2.19329,-3.926167 0.5,-3.888098 3.98215,0.05629 6.09195,2.473552 5.47534,6.273275 -0.51064,3.146735 -0.38009,3.351575 1.86277,2.922835 2.23326,-0.426919 2.41189,-0.15618 2.41189,3.65551 0,2.26412 0.45,4.11658 1,4.11658 0.55,0 1,-1.125 1,-2.5 0,-2 0.5,-2.5 2.5,-2.5 2.4184,0 2.50045,-0.22031 2.51365,-6.750003 0.008,-3.7125 0.285,-7.7625 0.61664,-9 0.44329,-1.654134 0.17484,-2.25 -1.01366,-2.25 -2.39704,0 -2.11919,-4.705718 0.32362,-5.481037 1.28357,-0.407387 2.04509,-1.699405 2.25,-3.817388 0.23526,-2.431659 0.79071,-3.201575 2.30975,-3.201575 1.52546,0 2.07435,0.771119 2.31336,3.25 0.1941,2.013107 0.86012,3.25 1.75,3.25 1.86256,0 1.84699,1.968209 -0.0268,3.389757 -1.05946,0.803751 -1.65072,4.331121 -2.14181,12.777612 l -0.67835,11.667374 4.14181,1.24091 4.14182,1.24092 0.0304,5.59172 c 0.0433,7.95726 1.67401,4.47243 2.55663,-5.46343 0.38817,-4.36968 1.20238,-8.27547 1.80936,-8.67955 1.59967,-1.064931 18.03488,-0.932039 20.93148,0.16925 1.75492,0.66722 3.13088,2.66965 4.81001,7 l 2.35191,6.06544 4.75509,0 c 4.23802,0 4.76482,-0.24467 4.8446,-2.25 0.32691,-8.21703 1.73061,-25.633676 2.21835,-27.524447 0.41331,-1.602213 0.0112,-2.633874 -1.36057,-3.490547 -1.07101,-0.668856 -1.94729,-2.007857 -1.94729,-2.975556 0,-1.498814 0.96289,-1.759453 6.5,-1.759453 5.83333,0 6.5,0.205128 6.5,2 0,1.377661 -0.66667,2 -2.14246,2 -2.02725,0 -2.10791,0.330519 -1.5,6.146691 0.35335,3.38068 0.64246,7.478825 0.64246,9.106989 0,2.19183 0.38107,2.814066 1.46797,2.396983 2.41352,-0.926152 2.78965,1.175967 0.73473,4.10616 -1.74291,2.48529 -1.84815,3.73029 -1.11943,13.24318 0.44238,5.775 0.82962,10.8375 0.86053,11.25 0.0309,0.4125 0.5062,0.75 1.0562,0.75 0.55556,0 1,-2.66667 1,-6 l 0,-6 4.46556,0 4.46555,0 0.65883,-4.96649 c 0.93591,-7.05525 5.51683,-9.76451 11.72638,-6.93525 1.78445,0.81305 2.83652,2.63089 4.05125,7 1.53576,5.52384 1.83265,5.90174 4.63663,5.90174 2.32913,0 2.9958,-0.44507 2.9958,-2 0,-1.80953 0.66667,-2 7,-2 6.27878,0 7,0.20135 7,1.95431 0,1.71686 0.82014,1.99023 6.75,2.25 l 6.75,0.29569 0.30479,4.75 0.30479,4.75 20.4766,0 c 16.6067,0 20.57789,0.26398 21.0126,1.39682 0.29481,0.76825 -1.19266,4.25575 -3.30548,7.75 l -3.84149,6.35318 -172.10904,0.25283 -172.109031,0.25284 -1.679385,-2.56307 z "
     id="path3049"
     inkscape:connector-curvature="0" />
</svg>
