<?xml version="1.0" encoding="UTF-8" standalone="no"?>
<!DOCTYPE svg PUBLIC "-//W3C//DTD SVG 20010904//EN"
              "http://www.w3.org/TR/2001/REC-SVG-20010904/DTD/svg10.dtd">

<svg xmlns="http://www.w3.org/2000/svg"
     width="28.4444in" height="21.3333in"
     viewBox="0 0 2048 1536">
  <path id="Newcastle"
        fill="none" stroke="black" stroke-width="1"
        d="M 494.00,391.00
           C 494.00,391.00 437.00,403.00 437.00,403.00
             437.00,403.00 430.00,386.00 430.00,386.00
             430.00,386.00 430.00,370.00 430.00,370.00
             430.00,370.00 440.00,363.00 440.00,363.00
             440.00,363.00 430.00,357.00 430.00,357.00
             430.00,357.00 417.00,359.00 417.00,359.00
             417.00,359.00 405.00,362.00 404.00,362.00
             403.00,362.00 400.00,350.00 400.00,350.00
             400.00,350.00 416.00,333.00 416.00,333.00
             416.00,333.00 449.00,331.00 449.00,331.00
             449.00,331.00 462.00,325.00 462.00,325.00
             462.00,325.00 471.00,326.00 471.00,327.00
             471.00,328.00 482.00,347.00 482.00,347.00
             482.00,347.00 483.00,367.00 483.00,367.00
             483.00,367.00 494.00,392.00 494.00,391.00" />
  <path id="Oslo"
        fill="none" stroke="black" stroke-width="1"
        d="M 809.00,215.75
           C 808.75,215.75 811.25,207.00 811.25,207.00
             811.25,207.00 809.00,186.75 809.00,186.75
             809.00,186.75 816.50,169.25 816.50,169.25
             816.50,169.25 811.50,162.00 811.50,162.00
             811.50,162.00 799.75,163.25 799.75,163.25
             799.75,163.25 764.75,153.25 764.75,153.25
             764.75,153.25 755.25,153.25 755.25,153.25
             755.25,153.25 744.50,158.00 744.50,158.00
             744.50,158.00 733.75,180.00 733.75,180.00
             733.75,180.00 731.25,190.00 731.25,190.00
             731.25,190.00 733.00,199.00 733.00,199.00
             733.00,199.00 729.25,222.50 729.25,222.50
             729.25,222.50 730.75,237.75 730.75,237.75
             730.75,237.75 736.75,244.75 736.50,244.75
             736.25,244.75 736.25,258.50 736.25,258.50
             736.25,258.50 746.00,252.00 746.00,252.00
             746.00,252.00 762.75,251.00 762.75,251.00
             762.75,251.00 766.25,240.00 766.25,240.00
             766.25,240.00 764.50,225.00 764.50,225.00
             764.50,225.00 771.25,221.50 771.25,221.50
             771.25,221.50 774.25,228.00 774.25,228.00
             774.25,228.00 771.25,235.75 771.25,235.75
             771.25,235.75 775.75,249.75 775.75,249.75
             775.75,249.75 782.50,255.25 782.50,255.25
             782.50,255.25 793.00,255.00 793.00,255.00
             793.00,255.00 797.50,247.00 797.50,247.00
             797.50,247.00 795.50,239.25 795.50,239.25
             795.50,239.25 799.50,226.25 799.50,226.25
             799.50,226.25 809.00,215.25 809.00,215.25" />
  <path id="DenmarkSeazone"
        fill="none" stroke="black" stroke-width="1"
        d="M 781.75,254.75
           C 781.75,254.75 781.25,268.25 781.25,268.25
             781.25,268.25 785.00,270.75 785.00,270.75
             785.00,270.75 786.00,279.25 786.00,279.25
             786.00,279.25 791.75,279.50 791.75,279.50
             791.75,279.50 788.75,292.75 788.75,292.75
             788.75,292.75 794.00,305.75 794.25,305.75
             794.50,305.75 802.50,324.75 802.50,324.75
             802.50,324.75 805.75,333.25 805.75,333.25
             805.75,333.25 814.75,342.50 814.75,342.50
             814.75,342.50 813.50,347.00 813.50,347.00
             813.50,347.00 810.50,350.25 810.50,350.50
             810.50,350.75 807.75,358.25 807.75,358.25
             807.75,358.25 813.25,364.50 813.25,364.50
             813.25,364.50 815.50,375.75 815.50,375.50
             815.50,375.25 816.50,386.50 816.50,386.50
             816.50,386.50 827.50,387.75 827.50,387.75
             827.50,387.75 835.50,387.75 835.50,387.75
             835.50,387.75 841.25,392.50 841.25,392.50
             841.25,392.50 839.75,439.75 839.75,439.75
             839.75,439.75 828.00,438.25 828.00,438.25
             828.00,438.25 825.75,433.00 825.75,433.00
             825.75,433.00 828.25,427.00 828.25,427.00
             828.25,427.00 832.25,415.00 832.25,415.00
             832.25,415.00 817.50,413.75 817.50,413.75
             817.50,413.75 816.75,424.75 816.75,424.75
             816.75,424.75 811.75,426.25 811.75,426.25
             811.75,426.25 801.75,421.75 801.75,421.75
             801.75,421.75 798.25,428.00 798.25,428.00
             798.25,428.00 782.50,431.25 782.50,431.25
             782.50,431.25 765.25,440.50 765.25,440.50
             765.25,440.50 763.50,435.00 763.50,435.00
             763.50,435.00 771.25,428.00 771.25,428.00
             771.25,428.00 769.00,422.25 769.00,422.25
             769.00,422.25 752.00,423.75 752.00,423.75
             752.00,423.75 747.00,417.50 747.00,417.50
             747.00,417.50 747.25,411.75 747.25,411.75
             747.25,411.75 744.00,408.25 744.00,408.25
             744.00,408.25 745.25,399.75 745.25,399.75
             745.25,399.75 738.75,394.50 738.75,394.50
             738.75,394.50 740.25,389.25 740.25,389.25
             740.25,389.25 746.00,389.25 746.00,389.25
             746.00,389.25 752.50,398.50 752.50,398.50
             752.50,398.50 757.00,399.50 757.00,399.50
             757.00,399.50 773.75,393.25 773.75,393.25
             773.75,393.25 785.00,396.25 785.00,396.25
             785.00,396.25 790.00,399.00 790.00,399.00
             790.00,399.00 802.75,389.25 802.75,389.25
             802.75,389.25 800.50,382.75 800.50,382.75
             800.50,382.75 805.50,375.50 805.50,375.50
             805.50,375.50 805.50,370.00 805.50,370.00
             805.50,370.00 803.50,360.50 803.50,360.50
             803.50,360.50 793.25,359.50 793.25,359.50
             793.25,359.50 792.00,371.00 792.00,371.00
             792.00,371.00 786.00,367.25 786.00,367.25
             786.00,367.25 776.00,367.00 776.00,367.00
             776.00,367.00 758.75,379.25 758.75,379.25
             758.75,379.25 745.25,378.00 745.25,378.00
             745.25,378.00 748.75,367.50 748.75,367.50
             748.75,367.50 753.25,361.00 753.25,361.00
             753.25,361.00 760.75,359.00 760.75,359.00
             760.75,359.00 770.25,348.75 770.25,348.75
             770.25,348.75 765.50,342.50 765.50,342.50
             765.50,342.50 756.25,342.25 756.25,342.25
             756.25,342.25 757.25,332.50 757.25,332.50
             757.25,332.50 755.50,326.75 755.50,326.75
             755.50,326.75 762.00,316.75 762.00,316.75
             762.00,316.75 761.00,303.75 761.00,303.75
             761.00,303.75 766.25,294.50 766.25,294.50
             766.25,294.50 759.00,294.25 759.00,294.25
             759.00,294.25 750.00,304.50 750.00,304.50
             750.00,304.50 741.00,305.25 741.00,305.25
             741.00,305.25 739.50,314.50 739.50,314.50
             739.50,314.50 735.00,318.00 735.00,318.00
             735.00,318.00 726.25,317.50 726.00,317.50
             725.75,317.50 734.75,310.50 734.75,310.50
             734.75,310.50 736.00,258.25 736.00,258.25
             736.00,258.25 746.50,251.50 746.50,251.50
             746.50,251.50 762.50,251.00 762.50,251.00
             762.50,251.00 766.50,239.75 766.50,239.75
             766.50,239.75 764.50,224.50 764.50,224.50
             764.50,224.50 771.00,221.25 771.00,221.25
             771.00,221.25 774.25,227.50 774.25,227.50
             774.25,227.50 771.00,236.50 771.00,236.50
             771.00,236.50 775.75,249.50 775.75,249.50
             775.75,249.50 782.25,255.00 782.25,255.00" />
  <path id="Denmark"
        fill="none" stroke="black" stroke-width="1"
        d="M 740.75,310.00
           C 740.75,310.00 741.25,305.00 741.25,305.00
             741.25,305.00 750.25,304.50 750.25,304.50
             750.25,304.50 759.25,294.00 759.25,294.25
             759.25,294.50 766.50,293.75 766.50,293.75
             766.50,293.75 761.00,303.25 761.00,303.25
             761.00,303.25 761.50,317.00 761.50,317.00
             761.50,317.00 755.25,326.75 755.25,326.75
             755.25,326.75 757.00,331.75 757.00,332.00
             757.00,332.25 756.50,342.75 756.50,342.75
             756.50,342.75 765.50,342.75 765.50,342.75
             765.50,342.75 770.50,349.25 770.25,349.25
             770.00,349.25 760.75,359.25 760.75,359.25
             760.75,359.25 753.50,360.75 753.50,360.75
             753.50,360.75 748.50,368.00 748.50,368.00
             748.50,368.00 744.75,377.75 744.75,378.00
             744.75,378.25 758.75,379.75 758.75,379.75
             758.75,379.75 778.00,366.00 778.00,366.00
             778.00,366.00 785.75,366.75 785.75,366.75
             785.75,366.75 791.50,372.50 791.50,372.50
             791.50,372.50 793.25,359.50 793.25,359.50
             793.25,359.50 803.75,358.75 803.75,358.75
             803.75,358.75 806.50,374.50 806.50,374.50
             806.50,374.50 799.75,382.50 799.75,382.50
             799.75,382.50 803.50,389.25 803.50,389.25
             803.50,389.25 789.00,399.50 789.00,399.50
             789.00,399.50 781.50,394.50 781.50,394.50
             781.50,394.50 773.75,393.00 773.75,393.00
             773.75,393.00 763.75,397.25 763.75,397.25
             763.75,397.25 753.50,400.50 753.50,400.50
             753.50,400.50 744.75,389.50 744.75,389.50
             744.75,389.50 739.00,389.75 739.00,389.75
             739.00,389.75 738.50,395.50 738.50,395.50
             738.50,395.50 744.75,399.25 744.75,399.25
             744.75,399.25 744.25,408.25 744.25,408.25
             744.25,408.25 714.25,402.50 714.25,402.50
             714.25,402.50 709.00,388.25 709.00,388.25
             709.00,388.25 702.25,379.50 702.25,379.50
             702.25,379.50 707.75,361.25 707.75,361.25
             707.75,361.25 698.25,350.75 698.25,350.75
             698.25,350.75 709.00,346.50 709.00,346.50
             709.00,346.50 713.75,325.25 713.75,325.25
             713.75,325.25 726.75,317.75 726.75,317.75
             726.75,317.75 735.00,318.25 735.00,318.25
             735.00,318.25 739.75,314.75 739.75,314.75
             739.75,314.75 740.75,310.00 740.75,310.00" />
  <path id="NorthernNorthSea"
        fill="none" stroke="black" stroke-width="1"
        d="M 463.00,1.00
           C 463.00,1.00 591.75,0.75 591.75,0.75
             591.75,0.75 590.00,151.00 590.00,151.00
             590.00,151.00 461.00,154.00 461.00,154.00
             461.00,154.00 463.00,1.00 463.00,1.00" />
  <path id="Glascow"
        fill="none" stroke="black" stroke-width="1"
        d="M 460.00,226.00
           C 461.00,226.00 484.25,226.75 484.25,226.75
             484.25,226.75 483.75,235.75 483.75,235.75
             483.75,235.75 458.75,248.75 458.75,248.75
             458.75,248.75 460.00,260.00 460.00,260.00
             460.00,260.00 499.00,263.00 499.00,263.00
             499.00,263.00 501.25,279.00 501.25,279.00
             501.25,279.00 486.00,294.00 486.00,294.00
             486.00,294.00 474.25,305.75 474.25,305.75
             474.25,305.75 466.75,314.25 466.75,314.25
             466.75,314.25 455.00,319.00 455.00,319.00
             455.00,319.00 464.25,323.25 464.25,323.25
             464.25,323.25 449.25,331.00 449.25,331.00
             449.25,331.00 419.00,332.75 419.00,332.75
             419.00,332.75 410.00,312.00 410.00,312.00
             410.00,312.00 416.00,288.00 416.00,288.00
             416.00,288.00 410.00,280.00 410.00,280.00
             410.00,280.00 407.00,265.00 407.00,265.00
             407.00,265.00 423.00,246.00 423.00,246.00
             423.00,246.00 435.25,244.50 435.25,244.50
             435.25,244.50 435.00,233.00 435.00,233.00
             435.00,233.00 446.00,224.00 446.00,224.00
             446.00,224.00 459.75,226.25 459.75,226.25" />
  <path id="Ireland"
        fill="none" stroke="black" stroke-width="1"
        d="M 274.00,363.50
           C 274.00,363.50 260.50,376.00 261.50,376.00
             262.50,376.00 266.00,383.25 266.00,383.25
             266.00,383.25 278.50,384.25 278.50,386.25
             278.50,388.25 281.50,394.50 281.50,394.50
             281.50,394.50 266.50,398.00 266.50,398.00
             266.50,398.00 245.75,410.75 245.75,410.75
             245.75,410.75 235.00,417.00 235.00,417.00
             235.00,417.00 230.00,428.50 229.00,428.50
             228.00,428.50 234.00,439.00 234.00,439.00
             234.00,439.00 246.50,439.75 246.50,440.75
             246.50,441.75 238.50,449.75 238.50,449.75
             238.50,449.75 248.75,454.50 248.75,455.50
             248.75,456.50 266.00,455.00 267.00,455.00
             268.00,455.00 283.00,453.00 284.00,453.00
             285.00,453.00 314.00,445.00 314.00,444.00
             314.00,443.00 323.50,444.00 323.50,444.00
             323.50,444.00 331.50,444.75 333.50,444.75
             335.50,444.75 339.50,432.25 339.50,432.25
             339.50,432.25 343.50,423.50 343.50,423.50
             343.50,423.50 346.00,418.25 346.00,418.25
             346.00,418.25 352.00,410.00 352.00,410.00
             352.00,410.00 352.00,389.00 352.00,389.00
             352.00,389.00 363.00,381.00 363.00,380.00
             363.00,379.00 351.00,377.00 351.00,377.00
             351.00,377.00 342.00,365.00 342.00,365.00
             342.00,365.00 332.00,369.00 332.00,369.00
             332.00,369.00 317.25,351.50 317.25,351.50
             317.25,351.50 315.25,347.25 315.25,347.25
             315.25,347.25 295.00,350.50 295.00,350.50
             295.00,350.50 281.75,344.00 281.75,344.00
             281.75,344.00 272.00,348.25 272.00,348.25
             272.00,348.25 273.75,363.75 273.75,363.75" />
  <path id="IrishSea"
        fill="none" stroke="black" stroke-width="1"
        d="M 209.00,361.00
           C 209.00,361.00 208.00,374.00 208.00,374.00
             208.00,374.00 264.25,374.25 264.25,374.25
             264.25,374.25 273.50,363.00 273.50,363.00
             273.50,363.00 271.50,349.00 271.50,349.00
             271.50,349.00 281.25,344.00 281.25,344.00
             281.25,344.00 294.00,350.00 294.00,350.00
             294.00,350.00 306.50,349.25 306.50,349.25
             306.50,349.25 315.25,346.75 315.25,346.75
             315.25,346.75 311.00,337.00 311.00,337.00
             311.00,337.00 330.75,323.75 330.75,323.75
             330.75,323.75 357.00,323.00 357.00,323.00
             357.00,323.00 357.00,333.50 357.00,333.50
             357.00,333.50 372.50,333.25 373.50,333.25
             374.50,333.25 378.00,340.75 378.00,340.75
             378.00,340.75 376.50,350.25 376.50,350.25
             376.50,350.25 369.50,357.25 369.50,357.25
             369.50,357.25 380.25,367.25 380.25,367.25
             380.25,367.25 372.50,373.50 372.50,373.50
             372.50,373.50 365.00,380.00 365.00,380.00
             365.00,380.00 352.00,389.25 352.00,389.25
             352.00,389.25 351.50,410.50 351.50,410.50
             351.50,410.50 343.00,422.00 343.00,422.00
             343.00,422.00 391.75,445.00 391.75,445.00
             391.75,445.00 392.00,435.00 392.00,435.00
             392.00,435.00 389.25,418.75 389.25,418.75
             389.25,418.75 396.00,413.25 396.00,413.25
             396.00,413.25 404.00,420.00 404.00,420.00
             404.00,420.00 430.00,420.00 429.00,420.00
             428.00,420.00 432.00,407.00 432.00,407.00
             432.00,407.00 435.00,401.00 435.00,400.00
             435.00,399.00 430.00,385.00 430.00,385.00
             430.00,385.00 429.50,369.50 429.50,369.50
             429.50,369.50 440.50,363.25 440.50,363.25
             440.50,363.25 430.00,356.75 430.00,356.75
             430.00,356.75 416.50,359.00 416.50,359.00
             416.50,359.00 403.25,362.25 403.25,362.25
             403.25,362.25 400.00,350.00 400.00,350.00
             400.00,350.00 419.00,331.50 419.00,331.50
             419.00,331.50 410.00,310.00 410.00,310.00
             410.00,310.00 416.00,288.00 416.00,288.00
             416.00,288.00 411.00,282.00 411.00,282.00
             411.00,282.00 407.00,265.00 407.00,265.00
             407.00,265.00 424.00,246.00 424.00,246.00
             424.00,246.00 435.00,245.00 435.00,245.00
             435.00,245.00 434.75,232.50 434.75,232.50
             434.75,232.50 446.00,224.00 446.00,224.00
             446.00,224.00 461.25,226.50 461.25,226.50
             461.25,226.50 460.75,170.25 460.75,170.25
             460.75,170.25 209.00,361.00 209.00,361.00M 507.00,176.00" />
  <path id="ScapaFlow"
        fill="none" stroke="black" stroke-width="1"
        d="M 591.00,152.00
           C 591.00,152.00 586.50,305.25 586.50,305.25
             586.50,305.25 475.00,305.00 474.00,305.00
             473.00,305.00 501.00,279.00 501.00,279.00
             501.00,279.00 499.00,263.00 499.00,263.00
             499.00,263.00 460.00,260.00 460.00,260.00
             460.00,260.00 459.00,249.00 459.00,249.00
             459.00,249.00 485.00,236.00 485.00,236.00
             485.00,236.00 486.00,226.00 486.00,226.00
             486.00,226.00 462.00,225.00 462.00,225.00
             462.00,225.00 461.00,155.00 461.00,155.00
             461.00,155.00 589.00,150.00 589.00,150.00" />
  <path id="Belgium"
        fill="none" stroke="black" stroke-width="1"
        d="M 629.50,612.75
           C 629.50,612.75 632.00,599.00 632.00,599.00
             632.00,599.00 625.00,588.00 625.00,588.00
             625.00,588.00 630.25,574.50 630.25,574.50
             630.25,574.50 626.00,561.75 626.00,561.75
             626.00,561.75 626.50,542.75 626.50,542.75
             626.50,542.75 621.50,538.75 621.50,538.75
             621.50,538.75 612.50,536.50 612.50,536.50
             612.50,536.50 608.75,528.75 608.75,528.75
             608.75,528.75 586.25,521.25 586.25,521.25
             586.25,521.25 585.75,518.25 585.75,518.25
             585.75,518.25 576.75,525.50 576.75,525.50
             576.75,525.50 558.50,524.50 558.50,524.50
             558.50,524.50 555.00,529.00 555.00,529.00
             555.00,529.00 539.25,534.00 539.25,534.00
             539.25,534.00 541.75,549.50 541.75,549.50
             541.75,549.50 551.50,550.25 551.50,550.25
             551.50,550.25 554.75,561.25 554.75,561.25
             554.75,561.25 561.00,562.00 561.00,562.00
             561.00,562.00 565.25,568.00 565.25,568.00
             565.25,568.00 571.50,570.00 571.50,570.00
             571.50,570.00 574.50,584.00 574.50,584.00
             574.50,584.00 590.00,584.25 590.00,584.25
             590.00,584.25 596.50,598.00 596.50,598.00
             596.50,598.00 603.75,606.00 603.75,606.00
             603.75,606.00 618.50,609.50 618.50,609.50
             618.50,609.50 629.50,613.00 629.50,613.00" />
  <path id="Paris"
        fill="none" stroke="black" stroke-width="1"
        d="M 535.50,663.50
           C 535.50,663.50 522.75,674.00 522.75,674.00
             522.75,674.00 509.75,679.25 509.75,679.25
             509.75,679.25 499.25,680.75 499.25,680.75
             499.25,680.75 491.50,678.25 491.50,678.25
             491.50,678.25 482.75,677.50 482.75,677.50
             482.75,677.50 473.00,669.75 473.00,669.75
             473.00,669.75 450.00,628.50 450.00,628.50
             450.00,628.50 470.50,606.00 470.50,606.00
             470.50,606.00 474.00,579.25 474.00,579.25
             474.00,579.25 517.00,605.00 517.25,605.00
             517.50,605.00 531.25,615.75 531.25,615.75
             531.25,615.75 544.00,623.25 544.00,623.25
             544.00,623.25 543.75,629.75 543.50,629.75
             543.25,629.75 533.75,637.50 533.75,637.50
             533.75,637.50 531.50,644.25 531.50,644.25
             531.50,644.25 531.25,653.00 531.25,653.00
             531.25,653.00 533.50,657.75 533.75,657.75
             534.00,657.75 535.50,663.50 535.50,663.50" />
  <path id="LeMans"
        fill="none" stroke="black" stroke-width="1"
        d="M 393.00,719.25
           C 393.00,719.25 405.00,719.00 405.00,719.00
             405.00,719.00 458.75,702.50 458.75,702.50
             458.75,702.50 483.50,678.00 483.50,678.00
             483.50,678.00 473.00,669.25 473.00,669.25
             473.00,669.25 450.75,628.50 450.75,628.50
             450.75,628.50 405.75,644.25 405.75,644.25
             405.75,644.25 377.50,666.25 377.50,666.25
             377.50,666.25 377.25,671.00 377.25,671.00
             377.25,671.00 380.25,674.50 380.25,674.50
             380.25,674.50 377.25,678.25 377.25,678.25
             377.25,678.25 369.25,673.75 369.25,673.75
             369.25,673.75 367.75,680.00 367.75,680.00
             367.75,680.00 375.50,683.25 375.50,683.25
             375.50,683.25 375.75,693.75 375.75,693.75
             375.75,693.75 385.25,705.50 385.25,705.50
             385.25,705.50 395.50,711.00 395.50,711.00
             395.50,711.00 393.00,719.00 393.00,719.00" />
  <path id="WesternAtlantic"
        fill="none" stroke="black" stroke-width="1"
        d="M 0.00,735.50
           C 0.00,735.50 265.00,725.00 265.00,725.00
             265.00,725.00 274.50,562.00 274.50,562.00
             274.50,562.00 1.50,572.00 1.50,572.00
             1.50,572.00 0.00,736.00 0.00,736.00" />
  <path id="BrestHarbor"
        fill="none" stroke="black" stroke-width="1"
        d="M 275.50,561.75
           C 275.50,561.75 266.50,724.50 266.50,724.50
             266.50,724.50 392.75,719.50 392.75,719.50
             392.75,719.50 395.25,710.75 395.25,710.75
             395.25,710.75 384.75,704.75 384.75,704.75
             384.75,704.75 376.00,693.75 376.00,693.75
             376.00,693.75 375.25,683.50 375.25,683.50
             375.25,683.50 368.25,679.50 368.25,679.50
             368.25,679.50 369.50,673.00 369.50,673.00
             369.50,673.00 377.75,678.00 377.75,678.00
             377.75,678.00 380.25,674.25 380.25,674.25
             380.25,674.25 377.50,670.75 377.50,670.75
             377.50,670.75 378.25,665.75 378.25,665.75
             378.25,665.75 370.00,666.25 370.00,666.25
             370.00,666.25 366.50,659.25 366.50,659.25
             366.50,659.25 371.25,656.25 371.25,656.25
             371.25,656.25 371.50,650.25 371.50,650.25
             371.50,650.25 357.75,648.50 357.75,648.50
             357.75,648.50 354.25,643.50 354.25,643.50
             354.25,643.50 344.50,643.00 344.50,643.00
             344.50,643.00 335.00,639.00 335.00,639.00
             335.00,639.00 329.75,631.75 329.75,631.75
             329.75,631.75 323.75,636.00 323.75,636.00
             323.75,636.00 322.50,624.50 322.50,624.50
             322.50,624.50 316.75,621.00 316.75,621.00
             316.75,621.00 317.00,617.00 317.00,617.00
             317.00,617.00 326.50,617.00 326.50,617.00
             326.50,617.00 327.00,610.50 327.00,610.50
             327.00,610.50 322.25,609.25 322.25,609.25
             322.25,609.25 316.00,602.75 316.00,602.75
             316.00,602.75 325.50,596.50 325.50,596.50
             325.50,596.50 328.00,560.25 328.00,560.25
             328.00,560.25 275.75,562.25 275.75,562.25" />
  <path id="Hamburg"
        fill="none" stroke="black" stroke-width="1"
        d="M 743.50,408.00
           C 743.50,408.00 747.50,411.50 747.50,411.50
             747.50,411.50 747.50,417.75 747.50,417.75
             747.50,417.75 752.25,424.25 752.25,424.25
             752.25,424.25 768.75,422.50 768.75,422.50
             768.75,422.50 771.25,427.75 771.25,427.75
             771.25,427.75 763.50,435.50 763.50,435.50
             763.50,435.50 765.00,441.00 765.00,441.00
             765.00,441.00 768.00,461.75 768.00,461.75
             768.00,461.75 760.25,484.25 760.25,484.25
             760.25,484.25 729.00,484.75 729.00,484.75
             729.00,484.75 720.50,488.25 720.50,488.25
             720.50,488.25 685.50,488.75 685.50,488.75
             685.50,488.75 681.50,490.75 681.50,490.75
             681.50,490.75 662.00,489.00 662.00,489.00
             662.00,489.00 669.75,474.25 669.75,474.25
             669.75,474.25 672.00,458.75 672.00,458.75
             672.00,458.75 667.00,454.00 667.00,454.00
             667.00,454.00 670.00,447.50 670.00,447.50
             670.00,447.50 694.25,449.50 694.25,449.50
             694.25,449.50 695.50,457.75 695.50,457.75
             695.50,457.75 706.25,446.00 706.25,446.00
             706.25,446.00 718.75,443.25 718.75,443.25
             718.75,443.25 714.00,430.00 714.00,430.00
             714.00,430.00 709.50,420.25 709.50,420.25
             709.50,420.25 714.00,402.00 714.00,402.00
             714.00,402.00 743.50,408.25 743.50,408.25" />
  <path id="HamburgHarbor"
        fill="none" stroke="black" stroke-width="1"
        d="M 588.00,326.00
           C 589.00,326.00 714.00,326.00 714.00,326.00
             714.00,326.00 709.00,346.00 709.00,346.00
             709.00,346.00 698.00,351.00 698.00,351.00
             698.00,351.00 708.75,361.00 707.75,362.00
             706.75,363.00 702.50,379.25 702.50,379.25
             713.67,391.54 714.00,402.00 714.00,402.00
             714.00,402.00 708.50,420.50 708.50,420.50
             708.50,420.50 714.00,432.00 714.00,432.00
             714.00,432.00 719.00,443.00 719.00,443.00
             719.00,443.00 709.00,445.00 708.00,445.00
             707.00,445.00 696.00,458.25 696.00,458.25
             696.00,458.25 695.00,449.00 695.00,449.00
             695.00,449.00 670.00,447.00 670.00,447.00
             670.00,447.00 667.00,454.00 667.00,454.00
             667.00,454.00 631.00,457.00 631.00,457.00
             631.00,457.00 628.00,467.00 628.00,467.00
             628.00,467.00 632.00,474.00 632.00,474.00
             632.00,474.00 626.00,481.00 626.00,481.00
             626.00,481.00 615.00,484.00 615.00,484.00
             615.00,484.00 613.75,468.00 612.75,469.00
             611.75,470.00 585.25,469.75 585.25,469.75
             585.25,469.75 587.00,326.00 587.00,326.00" />
  <path id="BergenCoast"
        fill="none" stroke="black" stroke-width="1"
        d="M 711.00,325.00
           C 711.00,325.00 586.00,325.00 586.00,325.00
             586.00,325.00 590.00,178.00 590.00,178.00
             590.00,178.00 665.00,178.00 665.00,178.00
             665.00,178.00 668.00,209.00 668.00,209.00
             668.00,209.00 662.00,230.00 661.00,230.00
             660.00,230.00 670.00,246.00 670.00,246.00
             670.00,246.00 662.00,252.00 661.00,252.00
             660.00,252.00 672.00,266.00 672.00,266.00
             672.00,266.00 689.00,281.00 689.00,281.00
             689.00,281.00 701.00,284.00 701.00,284.00
             701.00,284.00 721.00,276.00 721.00,276.00
             721.00,276.00 736.00,259.00 736.00,259.00
             736.00,259.00 735.00,311.00 735.00,311.00
             735.00,311.00 726.00,317.00 726.00,317.00
             726.00,317.00 712.00,325.00 712.00,325.00" />
  <path id="Bergen"
        fill="none" stroke="black" stroke-width="1"
        d="M 736.25,258.50
           C 736.25,258.50 737.00,244.75 737.00,244.75
             737.00,244.75 731.00,237.75 731.00,237.75
             731.00,237.75 729.75,222.25 729.75,222.25
             729.75,222.25 730.75,212.50 730.75,212.50
             730.75,212.50 733.00,200.00 733.00,199.75
             733.00,199.50 731.25,190.75 731.25,190.75
             731.25,190.75 733.50,180.25 733.50,180.25
             733.50,180.25 744.25,158.00 744.25,158.00
             744.25,158.00 729.00,159.00 729.00,159.00
             729.00,159.00 716.25,161.00 716.25,161.00
             716.25,161.00 707.75,161.50 707.75,161.50
             707.75,161.50 700.50,166.25 700.25,166.25
             700.00,166.25 686.50,172.00 686.50,172.00
             686.50,172.00 674.75,175.75 674.75,175.75
             674.75,175.75 665.50,178.00 665.50,178.00
             665.50,178.00 667.75,208.75 667.75,208.75
             667.75,208.75 661.25,230.00 661.25,230.00
             661.25,230.00 669.75,246.25 669.75,246.25
             669.75,246.25 661.00,252.25 661.00,252.25
             661.00,252.25 673.00,267.50 673.00,267.50
             673.00,267.50 688.00,280.25 688.00,280.25
             688.00,280.25 701.00,284.00 701.00,284.00
             701.00,284.00 721.00,276.25 721.00,276.25
             721.00,276.25 736.00,258.50 736.00,258.50" />
  <path id="Trondheim"
        fill="none" stroke="black" stroke-width="1"
        d="M 811.50,162.00
           C 811.25,162.00 810.75,134.75 810.75,134.75
             810.75,134.75 808.50,97.75 808.50,97.75
             808.50,97.75 824.00,76.50 824.00,76.50
             824.00,76.50 871.25,1.25 871.25,1.25
             871.25,1.25 804.50,1.25 804.50,1.25
             804.50,1.25 783.50,51.75 783.50,51.75
             783.50,51.75 742.25,89.00 742.25,89.00
             742.25,89.00 715.25,103.75 715.25,103.75
             715.25,103.75 673.75,126.00 673.75,126.00
             673.75,126.00 670.75,154.75 670.75,154.75
             670.75,154.75 665.25,178.25 665.25,178.25
             665.25,178.25 674.50,176.75 674.50,176.75
             674.50,176.75 692.75,170.00 692.75,170.00
             692.75,170.00 710.50,161.00 710.50,161.00
             710.50,161.00 743.25,158.50 743.25,158.50
             743.25,158.50 755.00,153.50 755.00,153.50
             755.00,153.50 764.25,153.00 764.25,153.00
             764.25,153.00 776.00,156.75 776.00,156.75
             776.00,156.75 790.00,160.50 790.00,160.50
             790.00,160.50 799.50,163.50 799.50,163.50
             799.50,163.50 811.50,162.50 811.50,162.50" />
  <path id="Nancy"
        fill="none" stroke="black" stroke-width="1"
        d="M 603.00,728.00
           C 603.00,727.50 594.00,718.50 594.00,718.50
             594.00,718.50 593.00,704.50 593.00,704.50
             593.00,704.50 589.50,692.50 589.50,692.50
             589.50,692.50 578.00,677.00 578.00,677.00
             578.00,677.00 583.50,669.50 583.50,669.50
             583.50,669.50 597.00,664.00 597.00,664.00
             597.00,664.00 608.50,657.00 608.50,657.00
             608.50,657.00 615.00,653.00 615.00,653.00
             615.00,653.00 618.00,640.50 618.00,640.50
             618.00,640.50 632.50,638.00 632.50,638.00
             632.50,638.00 643.00,628.00 643.00,628.00
             643.00,628.00 667.50,630.50 667.50,630.50
             667.50,630.50 673.50,639.00 673.50,639.00
             673.50,639.00 671.00,648.00 671.00,648.00
             671.00,648.00 662.50,655.00 662.50,655.00
             662.50,655.00 654.50,667.50 654.50,667.50
             654.50,667.50 655.00,692.00 655.00,692.00
             655.00,692.00 634.00,694.00 634.00,694.00
             634.00,694.00 633.50,701.50 633.50,701.50
             633.50,701.50 627.00,704.50 627.00,704.50
             627.00,704.50 621.00,711.50 621.00,711.50
             621.00,711.50 615.00,718.00 614.50,718.00
             614.00,718.00 602.50,728.00 603.50,728.50" />
  <path id="Orleans"
        fill="none" stroke="black" stroke-width="1"
        d="M 594.00,718.00
           C 594.00,718.00 572.00,734.50 572.00,734.50
             572.00,734.50 554.00,744.50 554.00,744.50
             554.00,744.50 532.50,756.00 532.50,756.00
             532.50,756.00 515.50,757.50 515.50,757.50
             515.50,757.50 502.50,754.00 502.50,754.00
             502.50,754.00 487.00,748.00 487.00,748.00
             487.00,748.00 472.00,736.00 472.00,736.00
             472.00,736.00 462.50,720.00 462.50,720.00
             462.50,720.00 457.50,702.50 457.50,702.50
             457.50,702.50 483.00,678.00 483.00,678.00
             483.00,678.00 498.50,680.50 498.50,680.50
             498.50,680.50 509.50,679.50 509.50,679.50
             509.50,679.50 522.50,673.00 522.50,673.00
             522.50,673.00 535.50,663.00 535.50,663.00
             535.50,663.00 547.50,677.50 547.50,677.50
             547.50,677.50 560.50,682.00 560.50,682.00
             560.50,682.00 569.00,682.00 569.00,682.00
             569.00,682.00 578.00,676.50 578.00,676.50
             578.00,676.50 588.00,689.50 588.00,689.50
             588.00,689.50 593.50,703.50 593.50,703.50
             593.50,703.50 594.50,718.00 594.50,718.00" />
  <path id="Casablanca"
        fill="none" stroke="black" stroke-width="1"
        d="M 148.50,1287.50
           C 148.50,1287.50 149.50,1181.50 149.50,1181.50
             149.50,1181.50 127.50,1186.00 127.50,1186.00
             127.50,1186.00 108.50,1180.50 108.50,1180.50
             108.50,1180.50 87.50,1178.50 87.50,1178.50
             87.50,1178.50 68.50,1180.50 68.50,1180.50
             68.50,1180.50 50.00,1195.00 50.00,1195.00
             50.00,1195.00 0.00,1219.00 0.00,1219.00
             0.00,1219.00 0.00,1292.00 0.00,1292.00
             0.00,1292.00 148.50,1289.50 148.50,1289.50" />
  <path id="Seazone10"
        fill="none" stroke="black" stroke-width="1"
        d="M 0.50,1219.00
           C 0.50,1219.00 48.50,1198.00 48.50,1198.00
             48.50,1198.00 78.00,1172.50 78.00,1172.50
             78.00,1172.50 79.50,1052.50 79.50,1052.50
             79.50,1052.50 67.50,1054.50 67.50,1054.50
             67.50,1054.50 45.50,1048.00 45.50,1048.00
             45.50,1048.00 41.50,1039.50 41.50,1039.50
             41.50,1039.50 29.00,1035.00 29.00,1035.00
             29.00,1035.00 37.50,1020.50 37.50,1020.50
             37.50,1020.50 47.50,998.50 47.50,998.50
             47.50,998.50 52.00,986.50 52.00,986.00
             52.00,985.50 55.00,977.50 55.00,977.50
             55.00,977.50 45.50,977.50 45.50,977.50
             45.50,977.50 40.00,969.50 40.00,969.50
             40.00,969.50 35.50,957.00 35.50,957.00
             35.50,957.00 47.00,944.50 47.00,944.50
             47.00,944.50 67.50,921.00 67.50,921.00
             67.50,921.00 87.50,893.50 87.50,893.50
             87.50,893.50 0.50,895.00 0.50,895.00
             0.50,895.00 0.50,1219.00 0.50,1219.00" />
  <path id="BayofBiscay"
        fill="none" stroke="black" stroke-width="1"
        d="M 348.50,824.00
           C 348.50,824.00 361.50,807.50 361.50,807.50
             361.50,807.50 372.50,778.50 372.50,778.50
             372.50,778.50 383.00,750.50 383.00,750.50
             383.00,750.50 384.50,736.50 384.50,736.50
             384.50,736.50 385.00,730.50 385.00,730.50
             385.00,730.50 379.00,724.50 379.00,724.50
             379.00,724.50 387.00,724.00 387.00,724.00
             387.00,724.00 391.50,724.50 391.50,724.50
             391.50,724.50 391.50,719.00 391.50,719.00
             391.50,719.00 233.50,726.50 233.50,726.50
             233.50,726.50 235.50,792.50 235.50,792.50
             235.50,792.50 252.50,804.50 252.50,804.50
             252.50,804.50 266.50,803.50 266.50,803.50
             266.50,803.50 273.50,809.00 273.50,809.00
             273.50,809.00 291.50,810.00 291.50,810.00
             291.50,810.00 300.50,817.00 300.50,817.00
             300.50,817.00 322.00,820.00 322.00,820.00
             322.00,820.00 331.50,824.00 331.50,824.00
             331.50,824.00 348.50,824.50 348.50,824.50" />
  <path id="Seazone4"
        fill="none" stroke="black" stroke-width="1"
        d="M 235.00,791.50
           C 235.00,791.50 234.00,726.50 234.00,726.50
             234.00,726.50 0.50,735.50 0.50,735.50
             0.50,735.50 0.50,895.00 0.50,895.00
             0.50,895.00 87.50,892.50 87.50,892.50
             87.50,892.50 99.00,872.50 99.00,872.50
             99.00,872.50 107.00,836.00 107.00,836.00
             107.00,836.00 108.50,825.50 108.50,825.50
             108.50,825.50 119.00,815.50 119.00,815.50
             119.00,815.50 118.00,803.50 118.00,803.50
             118.00,803.50 113.00,795.00 113.00,795.00
             113.00,795.00 112.50,785.50 112.50,785.50
             112.50,785.50 121.50,777.00 121.50,777.00
             121.50,777.00 145.00,774.00 145.00,774.00
             145.00,774.00 155.50,767.00 155.50,767.00
             155.50,767.00 169.00,767.00 169.00,767.00
             169.00,767.00 180.00,775.00 180.00,775.00
             180.00,775.00 194.50,781.00 194.50,781.00
             194.50,781.00 209.50,782.50 209.50,782.50
             209.50,782.50 216.50,787.50 216.50,787.50
             216.50,787.50 230.00,788.00 230.00,788.00
             230.00,788.00 235.50,791.50 235.50,791.50" />
  <path id="WesternBaltic"
        fill="none" stroke="black" stroke-width="1"
        d="M 841.50,392.50
           C 841.50,392.50 840.00,440.50 840.00,440.50
             840.00,440.50 849.50,443.50 849.50,443.50
             849.50,443.50 861.00,438.50 861.00,438.50
             861.00,438.50 869.00,438.00 869.00,438.00
             869.00,438.00 902.00,420.00 902.00,420.00
             902.00,420.00 906.00,420.00 906.50,420.00
             907.00,420.00 912.00,414.50 912.00,414.50
             912.00,414.50 917.00,416.00 917.00,416.00
             917.00,416.00 931.00,406.50 931.00,406.50
             931.00,406.50 938.50,407.00 938.50,407.00
             938.50,407.00 941.50,405.00 941.50,405.00
             941.50,405.00 951.50,409.50 951.50,409.50
             951.50,409.50 950.50,417.00 950.50,417.00
             950.50,417.00 952.50,424.00 952.50,424.00
             952.50,424.00 962.00,423.00 962.00,423.00
             962.00,423.00 972.00,416.50 972.00,416.50
             972.00,416.50 975.50,419.50 975.50,419.50
             975.50,419.50 983.50,413.00 983.50,413.00
             983.50,413.00 977.00,408.00 977.00,408.00
             977.00,408.00 977.50,400.50 977.50,400.50
             977.50,400.50 996.50,399.00 996.50,399.00
             996.50,399.00 1008.50,394.50 1008.50,394.50
             1008.50,394.50 1009.00,385.00 1009.00,385.00
             1009.00,385.00 1006.00,380.50 1006.00,380.50
             1006.00,380.50 1006.00,366.00 1006.00,366.00
             1006.00,366.00 1000.50,352.50 1000.50,352.50
             1000.50,352.50 900.00,304.50 900.00,304.50
             900.00,304.50 896.00,311.50 896.00,311.50
             896.00,311.50 897.50,324.00 897.50,324.00
             897.50,324.00 903.00,332.00 903.00,332.00
             903.00,332.00 900.50,348.50 900.50,348.50
             900.50,348.50 893.00,355.00 893.00,355.00
             893.00,355.00 889.50,345.50 889.50,345.50
             889.50,345.50 885.50,347.50 885.50,347.50
             885.50,347.50 880.50,360.00 880.50,360.00
             880.50,360.00 869.50,358.00 869.50,358.00
             869.50,358.00 861.50,362.50 861.50,362.50
             861.50,362.50 856.00,358.50 856.00,358.50
             856.00,358.50 843.00,371.00 843.00,371.00
             843.00,371.00 852.50,381.00 852.50,381.00
             852.50,381.00 841.00,392.50 841.00,392.50" />
  <path id="Konigsberg"
        fill="none" stroke="black" stroke-width="1"
        d="M 1006.50,365.50
           C 1006.50,365.50 1019.00,372.00 1019.00,372.00
             1019.00,372.00 1025.50,383.00 1025.50,383.00
             1025.50,383.00 1038.50,391.50 1038.50,391.50
             1038.50,391.50 1044.50,398.50 1044.50,398.50
             1044.50,398.50 1044.50,414.00 1044.50,414.50
             1044.50,415.00 1035.50,421.50 1035.00,422.00
             1034.50,422.50 1043.50,437.50 1043.50,437.50
             1043.50,437.50 1034.00,449.00 1034.00,449.00
             1034.00,449.00 1017.00,453.50 1017.00,453.50
             1017.00,453.50 1005.00,465.00 1005.00,465.00
             1005.00,465.00 997.50,464.00 997.50,464.00
             997.50,464.00 994.50,461.50 994.50,461.50
             994.50,461.50 986.00,460.50 986.00,460.50
             986.00,460.50 979.00,453.00 979.00,453.00
             979.00,453.00 968.00,462.50 968.00,462.50
             968.00,462.50 957.50,459.50 957.50,459.50
             957.50,459.50 953.00,448.00 952.50,448.00
             952.00,448.00 958.00,437.50 958.00,437.50
             958.00,437.50 975.50,420.50 975.50,420.50
             975.50,420.50 984.50,414.50 984.50,414.50
             984.50,414.50 978.50,408.00 978.50,408.00
             978.50,408.00 979.00,400.50 979.00,400.50
             979.00,400.50 989.50,400.50 989.50,400.50
             989.50,400.50 999.50,399.00 999.50,399.00
             999.50,399.00 1009.50,394.50 1009.50,394.50
             1009.50,394.50 1009.50,386.50 1009.50,386.50
             1009.50,386.50 1006.50,379.00 1006.50,379.00
             1006.50,379.00 1007.00,365.50 1007.00,365.50" />
  <path id="Danzig"
        fill="none" stroke="black" stroke-width="1"
        d="M 916.50,486.50
           C 916.50,486.50 936.00,488.00 936.00,488.00
             936.00,488.00 954.50,495.00 954.50,495.00
             954.50,495.00 977.50,496.00 977.50,496.00
             977.50,496.00 999.00,493.00 999.00,493.00
             999.00,493.00 1017.50,484.00 1017.50,484.00
             1017.50,484.00 1047.50,483.00 1047.50,483.00
             1047.50,483.00 1048.50,476.50 1048.50,476.50
             1048.50,476.50 1044.00,474.50 1044.00,474.50
             1044.00,474.50 1043.50,464.00 1043.50,464.00
             1043.50,464.00 1034.50,449.00 1034.50,449.00
             1034.50,449.00 1018.00,454.00 1018.00,454.00
             1018.00,454.00 1005.00,465.50 1005.00,465.50
             1005.00,465.50 997.50,465.50 997.50,465.50
             997.50,465.50 994.00,460.50 994.00,460.50
             994.00,460.50 987.00,461.00 987.00,461.00
             987.00,461.00 979.50,453.00 979.00,453.00
             978.50,453.00 968.00,461.50 968.00,461.50
             968.00,461.50 957.50,458.50 957.50,458.50
             957.50,458.50 953.00,448.00 953.00,448.00
             953.00,448.00 960.00,436.00 960.00,436.00
             960.00,436.00 976.00,421.00 976.00,421.00
             976.00,421.00 973.00,415.50 973.00,415.50
             973.00,415.50 962.00,423.00 962.00,423.00
             962.00,423.00 953.00,424.00 953.00,424.00
             953.00,424.00 950.50,417.00 950.50,417.00
             950.50,417.00 951.00,408.50 951.00,408.50
             951.00,408.50 940.50,405.00 940.50,405.00
             940.50,405.00 931.00,419.00 931.00,419.00
             931.00,419.00 931.50,433.00 931.50,433.00
             931.50,433.00 922.00,445.00 922.00,445.00
             922.00,445.00 922.00,468.50 922.00,468.50
             922.00,468.50 916.50,486.50 916.50,486.50" />
  <path id="Stettin"
        fill="none" stroke="black" stroke-width="1"
        d="M 940.00,407.50
           C 940.00,407.50 931.50,420.00 931.50,420.00
             931.50,420.00 931.50,433.00 931.50,433.00
             931.50,433.00 922.00,445.00 922.00,445.00
             922.00,445.00 922.00,468.50 922.00,468.50
             922.00,468.50 915.50,487.50 915.50,487.50
             915.50,487.50 907.00,499.50 907.00,499.50
             907.00,499.50 906.50,506.50 906.50,506.50
             906.50,506.50 893.50,507.00 893.50,507.00
             893.50,507.00 877.50,513.50 877.50,513.50
             877.50,513.50 865.50,514.00 865.50,514.00
             865.50,514.00 853.00,520.50 853.00,520.50
             853.00,520.50 846.00,510.00 846.00,510.00
             846.00,510.00 846.50,498.00 846.50,498.00
             846.50,498.00 842.00,492.00 842.00,492.00
             842.00,492.00 838.50,480.50 838.50,480.50
             838.50,480.50 834.50,470.50 834.50,470.50
             834.50,470.50 839.50,459.00 839.50,459.00
             839.50,459.00 837.00,449.50 837.00,449.50
             837.00,449.50 840.00,441.50 840.00,441.50
             840.00,441.50 849.00,443.00 849.00,443.00
             849.00,443.00 861.50,439.50 861.50,439.00
             861.50,438.50 867.50,439.00 867.50,439.00
             867.50,439.00 901.50,420.00 901.50,420.00
             901.50,420.00 906.00,419.50 906.50,419.50
             907.00,419.50 912.00,415.50 912.00,415.50
             912.00,415.50 917.00,416.50 917.00,416.50
             917.00,416.50 931.00,406.50 931.00,406.50
             931.00,406.50 940.50,407.50 940.50,407.50" />
  <path id="Venice"
        fill="none" stroke="black" stroke-width="1"
        d="M 782.00,811.00
           C 782.00,811.00 788.50,809.50 788.50,809.50
             788.50,809.50 793.00,811.00 793.00,811.00
             793.00,811.00 792.00,799.50 792.00,799.50
             792.00,799.50 794.00,795.00 794.00,795.00
             794.00,795.00 788.50,784.50 788.50,784.50
             788.50,784.50 794.00,778.50 794.00,778.50
             794.00,778.50 805.00,778.50 805.00,778.50
             805.00,778.50 814.50,767.50 814.50,767.50
             814.50,767.50 822.50,770.00 822.50,770.00
             822.50,770.00 824.50,760.00 824.50,760.00
             824.50,760.00 825.50,754.00 825.50,754.00
             825.50,754.00 819.50,748.50 819.00,748.50
             818.50,748.50 821.00,744.00 821.00,744.00
             821.00,744.00 828.00,739.00 828.00,739.00
             828.00,739.00 807.00,736.00 806.00,736.00
             805.00,736.00 796.50,733.50 796.50,733.50
             796.50,733.50 782.50,723.50 782.50,723.50
             782.50,723.50 784.00,718.00 784.00,718.00
             784.00,718.00 779.50,713.50 779.50,713.50
             779.50,713.50 766.50,718.50 766.50,718.50
             766.50,718.50 752.50,718.00 752.50,718.00
             752.50,718.00 749.00,724.00 749.00,724.00
             749.00,724.00 738.50,724.50 738.50,724.50
             738.50,724.50 735.00,733.50 735.00,733.50
             735.00,733.50 726.00,731.50 726.00,731.50
             726.00,731.50 721.50,734.00 721.50,734.00
             721.50,734.00 722.00,747.50 722.00,747.50
             722.00,747.50 719.00,756.00 719.00,756.00
             719.00,756.00 722.50,765.00 722.50,765.00
             722.50,765.00 734.00,778.00 734.00,778.00
             734.00,778.00 731.00,792.50 731.00,792.50
             731.00,792.50 737.50,816.00 737.50,816.00
             737.50,816.00 763.00,811.50 763.00,811.50
             763.00,811.50 782.00,811.50 782.00,811.50" />
  <path id="Milan"
        fill="none" stroke="black" stroke-width="1"
        d="M 630.50,848.00
           C 630.50,848.00 640.50,846.50 640.50,846.50
             640.50,846.50 649.50,846.00 649.50,846.00
             649.50,846.00 660.50,836.00 660.50,836.00
             660.50,836.00 670.50,826.50 670.50,826.50
             670.50,826.50 679.00,822.50 679.00,822.50
             679.00,822.50 691.00,828.50 691.00,828.50
             691.00,828.50 698.50,832.50 698.50,832.50
             698.50,832.50 737.00,818.50 737.00,818.00
             737.00,817.50 731.00,793.50 731.00,793.50
             731.00,793.50 733.00,778.50 733.00,778.50
             733.00,778.50 720.50,763.50 720.50,763.50
             720.50,763.50 722.00,747.50 722.00,747.50
             722.00,747.50 714.50,741.50 714.50,741.50
             714.50,741.50 696.50,743.00 696.50,743.00
             696.50,743.00 689.50,755.50 689.50,755.50
             689.50,755.50 682.50,758.50 682.50,758.50
             682.50,758.50 667.50,742.00 667.50,742.00
             667.50,742.00 652.00,754.00 652.00,754.00
             652.00,754.00 630.50,757.50 630.50,757.50
             630.50,757.50 622.00,761.50 622.00,761.50
             622.00,761.50 626.50,785.00 626.50,785.00
             626.50,785.00 613.00,791.00 612.50,791.00
             612.00,791.00 612.50,798.00 612.50,798.00
             612.50,798.00 619.00,803.50 619.00,803.50
             619.00,803.50 613.50,821.00 613.50,821.00
             613.50,821.00 619.00,829.50 619.00,829.50
             619.00,829.50 635.50,834.00 635.50,834.00
             635.50,834.00 630.50,848.00 630.50,848.00" />
  <path id="Switzerland"
        fill="none" stroke="black" stroke-width="1"
        d="M 603.00,729.50
           C 603.00,729.50 598.50,740.00 598.50,740.00
             598.50,740.00 602.00,746.00 602.00,746.00
             602.00,746.00 609.00,741.50 609.00,741.50
             609.00,741.50 614.00,738.00 614.00,738.00
             614.00,738.00 621.50,741.00 621.50,741.00
             621.50,741.00 621.50,750.50 621.50,750.50
             621.50,750.50 631.50,757.00 631.50,757.00
             631.50,757.00 652.00,754.00 652.00,754.00
             652.00,754.00 668.00,741.50 668.00,741.50
             668.00,741.50 683.00,758.00 683.00,758.00
             683.00,758.00 689.50,756.00 689.50,756.00
             689.50,756.00 696.50,743.00 696.50,743.00
             696.50,743.00 713.00,741.00 713.00,741.00
             713.00,741.00 722.50,747.00 722.50,747.00
             722.50,747.00 721.50,734.00 721.50,734.00
             721.50,734.00 726.00,731.00 726.00,731.00
             726.00,731.00 734.00,733.50 734.50,733.50
             735.00,733.50 738.00,725.50 738.00,725.50
             738.00,725.50 736.00,718.50 736.00,718.50
             736.00,718.50 727.50,717.00 727.50,717.00
             727.50,717.00 721.00,714.50 721.00,714.50
             721.00,714.50 707.50,715.50 707.50,715.50
             707.50,715.50 707.50,700.00 707.50,700.00
             707.50,700.00 695.50,690.50 695.50,690.50
             695.50,690.50 656.00,691.00 656.00,691.00
             656.00,691.00 633.50,694.00 633.50,694.00
             633.50,694.00 633.00,702.50 633.00,702.50
             633.00,702.50 603.00,730.00 603.50,730.00" />
  <path id="Moscow"
        fill="none" stroke="black" stroke-width="1"
        d="M 1424.00,318.00
           C 1424.00,318.00 1456.50,315.00 1456.50,315.00
             1456.50,315.00 1468.00,305.50 1468.00,305.50
             1468.00,305.50 1471.00,299.50 1471.00,299.50
             1471.00,299.50 1470.50,288.00 1470.50,288.00
             1470.50,288.00 1484.00,282.50 1484.00,282.50
             1484.00,282.50 1509.00,280.00 1509.00,280.00
             1509.00,280.00 1533.50,281.50 1533.50,281.50
             1533.50,281.50 1546.50,290.50 1546.50,290.50
             1546.50,290.50 1560.00,293.50 1560.00,293.50
             1560.00,293.50 1566.50,304.00 1566.50,304.00
             1566.50,304.00 1560.50,314.50 1560.50,314.50
             1560.50,314.50 1546.00,328.50 1546.00,328.50
             1546.00,328.50 1529.50,336.50 1529.00,336.50
             1528.50,336.50 1514.00,350.00 1514.00,350.00
             1514.00,350.00 1504.50,366.50 1504.50,366.50
             1504.50,366.50 1496.50,382.50 1496.50,382.50
             1496.50,382.50 1485.00,392.00 1485.00,392.00
             1485.00,392.00 1467.00,391.00 1467.00,391.00
             1467.00,391.00 1458.50,395.50 1458.50,395.50
             1458.50,395.50 1444.00,393.00 1444.00,393.00
             1444.00,393.00 1434.00,390.50 1434.00,390.50
             1434.00,390.50 1426.00,385.00 1426.00,385.00
             1426.00,385.00 1416.50,385.00 1416.50,385.00
             1416.50,385.00 1406.00,379.50 1406.00,379.50
             1406.00,379.50 1397.50,371.00 1397.50,371.00
             1397.50,371.00 1394.50,361.00 1394.50,361.00
             1394.50,361.00 1397.00,340.50 1397.00,340.50
             1397.00,340.50 1424.50,318.00 1424.50,318.00" />
  <path id="CorsicaSeazone"
        fill="none" stroke="black" stroke-width="1"
        d="M 796.50,953.00
           C 796.50,953.00 781.00,943.00 781.00,943.00
             781.00,943.00 781.00,938.50 781.00,938.50
             781.00,938.50 776.50,935.00 776.50,935.00
             776.50,935.00 771.50,934.00 771.50,934.00
             771.50,934.00 767.00,929.00 767.00,929.00
             767.00,929.00 770.00,920.50 770.00,920.50
             770.00,920.50 758.00,908.50 758.00,908.50
             758.00,908.50 746.50,907.50 746.50,907.50
             746.50,907.50 742.50,898.50 742.50,898.50
             742.50,898.50 738.50,890.00 738.50,890.00
             738.50,890.00 728.00,883.50 728.00,883.50
             728.00,883.50 723.50,873.00 723.50,873.00
             723.50,873.00 726.00,866.00 726.00,866.00
             726.00,866.00 716.50,845.50 716.50,845.50
             716.50,845.50 711.50,842.50 711.50,842.50
             711.50,842.50 699.00,833.50 699.00,833.50
             699.00,833.50 678.50,822.50 678.50,822.50
             678.50,822.50 670.50,826.00 670.50,826.00
             670.50,826.00 648.50,846.00 648.50,846.00
             648.50,846.00 630.50,848.00 630.50,848.00
             630.50,848.00 638.00,974.00 638.00,974.00
             638.00,974.00 654.50,975.00 654.50,975.00
             654.50,975.00 665.00,969.50 665.00,969.50
             665.00,969.50 668.50,962.00 668.50,962.00
             668.50,962.00 679.50,960.50 679.50,960.50
             679.50,960.50 689.50,965.00 689.50,965.00
             689.50,965.00 797.00,953.50 797.00,953.50" />
  <path id="MarseilleHarbor"
        fill="none" stroke="black" stroke-width="1"
        d="M 633.50,927.50
           C 633.50,927.50 630.50,848.50 630.50,848.50
             630.50,848.50 622.00,849.00 622.00,849.00
             622.00,849.00 616.50,858.50 616.50,859.50
             616.50,860.50 605.50,862.50 605.50,862.50
             605.50,862.50 595.50,869.50 595.50,869.50
             595.50,869.50 578.50,870.50 578.50,870.50
             578.50,870.50 575.00,864.00 575.00,864.00
             575.00,864.00 564.00,865.00 564.00,865.00
             564.00,865.00 561.50,860.50 561.50,860.00
             561.50,859.50 555.50,856.50 555.50,856.50
             555.50,856.50 552.00,852.00 552.00,852.00
             552.00,852.00 538.50,854.50 538.50,854.50
             538.50,854.50 527.50,848.50 527.50,848.50
             527.50,848.50 513.00,853.00 513.00,853.00
             513.00,853.00 510.00,858.50 509.50,858.50
             509.00,858.50 499.00,859.00 499.00,859.00
             499.00,859.00 486.50,871.00 486.50,871.00
             486.50,871.00 490.50,878.00 490.50,878.00
             490.50,878.00 488.00,885.00 488.00,885.00
             488.00,885.00 492.00,896.00 492.00,896.00
             492.00,896.00 491.50,930.50 491.50,930.50
             491.50,930.50 634.00,927.50 634.00,927.50" />
  <path id="CentralWesternMed"
        fill="none" stroke="black" stroke-width="1"
        d="M 634.00,928.50
           C 634.00,928.50 637.50,975.00 637.50,975.00
             637.50,975.00 634.00,981.50 634.00,981.50
             634.00,981.50 634.00,988.50 634.50,988.50
             635.00,988.50 640.50,990.50 641.00,990.50
             641.50,990.50 646.50,1000.50 646.50,1000.50
             646.50,1000.50 644.00,1005.50 644.00,1005.50
             644.00,1005.50 644.00,1014.00 644.00,1014.00
             644.00,1014.00 646.00,1020.50 646.00,1020.50
             646.00,1020.50 642.50,1027.00 642.50,1027.00
             642.50,1027.00 646.00,1036.50 646.00,1036.50
             646.00,1036.50 639.50,1045.50 639.50,1045.50
             639.50,1045.50 487.00,1049.50 487.00,1049.50
             487.00,1049.50 490.00,930.00 490.00,930.00
             490.00,930.00 634.00,929.00 634.00,929.00" />
  <path id="BarcelonaHarbor"
        fill="none" stroke="black" stroke-width="1"
        d="M 391.50,960.50
           C 391.50,960.50 388.00,1054.50 388.00,1054.50
             388.00,1054.50 486.50,1051.00 486.50,1051.00
             486.50,1051.00 490.50,896.50 490.50,896.50
             490.50,896.50 485.00,900.00 485.00,900.00
             485.00,900.00 483.50,913.50 483.50,913.50
             483.50,913.50 475.00,916.50 475.00,916.50
             475.00,916.50 467.00,920.00 467.00,920.00
             467.00,920.00 454.50,928.50 454.50,928.50
             454.50,928.50 444.00,935.00 444.00,935.00
             444.00,935.00 433.50,934.50 433.50,934.50
             433.50,934.50 423.50,941.00 423.50,941.00
             423.50,941.00 406.50,941.50 406.50,941.00
             406.50,940.50 397.00,947.00 397.00,947.00
             397.00,947.00 403.00,955.50 403.00,955.50
             403.00,955.50 391.50,961.00 391.50,961.00" />
  <path id="AlgeriaEastCoast"
        fill="none" stroke="black" stroke-width="1"
        d="M 565.00,1049.00
           C 565.00,1049.00 640.00,1047.00 640.00,1047.00
             640.00,1047.00 645.00,1063.00 645.00,1063.00
             645.00,1063.00 648.50,1063.00 648.50,1063.00
             648.50,1063.00 656.50,1057.00 656.50,1057.00
             656.50,1057.00 662.50,1056.00 663.00,1056.00
             663.50,1056.00 664.00,1052.50 665.50,1052.00
             667.00,1051.50 678.50,1053.50 678.50,1053.50
             678.50,1053.50 681.50,1039.50 681.50,1039.50
             681.50,1039.50 686.00,1026.00 686.00,1026.00
             686.00,1026.00 684.00,1016.00 684.00,1016.00
             684.00,1016.00 692.00,1006.00 692.00,1006.00
             692.00,1006.00 686.50,997.00 686.50,997.00
             686.50,997.00 694.50,988.50 694.50,988.50
             694.50,988.50 695.00,979.50 694.50,979.50
             694.00,979.50 685.50,971.00 685.50,971.00
             685.50,971.00 687.00,965.50 687.00,965.50
             687.00,965.50 737.50,960.50 737.50,960.50
             737.50,960.50 729.00,1143.00 729.00,1143.00
             729.00,1143.00 720.50,1145.00 720.50,1145.00
             720.50,1145.00 707.50,1152.00 707.50,1152.00
             707.50,1152.00 699.50,1158.50 699.50,1158.50
             699.50,1158.50 693.00,1153.00 693.00,1152.50
             693.00,1152.00 697.00,1147.00 697.00,1147.00
             697.00,1147.00 694.00,1140.50 694.00,1140.50
             694.00,1140.50 693.50,1132.50 693.50,1132.50
             693.50,1132.50 680.50,1132.00 681.50,1132.50
             682.50,1133.00 673.00,1132.00 673.00,1132.00
             673.00,1132.00 642.00,1147.50 642.00,1147.50
             642.00,1147.50 619.00,1149.50 619.00,1149.50
             619.00,1149.50 602.50,1150.50 602.50,1150.50
             602.50,1150.50 590.50,1139.00 590.50,1139.00
             590.50,1139.00 585.00,1141.00 585.00,1141.00
             585.00,1141.00 579.50,1142.50 579.50,1142.50
             579.50,1142.50 569.50,1135.50 569.50,1135.50
             569.50,1135.50 561.00,1135.00 561.50,1135.00
             562.00,1135.00 565.00,1049.50 565.00,1049.50" />
  <path id="AlgeriaCentralCoast"
        fill="none" stroke="black" stroke-width="1"
        d="M 388.50,1054.00
           C 388.50,1054.00 565.00,1048.50 565.00,1048.50
             565.00,1048.50 562.00,1134.50 562.00,1134.50
             562.00,1134.50 552.50,1142.00 552.50,1142.00
             552.50,1142.00 544.50,1147.00 544.50,1147.00
             544.50,1147.00 529.50,1146.50 529.50,1146.50
             529.50,1146.50 523.00,1152.50 523.00,1152.50
             523.00,1152.50 517.50,1152.00 517.00,1152.00
             516.50,1152.00 503.00,1142.50 503.00,1142.50
             503.00,1142.50 495.50,1139.50 495.50,1139.50
             495.50,1139.50 482.50,1138.00 482.50,1138.00
             482.50,1138.00 471.50,1131.50 471.50,1131.50
             471.50,1131.50 464.50,1136.00 464.50,1136.00
             464.50,1136.00 455.00,1138.50 455.00,1138.50
             455.00,1138.50 448.00,1139.50 448.00,1139.50
             448.00,1139.50 439.50,1135.50 439.50,1135.50
             439.50,1135.50 431.00,1135.50 430.50,1135.50
             430.00,1135.50 427.00,1140.50 427.00,1140.50
             427.00,1140.50 415.00,1143.00 415.00,1143.00
             415.00,1143.00 384.50,1141.50 384.50,1141.50
             384.50,1141.50 388.00,1054.50 388.00,1054.50" />
  <path id="AlgeriaWestCoast"
        fill="none" stroke="black" stroke-width="1"
        d="M 384.50,1141.50
           C 384.50,1141.50 391.00,961.00 391.00,961.00
             391.00,961.00 382.00,974.50 382.00,974.50
             382.00,974.50 373.50,984.00 373.50,984.00
             373.50,984.00 353.50,995.00 353.50,995.00
             353.50,995.00 350.50,1011.50 350.50,1012.00
             350.50,1012.50 360.50,1031.50 360.50,1031.50
             360.50,1031.50 357.00,1038.50 357.00,1038.50
             357.00,1038.50 331.00,1048.50 331.00,1048.50
             331.00,1048.50 325.50,1058.50 325.50,1058.50
             325.50,1058.50 316.50,1069.50 316.50,1069.50
             316.50,1069.50 316.00,1080.50 316.00,1080.50
             316.00,1080.50 309.50,1083.50 309.50,1083.50
             309.50,1083.50 295.00,1082.50 295.00,1082.50
             295.00,1082.50 286.50,1084.00 286.50,1084.00
             286.50,1084.00 272.50,1092.50 272.50,1092.50
             272.50,1092.50 269.50,1101.50 269.50,1101.50
             269.50,1101.50 262.00,1108.50 262.00,1108.50
             262.00,1108.50 254.00,1110.50 254.00,1110.50
             254.00,1110.50 244.50,1107.50 244.50,1107.50
             244.50,1107.50 244.50,1183.00 244.50,1183.00
             244.50,1183.00 270.50,1179.00 270.50,1179.00
             270.50,1179.00 275.00,1168.50 275.00,1168.50
             275.00,1168.50 284.50,1166.50 284.50,1166.50
             284.50,1166.50 289.50,1164.00 290.00,1164.00
             290.50,1164.00 298.50,1165.50 298.50,1165.50
             298.50,1165.50 305.00,1166.00 305.00,1166.00
             305.00,1166.00 308.50,1161.50 308.50,1161.50
             308.50,1161.50 329.50,1162.50 329.50,1162.50
             329.50,1162.50 331.50,1154.00 331.50,1154.00
             331.50,1154.00 335.50,1149.00 335.50,1149.00
             335.50,1149.00 357.50,1144.50 357.50,1144.50
             357.50,1144.50 384.50,1141.50 384.50,1141.50" />
  <path id="GibralterHarbor"
        fill="none" stroke="black" stroke-width="1"
        d="M 79.25,1052.50
           C 79.25,1052.50 89.50,1051.00 89.50,1051.00
             89.50,1051.00 95.25,1054.50 95.25,1054.50
             95.25,1054.50 104.00,1064.25 104.00,1064.25
             104.00,1064.25 111.25,1084.50 111.25,1084.50
             111.25,1084.50 113.25,1100.75 113.25,1100.75
             113.25,1100.75 117.50,1109.75 118.25,1109.75
             119.00,1109.75 125.50,1111.75 126.00,1111.75
             126.50,1111.75 141.00,1107.50 141.00,1107.50
             141.00,1107.50 158.00,1105.75 158.00,1105.75
             158.00,1105.75 173.25,1101.25 173.25,1101.25
             173.25,1101.25 183.25,1096.50 183.25,1096.50
             183.25,1096.50 190.50,1099.25 190.50,1099.25
             190.50,1099.25 207.00,1098.50 207.00,1098.50
             207.00,1098.50 214.25,1105.25 214.25,1105.25
             214.25,1105.25 228.25,1104.75 228.25,1104.75
             228.25,1104.75 232.75,1112.25 232.75,1112.25
             232.75,1112.25 240.00,1110.50 240.00,1110.50
             240.00,1110.50 245.50,1106.25 245.50,1106.25
             245.50,1106.25 245.00,1184.00 245.00,1184.00
             245.00,1184.00 237.50,1184.50 237.50,1184.50
             237.50,1184.50 227.00,1181.75 227.00,1181.75
             227.00,1181.75 218.00,1177.00 218.00,1177.00
             218.00,1177.00 212.75,1172.50 212.75,1172.50
             212.75,1172.50 212.75,1166.75 212.75,1166.75
             212.75,1166.75 204.25,1165.75 204.25,1165.75
             204.25,1165.75 202.00,1168.50 202.00,1168.50
             202.00,1168.50 192.50,1168.25 192.25,1168.25
             192.00,1168.25 186.25,1164.50 186.25,1164.50
             186.25,1164.50 171.75,1164.50 171.75,1164.50
             171.75,1164.50 158.00,1161.50 159.50,1161.75
             161.00,1162.00 144.25,1161.00 144.25,1161.00
             144.25,1161.00 138.50,1155.00 138.50,1155.00
             138.50,1155.00 135.75,1141.25 135.75,1141.25
             135.75,1141.25 133.50,1129.25 133.50,1129.25
             133.50,1129.25 132.00,1124.25 132.00,1124.25
             132.00,1124.25 122.25,1121.50 122.25,1121.50
             122.25,1121.50 111.50,1125.75 111.50,1125.75
             111.50,1125.75 105.25,1129.75 105.25,1129.75
             105.25,1129.75 101.00,1141.75 101.00,1141.75
             101.00,1141.75 96.75,1150.25 96.75,1150.25
             96.75,1150.25 87.25,1160.00 87.25,1160.00
             87.25,1160.00 78.25,1169.50 78.25,1169.50
             78.25,1169.50 79.25,1052.50 79.50,1052.50" />
  <path id="Munich"
        fill="none" stroke="black" stroke-width="1"
        d="M 654.00,690.50
           C 654.00,690.50 653.50,669.00 653.50,669.00
             653.50,669.00 662.00,655.50 662.00,655.50
             662.00,655.50 671.00,647.50 671.00,647.00
             671.00,646.50 673.50,639.50 673.50,639.50
             673.50,639.50 683.00,639.00 683.00,639.00
             683.00,639.00 704.00,649.00 704.00,649.00
             704.00,649.00 719.00,649.50 719.00,649.50
             719.00,649.50 733.50,650.50 734.00,650.50
             734.50,650.50 754.00,643.50 754.00,643.50
             754.00,643.50 771.50,635.00 771.50,635.00
             771.50,635.00 782.00,634.50 782.00,634.50
             782.00,634.50 804.50,624.50 804.50,624.50
             804.50,624.50 832.00,649.50 832.00,649.50
             832.00,649.50 829.00,658.50 829.00,658.50
             829.00,658.50 821.00,659.00 821.00,659.00
             821.00,659.00 816.50,667.00 816.50,667.00
             816.50,667.00 805.50,672.00 805.50,672.00
             805.50,672.00 810.00,686.00 810.00,686.00
             810.00,686.00 811.00,704.00 811.00,704.00
             811.00,704.00 804.00,710.00 804.00,710.00
             804.00,710.00 806.00,718.50 805.50,718.50
             805.00,718.50 795.00,732.00 795.00,732.00
             795.00,732.00 783.00,723.50 783.00,723.50
             783.00,723.50 785.00,717.50 785.00,717.50
             785.00,717.50 780.00,713.50 780.00,713.50
             780.00,713.50 767.50,718.00 767.50,718.00
             767.50,718.00 752.50,718.00 752.50,718.00
             752.50,718.00 749.50,723.50 749.50,723.50
             749.50,723.50 737.00,724.50 737.00,724.50
             737.00,724.50 736.50,718.00 736.50,718.00
             736.50,718.00 729.50,717.50 729.50,717.50
             729.50,717.50 721.50,714.00 721.50,714.00
             721.50,714.00 708.50,715.50 708.50,715.50
             708.50,715.50 709.00,700.50 709.00,700.50
             709.00,700.50 695.00,690.50 695.00,690.50
             695.00,690.50 673.50,692.50 673.50,692.50
             673.50,692.50 654.00,691.00 654.00,690.50" />
  <path id="Berlin"
        fill="none" stroke="black" stroke-width="1"
        d="M 852.00,520.50
           C 852.00,520.50 845.50,527.00 845.50,527.00
             845.50,527.00 843.50,537.50 843.50,537.50
             843.50,537.50 828.00,535.00 828.00,535.00
             828.00,535.00 814.00,536.50 814.00,536.50
             814.00,536.50 803.50,533.00 803.50,533.00
             803.50,533.00 765.50,532.50 765.50,532.50
             765.50,532.50 756.00,535.00 756.00,535.50
             756.00,536.00 756.00,516.50 756.00,516.50
             756.00,516.50 753.00,502.50 753.00,502.50
             753.00,502.50 759.00,492.00 759.00,492.00
             759.00,492.00 760.00,484.50 760.00,484.50
             760.00,484.50 767.50,462.00 767.50,462.00
             767.50,462.00 764.50,441.00 764.50,441.00
             764.50,441.00 783.00,431.50 783.00,431.50
             783.00,431.50 798.00,428.00 798.00,428.00
             798.00,428.00 800.50,422.00 800.50,422.00
             800.50,422.00 811.50,426.00 811.50,426.00
             811.50,426.00 816.00,425.50 816.00,425.50
             816.00,425.50 817.00,414.00 817.00,414.00
             817.00,414.00 831.50,415.50 831.50,415.50
             831.50,415.50 825.00,433.50 825.00,433.50
             825.00,433.50 828.00,438.00 828.00,438.00
             828.00,438.00 840.00,440.00 840.00,440.00
             840.00,440.00 838.00,450.50 838.00,450.50
             838.00,450.50 840.00,459.00 840.00,459.00
             840.00,459.00 835.00,469.50 835.00,469.50
             835.00,469.50 839.50,480.50 839.50,480.50
             839.50,480.50 841.50,492.50 841.00,492.50
             840.50,492.50 846.50,497.50 846.50,497.50
             846.50,497.50 845.50,510.50 845.50,510.50
             845.50,510.50 852.00,521.00 852.00,521.00" />
  <path id="Frankfurt"
        fill="none" stroke="black" stroke-width="1"
        d="M 719.50,649.00
           C 719.50,649.00 730.00,634.50 730.00,634.50
             730.00,634.50 729.00,616.00 729.00,616.00
             729.00,616.00 733.00,607.50 733.00,607.50
             733.00,607.50 730.50,594.50 730.50,594.50
             730.50,594.50 737.50,579.00 737.50,579.00
             737.50,579.00 745.50,549.50 745.50,549.50
             745.50,549.50 733.00,549.50 733.00,549.50
             733.00,549.50 725.00,551.50 725.00,551.50
             725.00,551.50 699.00,551.00 699.00,551.00
             699.00,551.00 690.50,553.00 690.50,553.00
             690.50,553.00 676.00,552.00 676.00,552.00
             676.00,552.00 628.00,568.50 628.00,568.50
             628.00,568.50 629.50,575.00 629.50,575.00
             629.50,575.00 625.00,588.00 625.00,588.00
             625.00,588.00 630.50,597.50 630.50,597.50
             630.50,597.50 629.50,613.50 629.50,613.50
             629.50,613.50 639.50,626.00 639.50,626.00
             639.50,626.00 667.50,630.50 667.50,630.50
             667.50,630.50 675.00,638.50 675.00,638.50
             675.00,638.50 683.50,638.50 683.50,638.50
             683.50,638.50 696.50,645.00 696.50,645.00
             696.50,645.00 705.50,649.50 705.50,649.50
             705.50,649.50 719.50,649.00 719.50,649.00" />
  <path id="TrondheimHarbor"
        fill="none" stroke="black" stroke-width="1"
        d="M 665.25,177.75
           C 665.25,177.75 589.00,179.00 589.00,179.00
             589.00,179.00 591.75,1.00 591.75,1.00
             591.75,1.00 804.00,1.00 804.00,1.00
             804.00,1.00 783.00,53.00 783.00,53.00
             783.00,53.00 743.00,88.00 743.00,88.00
             743.00,88.00 718.00,102.00 718.00,102.00
             718.00,102.00 701.00,113.00 700.00,113.00
             699.00,113.00 674.00,126.00 674.00,126.00
             674.00,126.00 671.00,154.00 671.00,154.00
             671.00,154.00 665.25,177.50 665.25,177.50" />
  <path id="EnglishEasternCoast"
        fill="none" stroke="black" stroke-width="1"
        d="M 586.00,467.00
           C 586.00,467.00 587.00,306.00 587.00,306.00
             587.00,306.00 474.00,306.00 474.00,306.00
             474.00,306.00 466.00,314.00 466.00,314.00
             466.00,314.00 455.00,319.00 455.00,319.00
             455.00,319.00 473.00,327.00 473.00,327.00
             473.00,327.00 480.00,346.00 480.00,346.00
             480.00,346.00 483.00,367.00 483.00,367.00
             483.00,367.00 493.00,391.00 493.00,391.00
             493.00,391.00 506.00,410.00 506.00,410.00
             506.00,410.00 505.75,439.00 505.75,439.00
             505.75,439.00 509.50,447.25 509.50,447.25
             509.50,447.25 505.75,455.75 505.75,455.75
             505.75,455.75 528.75,452.75 528.75,452.75
             528.75,452.75 537.50,470.50 537.50,470.50
             537.50,470.50 585.75,470.00 585.75,470.00" />
  <path id="Brest"
        fill="none" stroke="black" stroke-width="1"
        d="M 322.25,599.00
           C 322.25,599.00 316.50,602.25 316.50,602.25
             316.50,602.25 321.75,608.75 321.75,608.75
             321.75,608.75 327.00,611.25 327.00,611.25
             327.00,611.25 326.50,616.75 326.50,616.75
             326.50,616.75 318.00,616.75 318.00,616.75
             318.00,616.75 317.25,620.50 317.25,620.50
             317.25,620.50 322.75,624.25 322.75,624.25
             322.75,624.25 324.00,635.75 324.00,635.75
             324.00,635.75 330.00,631.50 330.00,631.50
             330.00,631.50 335.00,638.25 334.75,638.25
             334.50,638.25 345.25,643.25 345.25,643.25
             345.25,643.25 354.00,643.00 354.00,643.00
             354.00,643.00 358.75,649.50 358.25,649.25
             357.75,649.00 372.00,650.00 372.00,650.00
             372.00,650.00 371.25,656.50 371.25,656.50
             371.25,656.50 366.50,659.00 366.50,659.00
             366.50,659.00 369.75,666.25 370.00,666.25
             370.25,666.25 379.00,666.00 379.00,666.00
             379.00,666.00 392.75,655.75 392.75,655.75
             392.75,655.75 405.75,644.75 405.75,644.75
             405.75,644.75 424.25,638.50 424.25,638.50
             424.25,638.50 434.50,634.75 434.50,634.75
             434.50,634.75 450.00,628.00 450.00,628.00
             450.00,628.00 470.75,605.75 470.75,605.75
             470.75,605.75 474.25,578.50 474.25,578.50
             474.25,578.50 462.25,585.00 462.25,585.00
             462.25,585.00 462.25,593.00 462.25,593.00
             462.25,593.00 443.75,591.25 443.75,591.25
             443.75,591.25 426.75,585.75 426.75,585.75
             426.75,585.75 428.00,574.00 428.00,574.00
             428.00,574.00 409.25,568.00 409.25,568.00
             409.25,568.00 416.25,591.75 416.25,591.75
             416.25,591.75 411.25,598.75 411.25,598.75
             411.25,598.75 413.25,612.75 413.50,612.75
             413.75,612.75 376.50,608.00 376.50,608.00
             376.50,608.00 365.25,594.25 365.25,594.25
             365.25,594.25 347.50,596.75 347.50,596.75
             347.50,596.75 325.50,596.75 325.50,596.75
             325.50,596.75 322.25,598.75 322.25,598.75" />
  <path id="Calais"
        fill="none" stroke="black" stroke-width="1"
        d="M 554.00,623.25
           C 554.25,623.75 544.50,623.25 544.50,623.25
             544.50,623.25 531.25,615.75 531.25,615.75
             531.25,615.75 516.50,604.50 516.50,604.50
             516.50,604.50 507.00,598.50 507.00,598.50
             507.00,598.50 498.00,592.75 498.00,592.75
             498.00,592.75 474.25,578.00 474.25,578.00
             474.25,578.00 501.25,570.25 501.25,570.25
             501.25,570.25 514.50,537.00 514.50,537.00
             514.50,537.00 531.25,537.00 531.25,537.00
             531.25,537.00 539.00,534.25 539.00,534.25
             539.00,534.25 541.50,549.75 541.50,549.50
             541.50,549.25 551.00,550.75 551.50,550.75
             552.00,550.75 554.25,561.00 554.50,561.00
             554.75,561.00 561.25,562.00 561.50,562.00
             561.75,562.00 565.00,567.25 565.00,567.25
             565.00,567.25 572.00,569.75 572.00,569.75
             572.00,569.75 574.50,583.50 574.50,583.50
             574.50,583.50 590.00,584.25 590.00,584.25
             590.00,584.25 594.50,594.00 594.50,594.00
             594.50,594.00 582.00,597.00 582.00,597.00
             582.00,597.00 573.75,601.50 573.75,601.50
             573.75,601.50 565.25,605.50 565.25,605.50
             565.25,605.50 560.25,612.50 560.25,612.50
             560.25,612.50 554.00,623.25 554.00,623.25" />
  <path id="EasternEnglishChannel"
        fill="none" stroke="black" stroke-width="1"
        d="M 474.00,578.25
           C 474.00,578.25 501.00,570.00 501.00,570.00
             501.00,570.00 513.00,539.00 513.00,538.00
             513.00,537.00 531.00,537.00 531.00,537.00
             531.00,537.00 548.00,531.00 549.00,531.00
             550.00,531.00 557.00,528.00 558.00,526.00
             559.00,524.00 577.00,526.00 577.00,526.00
             577.00,526.00 587.00,517.00 587.00,517.00
             587.00,517.00 588.00,504.00 587.00,503.00
             586.00,502.00 602.00,488.00 602.00,488.00
             602.00,488.00 604.00,470.00 604.00,470.00
             604.00,470.00 537.00,471.00 537.00,471.00
             537.00,471.00 526.00,492.00 526.00,492.00
             526.00,492.00 499.00,513.00 499.00,513.00
             499.00,513.00 519.50,520.25 519.50,520.25
             519.50,520.25 488.00,538.00 488.00,538.00
             488.00,538.00 473.00,536.00 473.00,536.00
             473.00,536.00 474.00,578.00 474.00,578.00" />
  <path id="WesternEnglishChannel"
        fill="none" stroke="black" stroke-width="1"
        d="M 330.00,538.00
           C 330.00,538.00 326.00,597.00 326.00,597.00
             326.00,597.00 346.00,597.00 346.00,597.00
             346.00,597.00 365.00,594.00 365.00,594.00
             365.00,594.00 377.00,608.00 377.00,608.00
             377.00,608.00 413.00,612.00 413.00,612.00
             413.00,612.00 411.00,599.00 411.00,599.00
             411.00,599.00 416.00,592.00 416.00,592.00
             416.00,592.00 411.00,578.00 411.00,578.00
             411.00,578.00 409.00,568.00 409.00,568.00
             409.00,568.00 429.00,574.00 429.00,574.00
             429.00,574.00 427.00,586.00 427.00,586.00
             427.00,586.00 443.00,591.00 443.00,591.00
             443.00,591.00 460.00,593.00 462.00,593.00
             464.00,593.00 462.00,585.00 462.00,585.00
             462.00,585.00 474.00,579.00 474.00,579.00
             474.00,579.00 474.00,535.00 474.00,535.00
             474.00,535.00 433.00,528.00 433.00,528.00
             433.00,528.00 415.00,534.00 415.00,534.00
             415.00,534.00 400.00,526.00 400.00,526.00
             400.00,526.00 382.00,526.00 382.00,526.00
             382.00,526.00 377.50,534.25 377.50,534.25
             377.50,534.25 360.50,530.75 360.50,530.75
             360.50,530.75 340.75,533.00 340.75,533.00
             340.75,533.00 336.00,537.00 336.00,537.00
             336.00,537.00 329.75,538.00 329.75,538.00" />
  <path id="London"
        fill="none" stroke="black" stroke-width="1"
        d="M 433.00,527.00
           C 433.00,527.00 487.00,539.00 487.00,539.00
             487.00,539.00 519.00,520.00 519.00,520.00
             519.00,520.00 499.00,514.00 499.00,514.00
             499.00,514.00 525.00,491.00 525.00,491.00
             525.00,491.00 537.00,472.00 537.00,471.00
             537.00,470.00 529.00,452.00 529.00,452.00
             529.00,452.00 517.00,454.00 517.00,454.00
             517.00,454.00 506.00,456.00 505.00,456.00
             504.00,456.00 495.00,454.00 495.00,454.00
             495.00,454.00 442.00,473.00 442.00,473.00
             442.00,473.00 433.00,527.00 433.00,527.00" />
  <path id="Bristol"
        fill="none" stroke="black" stroke-width="1"
        d="M 433.00,527.00
           C 433.00,527.00 415.00,533.00 415.00,533.00
             415.00,533.00 401.00,525.00 401.00,525.00
             401.00,525.00 382.00,526.00 382.00,526.00
             382.00,526.00 378.00,534.00 377.00,534.00
             376.00,534.00 360.00,531.00 360.00,531.00
             360.00,531.00 341.00,533.00 341.00,533.00
             341.00,533.00 336.00,537.00 335.00,537.00
             334.00,537.00 319.00,534.00 319.00,534.00
             319.00,534.00 334.00,524.00 334.00,524.00
             334.00,524.00 349.00,518.00 349.00,518.00
             349.00,518.00 363.00,503.00 363.00,503.00
             363.00,503.00 376.00,498.00 376.00,498.00
             376.00,498.00 391.00,502.00 391.00,502.00
             391.00,502.00 401.00,503.00 402.00,503.00
             403.00,503.00 423.00,491.00 423.00,491.00
             423.00,491.00 416.00,482.00 416.00,482.00
             416.00,482.00 403.00,492.00 402.00,492.00
             401.00,492.00 387.00,490.00 387.00,489.00
             387.00,488.00 373.00,488.00 373.00,488.00
             373.00,488.00 363.00,478.00 363.00,478.00
             363.00,478.00 359.00,465.00 359.00,465.00
             359.00,465.00 390.00,453.00 390.00,453.00
             390.00,453.00 391.00,446.00 391.00,446.00
             391.00,446.00 443.00,473.00 443.00,473.00
             443.00,473.00 434.00,527.00 434.00,527.00" />
  <path id="Koln"
        fill="none" stroke="black" stroke-width="1"
        d="M 755.75,535.50
           C 755.75,535.50 746.00,549.50 746.00,549.50
             746.00,549.50 733.75,549.00 733.75,549.00
             733.75,549.00 725.50,551.25 725.50,551.00
             725.50,550.75 699.50,551.25 699.50,551.25
             699.50,551.25 690.50,553.25 690.50,553.25
             690.50,553.25 675.75,552.50 675.75,552.50
             675.75,552.50 628.50,568.50 628.50,568.50
             628.50,568.50 625.75,561.75 625.75,561.75
             625.75,561.75 626.25,542.50 626.25,542.50
             626.25,542.50 632.25,535.50 632.25,535.50
             632.25,535.50 635.50,528.25 635.50,528.25
             635.50,528.25 633.75,517.50 633.75,517.50
             633.75,517.50 636.50,515.00 636.50,515.00
             636.50,515.00 643.75,517.75 643.75,517.75
             643.75,517.75 649.25,516.50 649.25,516.50
             649.25,516.50 660.75,501.75 660.75,501.75
             660.75,501.75 658.25,495.50 658.25,495.50
             658.25,495.50 662.25,488.75 662.25,488.75
             662.25,488.75 681.25,491.00 681.25,491.00
             681.25,491.00 685.25,488.75 685.25,488.75
             685.25,488.75 720.25,488.25 720.25,488.25
             720.25,488.25 728.50,485.00 728.50,485.00
             728.50,485.00 760.00,484.50 760.00,484.50
             760.00,484.50 759.50,492.50 759.50,492.50
             759.50,492.50 754.25,502.50 754.25,502.50
             754.25,502.50 755.50,514.75 755.50,514.75
             755.50,514.75 755.75,535.75 755.75,535.50" />
  <path id="Manchester"
        fill="none" stroke="black" stroke-width="1"
        d="M 394.00,447.00
           C 394.00,447.00 443.00,472.00 443.00,472.00
             443.00,472.00 494.75,454.25 494.75,454.25
             494.75,454.25 506.50,455.50 506.50,455.50
             506.50,455.50 510.00,447.00 510.00,447.00
             510.00,447.00 506.00,439.00 506.00,439.00
             506.00,439.00 505.00,431.00 505.00,431.00
             505.00,431.00 506.00,410.00 506.00,410.00
             506.00,410.00 493.00,391.00 493.00,391.00
             493.00,391.00 434.00,402.00 434.00,402.00
             434.00,402.00 429.00,419.00 429.00,419.00
             429.00,419.00 404.00,419.00 404.00,419.00
             404.00,419.00 396.00,413.00 396.00,413.00
             396.00,413.00 389.00,419.00 389.00,419.00
             389.00,419.00 392.00,447.00 392.00,447.00" />
  <path id="Rome"
        fill="none" stroke="black" stroke-width="1"
        d="M 864.50,923.50
           C 864.50,923.50 859.00,909.00 859.00,909.00
             859.00,909.00 838.50,901.50 838.50,901.50
             838.50,901.50 831.00,886.50 831.00,886.50
             831.00,886.50 826.50,870.50 826.50,870.50
             826.50,870.50 802.00,878.50 802.00,878.50
             802.00,878.50 789.50,882.00 789.50,882.00
             789.50,882.00 773.50,884.50 773.50,884.50
             773.50,884.50 763.00,888.50 763.00,888.50
             763.00,888.50 741.50,898.00 741.50,898.00
             741.50,898.00 747.50,908.50 747.50,908.50
             747.50,908.50 758.50,910.00 758.50,910.00
             758.50,910.00 769.50,921.50 769.50,921.50
             769.50,921.50 766.50,930.00 766.50,930.00
             766.50,930.00 772.00,934.50 772.00,934.50
             772.00,934.50 777.00,935.50 777.00,935.50
             777.00,935.50 781.00,939.00 781.00,939.00
             781.00,939.00 780.50,943.50 780.50,943.50
             780.50,943.50 797.50,953.00 797.50,953.50
             797.50,954.00 864.50,923.50 864.50,923.50" />
  <path id="Florence"
        fill="none" stroke="black" stroke-width="1"
        d="M 827.00,871.50
           C 827.00,871.50 825.00,867.50 825.00,867.50
             825.00,867.50 814.00,859.50 814.00,859.50
             814.00,859.50 806.50,849.00 806.50,849.00
             806.50,849.00 796.00,839.50 796.00,839.50
             796.00,839.50 798.50,825.50 798.50,825.50
             798.50,825.50 786.00,820.50 786.00,820.50
             786.00,820.50 781.00,812.00 781.00,812.00
             781.00,812.00 760.50,812.00 760.50,812.00
             760.50,812.00 738.00,817.00 738.00,817.00
             738.00,817.00 698.00,833.00 698.00,833.00
             698.00,833.00 709.50,842.00 709.50,842.00
             709.50,842.00 717.00,846.50 717.00,846.50
             717.00,846.50 725.50,866.00 725.50,866.00
             725.50,866.00 723.50,871.50 723.50,871.50
             723.50,871.50 727.50,884.00 727.50,884.00
             727.50,884.00 738.50,889.00 738.50,889.00
             738.50,889.00 741.50,898.00 741.50,898.00
             741.50,898.00 772.00,886.00 772.00,886.00
             772.00,886.00 784.50,883.00 784.50,883.00
             784.50,883.00 792.00,881.50 792.00,881.50
             792.00,881.50 804.00,879.00 804.00,879.00
             804.00,879.00 827.50,872.00 827.50,872.00" />
  <path id="SicilyNorthCoast"
        fill="none" stroke="black" stroke-width="1"
        d="M 781.00,1102.00
           C 781.00,1102.00 730.50,1101.00 730.50,1101.00
             730.50,1101.00 737.50,960.00 737.50,960.00
             737.50,960.00 796.00,953.00 796.00,953.00
             796.00,953.00 803.50,961.00 803.50,961.00
             803.50,961.00 809.50,958.00 809.50,958.00
             809.50,958.00 825.00,962.00 825.00,962.00
             825.00,962.00 833.50,974.00 833.50,974.00
             833.50,974.00 839.50,979.50 839.50,979.50
             839.50,979.50 848.00,979.50 848.00,979.50
             848.00,979.50 848.50,986.50 848.50,986.50
             848.50,986.50 860.00,986.00 860.00,986.00
             860.00,986.00 867.50,993.00 867.50,993.00
             867.50,993.00 868.00,1004.00 868.00,1004.00
             868.00,1004.00 876.00,1011.50 876.00,1011.50
             876.00,1011.50 895.00,1016.00 895.00,1016.00
             895.00,1016.00 899.50,1029.50 899.50,1029.50
             899.50,1029.50 898.00,1039.00 898.00,1039.00
             898.00,1039.00 906.00,1047.50 906.00,1047.50
             906.00,1047.50 910.00,1060.50 910.00,1060.50
             910.00,1060.50 910.50,1068.50 910.50,1068.50
             910.50,1068.50 904.00,1072.50 904.00,1072.50
             904.00,1072.50 904.50,1081.00 904.50,1081.00
             904.50,1081.00 904.50,1087.50 904.50,1087.50
             904.50,1087.50 893.50,1096.00 893.50,1096.00
             893.50,1096.00 897.00,1104.00 897.00,1104.00
             897.00,1104.00 885.50,1103.50 885.50,1103.50
             885.50,1103.50 888.00,1091.50 888.00,1091.50
             888.00,1091.50 883.50,1093.50 883.50,1093.50
             883.50,1093.50 876.50,1098.00 876.50,1098.00
             876.50,1098.00 857.50,1097.50 857.50,1097.50
             857.50,1097.50 851.50,1103.50 851.50,1103.50
             851.50,1103.50 841.50,1102.50 841.50,1102.50
             841.50,1102.50 833.00,1106.00 833.00,1106.00
             833.00,1106.00 827.50,1102.50 827.50,1102.50
             827.50,1102.50 819.00,1101.50 819.00,1101.50
             819.00,1101.50 812.50,1098.00 812.50,1098.00
             812.50,1098.00 804.00,1096.50 804.00,1096.50
             804.00,1096.50 799.00,1097.00 799.00,1097.00
             799.00,1097.00 799.00,1101.50 799.00,1101.50
             799.00,1101.50 797.50,1105.50 797.50,1105.50
             797.50,1105.50 792.00,1101.50 792.00,1101.50
             792.00,1101.50 788.00,1099.00 788.00,1098.50
             788.00,1098.00 780.50,1097.50 780.50,1097.50
             780.50,1097.50 781.00,1102.50 781.00,1102.50" />
  <path id="NorthAdriatic"
        fill="none" stroke="black" stroke-width="1"
        d="M 830.50,775.00
           C 830.50,775.00 828.00,770.00 828.00,770.00
             828.00,770.00 824.00,770.00 823.00,770.00
             822.00,770.00 814.00,767.50 814.00,767.50
             814.00,767.50 805.00,778.50 805.00,778.50
             805.00,778.50 794.00,778.50 794.00,778.50
             794.00,778.50 787.50,785.00 787.50,785.00
             787.50,785.00 794.50,795.50 794.50,795.50
             794.50,795.50 791.50,798.50 791.50,798.50
             791.50,798.50 792.50,811.00 792.50,811.00
             792.50,811.00 787.50,809.00 787.50,809.00
             787.50,809.00 781.50,811.50 781.50,811.50
             781.50,811.50 786.50,819.50 786.50,819.50
             786.50,819.50 799.00,825.00 799.00,825.00
             799.00,825.00 796.00,837.50 796.00,837.50
             796.00,837.50 806.50,847.50 806.50,847.50
             806.50,847.50 815.00,859.00 815.00,859.00
             815.00,859.00 826.50,869.00 826.50,869.00
             826.50,869.00 832.00,887.50 832.00,887.50
             832.00,887.50 838.50,901.00 838.50,901.00
             838.50,901.00 858.50,909.00 858.50,909.00
             858.50,909.00 864.50,922.50 864.50,922.50
             864.50,922.50 946.00,879.00 946.00,879.00
             946.00,879.00 941.00,873.50 941.00,873.50
             941.00,873.50 933.00,870.50 933.00,870.50
             933.00,870.50 927.50,870.00 927.50,870.00
             927.50,870.00 918.50,862.50 918.50,862.50
             918.50,862.50 908.00,865.00 908.00,865.00
             908.00,865.00 900.00,860.00 900.00,860.00
             900.00,860.00 874.00,843.00 874.00,843.00
             874.00,843.00 873.50,834.50 873.50,834.50
             873.50,834.50 863.50,820.00 863.50,820.00
             863.50,820.00 866.00,809.00 866.00,809.00
             866.00,809.00 865.50,804.50 865.50,804.50
             865.50,804.50 859.50,793.00 859.50,793.00
             859.50,793.00 848.00,784.00 848.00,784.00
             848.00,784.00 842.00,786.00 842.00,786.00
             842.00,786.00 840.00,800.00 840.00,800.00
             840.00,800.00 837.00,807.50 837.00,807.50
             837.00,807.50 833.00,809.00 833.00,809.00
             833.00,809.00 831.50,803.00 831.50,802.50
             831.50,802.00 829.50,794.00 829.50,794.00
             829.50,794.00 831.50,786.00 831.50,786.00
             831.50,786.00 826.50,782.00 826.50,782.00
             826.50,782.00 830.00,774.50 830.50,774.50" />
  <path id="CentralBaltic"
        fill="none" stroke="black" stroke-width="1"
        d="M 995.00,347.75
           C 995.00,347.75 994.75,335.25 994.75,335.25
             994.75,335.25 1002.50,327.25 1002.50,327.25
             1002.50,327.25 1002.75,323.50 1002.75,323.50
             1002.75,323.50 1000.00,320.25 1000.00,320.25
             1000.00,320.25 1000.00,316.00 1000.00,316.00
             1000.00,316.00 1005.00,312.25 1005.00,312.25
             1005.00,312.25 1004.00,195.75 1004.00,195.75
             1004.00,195.75 997.50,195.50 997.50,195.50
             997.50,195.50 997.00,187.50 997.00,187.50
             997.00,187.50 993.25,185.75 993.25,185.75
             993.25,185.75 938.50,214.75 938.50,214.75
             938.50,214.75 940.75,222.50 940.75,222.50
             940.75,222.50 937.00,226.25 937.00,226.25
             937.00,226.25 940.00,231.50 940.00,231.50
             940.00,231.50 939.25,238.00 939.25,238.00
             939.25,238.00 931.50,239.75 931.50,239.75
             931.50,239.75 931.50,246.75 931.50,246.75
             931.50,246.75 924.25,257.50 924.25,257.50
             924.25,257.50 916.50,253.75 916.50,253.75
             916.50,253.75 911.25,256.75 911.25,256.75
             911.25,256.75 911.50,261.75 911.50,261.75
             911.50,261.75 905.00,264.00 905.00,264.00
             905.00,264.00 900.75,265.00 900.50,265.00
             900.25,265.00 902.00,271.50 902.00,271.50
             902.00,271.50 903.00,280.00 903.00,280.00
             903.00,280.00 903.50,290.75 903.50,290.75
             903.50,290.75 897.50,293.75 897.50,293.75
             897.50,293.75 900.25,304.75 900.25,304.75
             900.25,304.75 995.25,349.50 995.25,349.50" />
  <path id="Lithuania"
        fill="none" stroke="black" stroke-width="1"
        d="M 1045.00,414.75
           C 1045.00,414.75 1056.50,416.75 1056.50,416.75
             1056.50,416.75 1064.75,427.25 1064.75,427.25
             1064.75,427.25 1071.50,427.75 1071.50,427.75
             1071.50,427.75 1081.25,420.25 1081.50,420.25
             1081.75,420.25 1081.50,395.75 1081.50,395.75
             1081.50,395.75 1091.00,386.75 1091.00,386.75
             1091.00,386.75 1092.25,380.75 1092.25,380.75
             1092.25,380.75 1110.25,365.00 1110.25,365.00
             1110.25,365.00 1113.00,358.00 1112.75,358.00
             1112.50,358.00 1119.75,352.00 1119.75,352.00
             1119.75,352.00 1107.50,341.25 1107.50,341.25
             1107.50,341.25 1091.50,338.00 1091.50,338.00
             1091.50,338.00 1081.25,331.00 1081.25,331.00
             1081.25,331.00 1071.25,337.50 1071.25,337.50
             1071.25,337.50 1051.75,335.75 1051.75,335.75
             1051.75,335.75 1039.00,337.50 1039.00,337.50
             1039.00,337.50 1031.75,340.50 1031.75,340.50
             1031.75,340.50 1023.50,337.75 1023.50,337.75
             1023.50,337.75 1000.50,352.00 1000.50,352.00
             1000.50,352.00 1006.25,365.75 1006.25,365.75
             1006.25,365.75 1019.00,372.00 1019.00,372.00
             1019.00,372.00 1025.50,383.25 1025.50,383.25
             1025.50,383.25 1038.75,391.75 1038.75,391.75
             1038.75,391.75 1044.75,399.00 1044.75,399.00
             1044.75,399.00 1044.75,415.00 1044.75,415.00" />
  <path id="BristolHarbor"
        fill="none" stroke="black" stroke-width="1"
        d="M 203.00,564.00
           C 203.00,564.00 330.00,560.00 329.00,560.00
             328.00,560.00 331.00,540.00 331.00,540.00
             331.00,540.00 317.00,534.00 317.00,534.00
             317.00,534.00 327.00,528.00 327.00,528.00
             327.00,528.00 345.00,522.00 345.00,522.00
             345.00,522.00 351.00,516.00 353.00,516.00
             355.00,516.00 363.00,504.00 363.00,504.00
             363.00,504.00 375.00,499.00 375.00,499.00
             375.00,499.00 389.00,502.00 388.00,503.00
             387.00,504.00 401.00,505.00 401.00,505.00
             401.00,505.00 424.00,490.00 424.00,490.00
             424.00,490.00 418.00,483.00 418.00,483.00
             418.00,483.00 403.00,493.00 403.00,493.00
             403.00,493.00 387.00,487.00 387.00,487.00
             387.00,487.00 374.00,488.00 374.00,487.00
             374.00,486.00 362.00,478.00 362.00,478.00
             362.00,478.00 361.00,463.00 361.00,463.00
             361.00,463.00 393.00,453.00 393.00,453.00
             393.00,453.00 391.00,444.00 391.00,444.00
             391.00,444.00 344.00,423.00 344.00,423.00
             344.00,423.00 334.00,445.00 334.00,445.00
             334.00,445.00 315.00,443.00 315.00,443.00
             315.00,443.00 282.00,453.00 282.00,453.00
             282.00,453.00 251.00,456.00 251.00,456.00
             251.00,456.00 238.00,450.00 238.00,450.00
             238.00,450.00 247.00,441.00 247.00,441.00
             247.00,441.00 234.00,439.00 234.00,439.00
             234.00,439.00 229.00,429.00 229.00,429.00
             229.00,429.00 233.00,419.00 233.00,419.00
             233.00,419.00 241.00,415.00 241.00,415.00
             241.00,415.00 252.00,407.00 252.00,406.00
             252.00,405.00 268.00,398.00 268.00,398.00
             268.00,398.00 282.00,395.00 282.00,395.00
             282.00,395.00 278.00,385.00 278.00,385.00
             278.00,385.00 267.00,384.00 267.00,384.00
             267.00,384.00 261.00,374.00 261.00,374.00
             261.00,374.00 206.00,375.00 206.00,375.00
             206.00,375.00 203.00,564.00 202.00,564.00" />
  <path id="Netherlands"
        fill="none" stroke="black" stroke-width="1"
        d="M 586.50,521.50
           C 586.50,521.50 609.00,528.25 609.00,528.25
             609.00,528.25 612.75,536.50 612.75,536.50
             612.75,536.50 621.25,538.50 621.25,538.50
             621.25,538.50 626.25,542.50 626.25,542.50
             626.25,542.50 632.25,535.50 632.25,535.50
             632.25,535.50 635.25,527.75 635.25,527.75
             635.25,527.75 633.75,517.75 633.75,517.75
             633.75,517.75 636.75,514.50 636.75,514.50
             636.75,514.50 643.50,517.25 643.50,517.50
             643.50,517.75 649.50,516.25 649.50,516.25
             649.50,516.25 660.75,501.00 660.75,501.00
             660.75,501.00 658.25,495.25 658.25,495.25
             658.25,495.25 662.50,488.25 662.50,488.25
             662.50,488.25 669.50,474.25 669.50,474.25
             669.50,474.25 670.25,466.75 670.25,466.75
             670.25,466.75 671.50,458.75 671.50,458.75
             671.50,458.75 666.25,454.25 666.25,454.25
             666.25,454.25 630.75,457.00 630.75,457.00
             630.75,457.00 627.75,467.00 627.75,467.00
             627.75,467.00 631.50,474.25 631.50,474.25
             631.50,474.25 625.50,481.50 625.50,481.50
             625.50,481.50 615.25,483.75 615.25,483.75
             615.25,483.75 612.75,468.75 612.75,468.75
             612.75,468.75 604.00,469.50 604.00,469.50
             604.00,469.50 602.25,487.75 602.25,487.75
             602.25,487.75 586.75,502.50 586.75,502.50
             586.75,502.50 586.75,516.75 586.75,516.75
             586.75,516.75 586.50,521.50 586.75,521.50" />
  <path id="Seazone8"
        fill="none" stroke="black" stroke-width="1"
        d="M 207.00,363.00
           C 207.00,363.00 201.00,564.00 201.00,564.00
             201.00,564.00 2.00,572.00 1.00,572.00
             0.00,572.00 1.00,368.00 1.00,367.00
             1.00,366.00 207.00,363.00 207.00,363.00" />
  <path id="Belfast"
        fill="none" stroke="black" stroke-width="1"
        d="M 317.00,351.50
           C 317.00,351.50 332.50,368.25 332.50,368.25
             332.50,368.25 342.75,364.25 342.75,365.25
             342.75,366.25 350.50,377.50 352.50,377.50
             354.50,377.50 366.00,380.00 366.00,380.00
             366.00,380.00 380.00,368.00 380.00,368.00
             380.00,368.00 375.00,363.00 375.00,362.00
             375.00,361.00 369.00,357.00 369.00,357.00
             369.00,357.00 376.00,351.00 376.00,351.00
             376.00,351.00 378.00,341.00 378.00,341.00
             378.00,341.00 373.00,333.00 373.00,333.00
             373.00,333.00 358.00,334.00 357.00,334.00
             356.00,334.00 356.00,325.00 356.00,324.00
             356.00,323.00 331.00,324.00 331.00,324.00
             331.00,324.00 312.00,337.00 312.00,337.00
             312.00,337.00 317.00,351.00 317.00,351.00" />
  <path id="Seazone3"
        fill="none" stroke="black" stroke-width="1"
        d="M 0.00,1.00
           C 3.00,2.00 463.00,1.00 463.00,1.00
             463.00,1.00 460.00,170.00 460.00,170.00
             460.00,170.00 207.00,363.00 207.00,363.00
             207.00,363.00 0.00,367.00 0.00,367.00
             0.00,367.00 1.00,3.00 1.00,3.00M 427.00,62.00" />
</svg>
