<?xml version="1.0" encoding="UTF-8" standalone="no"?>
<!DOCTYPE svg PUBLIC "-//W3C//DTD SVG 20010904//EN"
              "http://www.w3.org/TR/2001/REC-SVG-20010904/DTD/svg10.dtd">

<svg xmlns="http://www.w3.org/2000/svg"
     width="0.333333in" height="0.263333in"
     viewBox="0 0 120 70">
     <defs>
     <linearGradient id="de_color" x1="0%" y1="0%" x2="100%" y2="0%">
       <stop offset="0%" style="stop-color:rgb(80,80,80);stop-opacity:1" />
       <stop offset="100%" style="stop-color:rgb(200,200,200);stop-opacity:1" />
     </linearGradient>
     </defs>
  <path id="Fighter"
        fill="url(#de_color)" stroke="black" stroke-width="1"
        d="M 44.12,8.00 C 44.12,8.00 45.38,5.38 45.38,5.38 45.38,5.38 46.25,3.12 46.25,3.12 46.25,3.12 47.12,1.38 47.12,1.38 47.12,1.38 48.88,1.38 48.88,1.38 48.88,1.38 50.12,2.75 50.12,2.75 50.12,2.75 50.88,5.38 50.88,5.38 50.88,5.38 51.62,8.38 51.62,8.38 51.62,8.38 52.75,11.38 52.75,11.38 52.75,11.38 52.75,20.75 52.75,20.75 52.75,20.75 56.00,22.00 56.00,22.00 56.00,22.00 63.00,22.25 63.00,22.25 63.00,22.25 74.75,23.12 74.75,23.12 74.75,23.12 86.00,24.50 86.00,24.50 86.00,24.50 90.75,25.75 90.75,25.75 90.75,25.75 92.38,27.62 92.38,27.62 92.38,27.62 92.38,33.25 92.38,33.25 92.38,33.25 90.12,35.25 90.12,35.25 90.12,35.25 85.25,35.62 85.25,35.62 85.25,35.62 78.62,36.38 78.62,36.38 78.62,36.38 72.25,37.25 72.25,37.25 72.25,37.25 65.00,38.38 65.00,38.38 65.00,38.38 57.88,39.25 57.88,39.25 57.88,39.25 54.12,40.12 54.12,40.12 54.12,40.12 52.12,41.50 52.12,41.50 52.12,41.50 51.25,54.50 51.25,54.50 51.25,54.50 51.00,61.12 51.00,61.12 51.00,61.12 56.25,62.62 56.25,62.62 56.25,62.62 59.62,64.12 59.62,64.12 59.62,64.12 61.00,65.25 61.00,65.25 61.00,65.25 60.75,68.00 60.75,68.00 60.75,68.00 58.38,68.75 58.38,68.75 58.38,68.75 51.00,68.75 51.00,68.75 51.00,68.75 50.12,71.38 50.12,71.38 50.12,71.38 49.38,73.62 49.38,73.62 49.38,73.62 48.62,75.62 48.62,75.62 48.62,75.62 48.00,71.25 48.00,71.12 48.00,71.00 46.62,68.62 46.62,68.62 46.62,68.62 39.38,68.62 39.38,68.62 39.38,68.62 37.12,67.75 37.12,67.75 37.12,67.75 36.12,66.50 36.12,66.50 36.12,66.50 36.00,65.00 36.00,65.00 36.00,65.00 40.25,62.62 40.25,62.62 40.25,62.62 43.12,62.25 43.12,62.25 43.12,62.25 45.88,61.38 45.88,61.38 45.88,61.38 45.62,53.62 45.62,53.62 45.62,53.62 45.12,50.62 45.12,50.62 45.12,50.62 44.75,41.62 44.75,41.62 44.75,41.62 42.62,39.88 42.62,39.88 42.62,39.88 36.25,39.25 36.25,39.25 36.25,39.25 29.00,38.62 29.00,38.62 29.00,38.62 20.12,37.25 20.12,37.25 20.12,37.25 12.62,36.62 12.62,36.62 12.62,36.62 6.38,35.38 6.38,35.38 6.38,35.38 4.38,34.00 4.38,34.00 4.38,34.00 4.25,27.25 4.25,27.25 4.25,27.25 7.12,25.75 7.12,25.75 7.12,25.75 12.62,25.25 12.62,25.25 12.62,25.25 19.38,24.25 19.38,24.25 19.38,24.25 28.50,23.62 28.50,23.62 28.50,23.62 38.50,22.50 38.50,22.50 38.50,22.50 42.38,21.38 42.38,21.38 42.38,21.38 43.88,20.25 43.88,20.25 43.88,20.25 44.25,11.62 44.25,11.62 44.25,11.62 44.12,8.12 44.12,8.12" />
</svg>
