<?xml version="1.0" encoding="utf-8"?>
<!DOCTYPE svg PUBLIC "-//W3C//DTD SVG 1.1//EN" "http://www.w3.org/Graphics/SVG/1.1/DTD/svg11.dtd">
<svg version="1.1" id="Capa_1" xmlns="http://www.w3.org/2000/svg" xmlns:xlink="http://www.w3.org/1999/xlink" x="0px" y="0px"
	width="64px" height="64px" viewBox="0 0 64 64" enable-background="new 0 0 64 64" xml:space="preserve">
<defs>
<linearGradient id="de_color" x1="0%" y1="0%" x2="100%" y2="0%">
<stop offset="0%" style="stop-color:rgb(210,180,140);stop-opacity:1" />
<stop offset="100%" style="stop-color:rgb(160,140,100);stop-opacity:1" />
</linearGradient>
</defs>
<path stroke-width="1" d="M47.713,25.019l5.316-7.519c1.437-2.031,2.559-4.755,2.506-6.084c-0.054-1.33-1.177-2.45-2.511-2.506
	c-1.333-0.054-4.06,1.067-6.091,2.504l-7.52,5.318L18.417,6.702c-2.244-1.072-5.196-0.517-6.592,1.243
	c-1.396,1.76-0.967,4.463,0.958,6.04l16.784,13.748L17.019,41.635l-5.919-1.787c-2.381-0.721-5.048-0.611-5.954,0.242
	c-0.907,0.854-0.07,2.809,1.869,4.368l5.371,4.318c0,0-0.202,0.939-0.453,2.098c-0.25,1.158,0.484,1.89,1.641,1.634l2.094-0.465
	l4.315,5.369c1.56,1.939,3.516,2.777,4.37,1.872c0.853-0.905,0.963-3.569,0.242-5.951l-1.788-5.921l13.9-12.548l13.75,16.785
	c1.576,1.925,4.28,2.354,6.04,0.957c1.759-1.396,2.316-4.349,1.243-6.594L47.713,25.019z"
	fill="url(#de_color)" stroke="black"
	/>
</svg>
