<?xml version="1.0" encoding="UTF-8" standalone="no"?>
<!DOCTYPE svg PUBLIC "-//W3C//DTD SVG 20010904//EN"
              "http://www.w3.org/TR/2001/REC-SVG-20010904/DTD/svg10.dtd">


<svg xmlns="http://www.w3.org/2000/svg"
     width="0.510417in" height="0.677083in"
     viewBox="0 0 55 70">
<defs>
<linearGradient id="us_color" x1="0%" y1="0%" x2="100%" y2="0%">
<stop offset="0%" style="stop-color:rgb(55,105,40);stop-opacity:1" />
<stop offset="100%" style="stop-color:rgb(60,145,30);stop-opacity:1" />
</linearGradient>
</defs>

  <path id="Infantry"
        fill="url(#us_color)" stroke="black" stroke-width="1"
        d="M 18.39,6.86 C 18.39,6.86 18.39,7.55 18.39,7.55 18.39,7.55 18.15,7.87 18.15,7.87 18.15,7.87 18.71,7.90 18.71,7.90 18.71,7.90 19.20,8.52 19.20,8.52 19.20,8.52 19.40,8.97 19.40,8.97 19.40,8.97 19.26,9.46 19.26,9.46 19.26,9.46 19.16,10.15 19.16,10.15 19.16,10.15 18.81,10.39 18.81,10.39 18.81,10.39 18.08,10.91 18.08,10.91 18.08,10.91 17.28,11.68 17.28,11.68 17.28,11.68 16.89,11.78 16.89,11.78 16.89,11.78 16.33,11.95 16.33,11.95 16.33,11.95 15.74,11.95 15.74,11.95 15.74,11.95 14.87,11.99 14.87,11.99 14.87,11.99 14.24,12.20 14.24,12.20 14.24,12.20 13.68,12.72 13.68,12.72 13.68,12.72 12.95,13.30 12.95,13.30 12.95,13.30 12.28,14.03 12.28,14.03 12.28,14.03 11.73,14.41 11.73,14.41 11.73,14.41 11.38,15.07 11.34,15.11 11.31,15.14 11.13,15.25 11.13,15.25 11.13,15.25 10.19,15.70 10.16,15.70 10.12,15.70 9.35,16.18 9.35,16.18 9.35,16.18 8.83,16.77 8.83,16.77 8.83,16.77 8.17,17.39 8.17,17.39 8.17,17.39 7.57,18.16 7.57,18.16 7.57,18.16 7.12,18.81 7.12,18.81 7.12,18.81 6.81,19.61 6.81,19.61 6.81,19.61 6.63,20.41 6.63,20.41 6.63,20.41 6.70,21.41 6.70,21.41 6.70,21.41 7.01,22.00 7.01,22.00 7.01,22.00 7.57,22.38 7.57,22.38 7.57,22.38 8.27,22.73 8.27,22.73 8.27,22.73 9.04,23.08 9.04,23.08 9.04,23.08 10.57,23.53 10.57,23.53 10.57,23.53 12.32,24.01 12.32,24.01 12.32,24.01 13.40,24.32 13.40,24.32 13.40,24.32 14.06,24.36 14.06,24.36 14.06,24.36 14.45,24.84 14.45,24.84 14.45,24.84 14.41,25.99 14.41,25.99 14.41,25.99 13.51,27.86 13.51,27.86 13.51,27.86 13.54,28.58 13.54,28.58 13.54,28.58 13.12,29.49 13.12,29.49 13.12,29.49 13.05,30.28 13.05,30.28 13.05,30.28 12.81,31.88 12.81,31.88 12.81,31.88 12.67,32.60 12.67,32.60 12.67,32.60 12.46,33.40 12.46,33.40 12.46,33.40 12.39,34.13 12.39,34.13 12.39,34.13 12.25,35.17 12.25,35.17 12.25,35.17 13.16,35.34 13.16,35.34 13.16,35.34 13.93,35.90 13.93,35.90 13.93,35.90 13.82,37.59 13.82,37.59 13.82,37.59 13.75,39.40 13.75,39.40 13.75,39.40 13.58,42.20 13.58,42.20 13.58,42.20 13.47,44.42 13.47,44.42 13.47,44.42 13.23,44.83 13.23,44.83 13.23,44.83 13.09,45.53 13.09,45.53 13.09,45.53 12.91,47.54 12.91,47.54 12.91,47.54 11.94,50.55 11.94,50.55 11.94,50.55 11.73,53.25 11.73,53.25 11.73,53.25 12.11,53.29 12.11,53.29 12.11,53.29 12.74,53.74 12.74,53.74 12.74,53.74 12.63,55.58 12.63,55.58 12.63,55.58 12.81,55.96 12.81,55.96 12.81,55.96 12.77,56.58 12.77,56.58 12.77,56.58 12.53,57.17 12.53,57.17 12.53,57.17 12.22,57.83 12.22,57.83 12.22,57.83 11.62,58.66 11.62,58.66 11.62,58.66 11.20,59.18 11.20,59.18 11.20,59.18 10.68,59.73 10.68,59.73 10.68,59.73 10.23,60.18 10.23,60.18 10.23,60.18 9.67,60.84 9.67,60.88 9.67,60.91 9.25,61.43 9.25,61.43 9.25,61.43 9.35,62.30 9.39,62.33 9.42,62.37 9.98,62.71 9.98,62.71 9.98,62.71 11.17,62.71 11.17,62.71 11.17,62.71 11.83,62.51 11.83,62.51 11.83,62.51 12.70,62.16 12.70,62.16 12.70,62.16 13.30,61.33 13.30,61.33 13.30,61.33 13.86,60.77 13.86,60.77 13.86,60.77 14.66,60.63 14.66,60.63 14.66,60.63 15.36,60.25 15.39,60.25 15.43,60.25 15.46,59.73 15.46,59.73 15.46,59.73 15.64,59.01 15.64,59.01 15.64,59.01 15.67,57.86 15.67,57.86 15.67,57.86 15.43,56.72 15.43,56.68 15.43,56.65 15.50,55.82 15.50,55.82 15.50,55.82 15.67,54.85 15.67,54.85 15.67,54.85 15.77,53.81 15.77,53.81 15.77,53.81 16.65,53.67 16.65,53.67 16.65,53.67 17.28,53.19 17.28,53.19 17.28,53.19 17.35,52.28 17.35,52.28 17.35,52.28 17.69,51.18 17.69,51.18 17.69,51.18 18.04,49.69 18.04,49.69 18.04,49.69 18.39,47.64 18.39,47.64 18.39,47.64 18.64,46.36 18.64,46.36 18.64,46.36 18.88,44.90 18.88,44.90 18.88,44.90 19.20,43.21 19.20,43.21 19.20,43.21 19.68,40.68 19.68,40.68 19.68,40.68 20.10,38.36 20.10,38.36 20.10,38.36 20.42,38.36 20.42,38.36 20.42,38.36 20.56,40.57 20.56,40.57 20.56,40.57 20.66,41.06 20.66,41.06 20.66,41.06 20.91,42.10 20.91,42.10 20.91,42.10 20.91,44.42 20.91,44.42 20.91,44.42 21.15,45.15 21.15,45.15 21.15,45.15 20.91,45.74 20.91,45.74 20.91,45.74 20.66,46.95 20.66,46.95 20.66,46.95 20.59,47.95 20.59,47.95 20.59,47.95 20.73,48.65 20.73,48.65 20.73,48.65 20.70,49.58 20.70,49.58 20.70,49.58 20.38,50.17 20.38,50.17 20.38,50.17 20.31,51.49 20.31,51.49 20.31,51.49 21.08,52.11 21.08,52.11 21.08,52.11 21.04,52.91 21.04,52.91 21.04,52.91 20.94,53.43 20.94,53.43 20.94,53.43 20.80,54.26 20.80,54.26 20.80,54.26 20.80,55.68 20.80,55.68 20.80,55.68 20.59,56.23 20.59,56.23 20.59,56.23 20.63,57.31 20.59,57.27 20.56,57.24 20.59,58.35 20.59,58.35 20.59,58.35 21.08,58.87 21.08,58.87 21.08,58.87 21.67,59.39 21.67,59.42 21.67,59.46 21.85,60.57 21.85,60.57 21.85,60.57 22.69,61.29 22.69,61.29 22.69,61.29 23.17,61.33 23.21,61.33 23.24,61.33 23.80,61.33 23.80,61.33 23.80,61.33 24.47,61.26 24.47,61.26 24.47,61.26 24.95,60.98 24.95,60.98 24.95,60.98 25.02,60.25 25.02,60.25 25.02,60.25 25.02,59.49 25.02,59.49 25.02,59.49 24.64,58.90 24.60,58.90 24.57,58.90 23.77,57.72 23.73,57.72 23.70,57.72 23.28,56.82 23.28,56.82 23.28,56.82 23.28,54.88 23.28,54.88 23.28,54.88 23.45,54.36 23.45,54.36 23.45,54.36 23.70,53.32 23.70,53.32 23.70,53.32 25.13,52.04 25.13,52.04 25.13,52.04 25.27,49.48 25.27,49.48 25.27,49.48 25.37,47.99 25.37,47.99 25.37,47.99 25.58,45.18 25.58,45.18 25.58,45.18 25.72,43.80 25.72,43.80 25.72,43.80 26.04,42.62 26.04,42.62 26.04,42.62 26.25,41.02 26.28,41.02 26.31,41.02 26.56,39.33 26.56,39.33 26.56,39.33 26.73,38.36 26.73,38.36 26.73,38.36 27.08,36.97 27.08,36.97 27.08,36.97 27.64,36.73 27.64,36.73 27.64,36.73 28.06,36.31 28.06,36.28 28.06,36.24 27.92,32.50 27.96,32.50 27.99,32.50 28.06,32.29 28.06,32.29 28.06,32.29 28.44,32.50 28.44,32.50 28.44,32.50 28.62,32.81 28.62,32.81 28.62,32.81 28.83,32.95 28.83,32.95 28.83,32.95 29.11,33.05 29.11,33.05 29.11,33.05 29.32,33.33 29.32,33.33 29.32,33.33 29.63,33.40 29.67,33.40 29.70,33.40 30.01,33.47 30.01,33.47 30.01,33.47 30.75,33.61 30.75,33.61 30.75,33.61 31.41,33.40 31.41,33.40 31.41,33.40 37.45,37.42 37.45,37.42 37.45,37.42 37.76,37.91 37.76,37.91 37.76,37.91 37.97,37.70 37.97,37.70 37.97,37.70 39.05,38.42 39.09,38.42 39.12,38.42 39.19,38.81 39.19,38.81 39.19,38.81 39.68,38.91 39.68,38.91 39.68,38.91 41.71,40.33 41.71,40.33 41.71,40.33 42.12,40.05 42.16,40.05 42.19,40.05 42.61,40.12 42.61,40.12 42.61,40.12 42.58,39.78 42.58,39.78 42.58,39.78 42.16,39.05 42.16,39.05 42.16,39.05 42.30,38.88 42.30,38.88 42.30,38.88 42.37,38.53 42.37,38.49 42.37,38.46 41.95,38.29 41.92,38.29 41.88,38.29 41.29,38.74 41.29,38.74 41.29,38.74 38.25,36.73 38.25,36.73 38.25,36.73 38.39,36.45 38.39,36.45 38.39,36.45 31.27,31.15 31.27,31.15 31.27,31.15 31.20,30.32 31.20,30.32 31.20,30.32 31.13,29.49 31.13,29.49 31.13,29.49 31.51,29.17 31.51,29.17 31.51,29.17 32.07,28.13 32.07,28.13 32.07,28.13 32.49,27.27 32.49,27.27 32.49,27.27 32.74,25.88 32.74,25.88 32.74,25.88 32.56,25.05 32.56,25.05 32.56,25.05 32.28,23.77 32.28,23.73 32.28,23.70 32.14,22.76 32.14,22.76 32.14,22.76 31.86,21.72 31.86,21.72 31.86,21.72 31.62,20.79 31.62,20.79 31.62,20.79 31.10,19.68 31.10,19.68 31.10,19.68 30.71,18.71 30.71,18.71 30.71,18.71 30.43,17.88 30.43,17.88 30.43,17.88 29.98,16.74 29.98,16.74 29.98,16.74 29.74,15.90 29.70,15.87 29.67,15.83 29.32,14.83 29.32,14.83 29.32,14.83 28.55,13.96 28.55,13.93 28.55,13.89 27.99,13.37 27.99,13.30 27.99,13.24 27.08,13.10 27.05,13.06 27.01,13.03 26.25,12.85 26.25,12.85 26.25,12.85 25.76,12.47 25.76,12.47 25.76,12.47 25.09,11.71 25.09,11.71 25.09,11.71 24.12,10.84 24.12,10.84 24.12,10.84 24.12,10.43 24.12,10.43 24.12,10.43 24.43,9.56 24.43,9.56 24.43,9.56 24.67,8.38 24.67,8.38 24.67,8.38 25.20,8.11 25.20,8.11 25.20,8.11 25.79,7.76 25.79,7.76 25.79,7.76 26.11,7.21 26.11,7.21 26.11,7.21 25.97,7.00 25.93,6.96 25.90,6.93 25.79,6.51 25.79,6.51 25.79,6.51 25.72,5.99 25.72,5.99 25.72,5.99 25.51,4.89 25.48,4.89 25.44,4.89 25.20,4.05 25.20,4.02 25.20,3.98 24.81,3.40 24.74,3.36 24.67,3.33 24.22,2.77 24.19,2.77 24.15,2.77 23.45,2.46 23.45,2.46 23.45,2.46 22.44,2.22 22.44,2.22 22.44,2.22 21.32,2.25 21.32,2.25 21.32,2.25 20.35,2.49 20.35,2.49 20.35,2.49 19.58,3.05 19.58,3.05 19.58,3.05 18.88,3.74 18.85,3.78 18.81,3.81 18.53,4.37 18.53,4.37 18.53,4.37 18.43,5.37 18.43,5.37 18.43,5.37 18.39,6.86 18.39,6.86" />
</svg>
