<?xml version="1.0" encoding="UTF-8" standalone="no"?>
<!DOCTYPE svg PUBLIC "-//W3C//DTD SVG 20010904//EN"
              "http://www.w3.org/TR/2001/REC-SVG-20010904/DTD/svg10.dtd">

<svg xmlns="http://www.w3.org/2000/svg"
     width="0.611111in" height="0.902778in"
     viewBox="0 0 44 75">


     <defs>
<linearGradient id="it_color" x1="0%" y1="0%" x2="100%" y2="0%">
<stop offset="0%" style="stop-color:rgb(255,190,0);stop-opacity:1" />
<stop offset="100%" style="stop-color:rgb(180,140,0);stop-opacity:1" />
</linearGradient>
     </defs>
  <path id="infantry_it"
        fill="url(#it_color)" stroke="black" stroke-width="1"
        d="M 17.85,9.81 C 17.85,9.81 17.90,9.01 17.90,9.01 17.90,9.01 17.65,8.50 17.65,8.50 17.65,8.50 17.50,7.90 17.50,7.90 17.50,7.90 17.20,6.89 17.20,6.89 17.20,6.89 16.70,5.99 16.70,5.99 16.70,5.99 16.05,5.23 16.05,5.23 16.05,5.23 15.05,4.58 15.05,4.58 15.05,4.58 14.10,4.28 14.10,4.28 14.10,4.28 13.35,4.33 13.35,4.33 13.35,4.33 12.30,4.73 12.30,4.73 12.30,4.73 11.65,5.23 11.65,5.23 11.65,5.23 11.20,5.89 11.20,5.94 11.20,5.99 10.85,6.84 10.85,6.84 10.85,6.84 10.55,8.10 10.55,8.10 10.55,8.10 10.35,9.36 10.35,9.36 10.35,9.36 10.40,10.36 10.40,10.36 10.40,10.36 11.30,10.41 11.30,10.41 11.30,10.41 11.45,10.87 11.45,10.92 11.45,10.97 11.60,11.42 11.60,11.42 11.60,11.42 11.90,11.77 11.90,11.82 11.90,11.87 12.00,12.33 12.00,12.33 12.00,12.33 10.20,13.68 10.20,13.68 10.20,13.68 8.90,14.19 8.90,14.19 8.90,14.19 9.55,4.78 9.55,4.78 9.55,4.78 9.45,4.23 9.45,4.23 9.45,4.23 9.65,2.01 9.65,2.01 9.65,2.01 9.20,1.91 9.20,1.91 9.20,1.91 9.05,3.67 9.05,3.67 9.05,3.67 8.90,4.13 8.90,4.13 8.90,4.13 8.65,4.53 8.65,4.53 8.65,4.53 7.90,14.54 7.90,14.54 7.90,14.54 6.40,15.14 6.40,15.14 6.40,15.14 6.20,15.85 6.20,15.85 6.20,15.85 5.85,18.31 5.85,18.31 5.85,18.31 5.55,18.77 5.55,18.77 5.55,18.77 5.05,19.87 5.05,19.87 5.05,19.87 4.70,21.63 4.70,21.63 4.70,21.63 4.45,22.59 4.45,22.59 4.45,22.59 4.25,23.90 4.25,23.90 4.25,23.90 4.10,25.66 4.10,25.66 4.10,25.66 3.85,27.27 3.85,27.27 3.85,27.27 3.85,32.45 3.85,32.45 3.85,32.45 4.15,33.20 4.15,33.20 4.15,33.20 4.30,34.06 4.30,34.06 4.30,34.06 4.50,35.12 4.50,35.12 4.50,35.12 4.80,35.72 4.80,35.72 4.80,35.72 4.90,37.78 4.90,37.78 4.90,37.78 5.00,38.64 5.00,38.64 5.00,38.64 4.40,42.01 4.40,42.01 4.40,42.01 5.25,42.06 5.25,42.06 5.25,42.06 6.45,41.51 6.45,41.51 6.45,41.51 6.50,38.74 6.50,38.74 6.50,38.74 6.90,38.49 6.90,38.49 6.90,38.49 7.10,39.04 7.10,39.04 7.10,39.04 6.60,42.06 6.60,42.06 6.60,42.06 6.50,43.52 6.50,43.52 6.50,43.52 7.10,44.17 7.10,44.17 7.10,44.17 8.20,44.62 8.20,44.62 8.20,44.62 9.15,44.98 9.15,44.98 9.15,44.98 9.25,45.88 9.25,45.88 9.25,45.88 9.50,46.49 9.50,46.49 9.50,46.49 9.60,48.15 9.60,48.15 9.60,48.15 9.75,49.96 9.75,49.96 9.75,49.96 9.85,50.66 9.85,50.66 9.85,50.66 9.85,53.88 9.85,53.88 9.85,53.88 9.80,54.43 9.80,54.43 9.80,54.43 9.65,55.14 9.65,55.14 9.65,55.14 9.55,55.79 9.55,55.79 9.55,55.79 9.50,57.35 9.50,57.35 9.50,57.35 8.85,58.36 8.85,58.36 8.85,58.36 8.85,59.77 8.85,59.77 8.85,59.77 9.50,60.32 9.50,60.32 9.50,60.32 12.05,60.37 12.05,60.37 12.05,60.37 12.45,59.67 12.45,59.67 12.45,59.67 12.55,59.16 12.55,59.16 12.55,59.16 12.55,58.16 12.55,58.16 12.55,58.16 12.70,57.05 12.70,57.05 12.70,57.05 12.85,56.35 12.85,56.35 12.85,56.35 13.00,55.39 13.00,55.39 13.00,55.39 12.90,54.43 12.90,54.43 12.90,54.43 12.80,53.03 12.80,53.03 12.80,53.03 12.55,51.77 12.55,51.77 12.55,51.77 12.65,50.46 12.65,50.46 12.65,50.46 12.80,48.60 12.80,48.60 12.80,48.60 12.90,46.13 12.90,46.13 12.90,46.13 13.10,45.08 13.10,45.08 13.10,45.08 13.70,44.42 13.70,44.42 13.70,44.42 14.05,43.72 14.05,43.72 14.05,43.72 14.10,42.36 14.10,42.31 14.10,42.26 13.85,41.51 13.85,41.51 13.85,41.51 13.85,40.55 13.85,40.55 13.85,40.55 13.95,39.54 13.95,39.54 13.95,39.54 14.05,38.94 14.05,38.94 14.05,38.94 14.30,38.13 14.30,38.13 14.30,38.13 14.80,39.14 14.80,39.14 14.80,39.14 14.95,40.25 14.95,40.25 14.95,40.25 15.20,41.10 15.20,41.10 15.20,41.10 15.20,41.96 15.20,41.96 15.20,41.96 14.90,42.31 14.90,42.31 14.90,42.31 14.60,43.22 14.60,43.22 14.60,43.22 14.50,43.97 14.50,43.97 14.50,43.97 14.55,44.52 14.55,44.52 14.55,44.52 14.80,44.93 14.80,44.93 14.80,44.93 15.55,45.78 15.55,45.78 15.55,45.78 15.55,48.15 15.55,48.15 15.55,48.15 15.55,50.91 15.55,50.91 15.55,50.91 15.60,52.67 15.60,52.67 15.60,52.67 15.55,54.08 15.55,54.08 15.55,54.08 15.40,54.69 15.40,54.69 15.40,54.69 15.15,55.24 15.15,55.24 15.15,55.24 15.05,56.10 15.05,56.10 15.05,56.10 14.90,57.45 14.90,57.45 14.90,57.45 15.25,57.91 15.25,57.91 15.25,57.91 16.00,58.41 16.00,58.41 16.00,58.41 16.60,58.41 16.60,58.41 16.60,58.41 17.40,59.67 17.40,59.67 17.40,59.67 18.15,60.02 18.15,60.02 18.15,60.02 19.35,60.37 19.35,60.37 19.35,60.37 20.40,60.22 20.40,60.22 20.40,60.22 20.95,60.12 20.95,60.12 20.95,60.12 21.45,59.72 21.45,59.72 21.45,59.72 21.30,58.91 21.30,58.91 21.30,58.91 20.65,58.11 20.65,58.11 20.65,58.11 19.90,57.40 19.90,57.40 19.90,57.40 19.05,56.20 19.05,56.20 19.05,56.20 18.40,55.14 18.40,55.14 18.40,55.14 18.20,53.73 18.20,53.73 18.20,53.73 18.30,52.17 18.30,52.12 18.30,52.07 18.35,50.61 18.35,50.61 18.35,50.61 18.60,49.81 18.60,49.81 18.60,49.81 18.70,48.55 18.70,48.55 18.70,48.55 18.85,47.09 18.85,47.09 18.85,47.09 19.00,45.88 19.00,45.88 19.00,45.88 19.90,45.48 19.90,45.48 19.90,45.48 20.50,44.98 20.50,44.98 20.50,44.98 21.10,44.57 21.10,44.57 21.10,44.57 21.50,44.02 21.50,44.02 21.50,44.02 21.70,42.96 21.70,42.96 21.70,42.96 21.65,38.99 21.65,38.94 21.65,38.89 21.95,38.89 21.95,38.89 21.95,38.89 22.25,38.34 22.25,38.34 22.25,38.34 22.75,37.73 22.75,37.73 22.75,37.73 23.10,36.93 23.10,36.93 23.10,36.93 23.15,35.07 23.15,35.07 23.15,35.07 23.45,34.76 23.45,34.76 23.45,34.76 23.70,32.95 23.70,32.90 23.70,32.85 23.80,31.69 23.80,31.69 23.80,31.69 24.00,29.83 24.00,29.83 24.00,29.83 24.30,28.73 24.30,28.73 24.30,28.73 24.30,27.77 24.30,27.77 24.30,27.77 24.00,26.41 24.00,26.41 24.00,26.41 24.10,24.85 24.10,24.85 24.10,24.85 24.10,22.14 24.10,22.14 24.10,22.14 23.75,21.23 23.75,21.23 23.75,21.23 23.25,19.97 23.25,19.97 23.25,19.97 22.85,18.31 22.85,18.31 22.85,18.31 22.50,16.80 22.50,16.80 22.50,16.80 22.00,15.45 22.00,15.45 22.00,15.45 21.15,14.44 21.15,14.44 21.15,14.44 20.15,13.43 20.15,13.43 20.15,13.43 19.05,12.93 19.05,12.93 19.05,12.93 17.35,12.73 17.30,12.73 17.25,12.73 16.10,12.48 16.10,12.48 16.10,12.48 15.75,12.07 15.75,12.07 15.75,12.07 16.05,11.52 16.05,11.52 16.05,11.52 16.35,10.77 16.35,10.77 16.35,10.77 16.85,9.96 16.85,9.96 16.85,9.96 17.80,9.76 17.80,9.76" />
</svg>
