<?xml version="1.0" encoding="utf-8"?>
<!-- Generator: Adobe Illustrator 16.0.4, SVG Export Plug-In . SVG Version: 6.00 Build 0)  -->
<!DOCTYPE svg PUBLIC "-//W3C//DTD SVG 1.1//EN" "http://www.w3.org/Graphics/SVG/1.1/DTD/svg11.dtd">
<svg version="1.1" id="Layer_1" xmlns="http://www.w3.org/2000/svg" xmlns:xlink="http://www.w3.org/1999/xlink" x="0px" y="0px"
	 width="126px" height="126px" viewBox="0 0 126 126" enable-background="new 0 0 126 126" xml:space="preserve">
<path d="M67.885,19.613c0-7.438,6.029-13.467,13.467-13.467s13.467,6.029,13.467,13.467c0,7.438-6.029,13.467-13.467,13.467
	S67.885,27.051,67.885,19.613z M109.544,119.439c-1.862,0.916-4.082,0.276-5.188-1.416L91.678,98.682
	c-0.271-0.414-0.451-0.859-0.545-1.315l-0.104-0.509L88.408,83.95c-0.104,0.003-0.209,0.006-0.314,0.006
	c-0.525,0-1.037-0.044-1.548-0.108l-6.13,10.582l-5.062,22.258c-0.498,2.185-2.672,3.553-4.855,3.056
	c-2.032-0.462-3.357-2.376-3.133-4.397l2.613-23.824c0.043-0.387,0.146-0.75,0.297-1.086l0.236-0.51L76.732,76.4
	c-0.558-1.322-0.903-2.758-0.967-4.276l-0.763-18.285L69.238,58.4l-0.401,0.317c-1.819,1.439-4.421,1.229-6.008-0.392l-11.34-11.67
	c-1.385-1.426-1.393-3.661-0.08-5.114c-6.03-0.745-11.561-1.426-13.1-1.628c-6.003-0.786-6.234-4.507-6.234-4.509l-17.879-1.768
	l0.28-2.836l1.811,0.179l0.204-2.052l0.708,0.07l-0.204,2.052l53.84,5.51c2.993-0.845,3.437-2.267,3.44-2.284l0.459,0.12
	l0.463,0.111c-0.022,0.086-0.487,1.802-3.688,2.836l-0.19,1.924c0.486,0.11,0.959,0.222,1.397,0.341
	c0.71,0.191,1.333,0.388,1.921,0.585l4.491-4.14c0.392-0.361,0.827-0.631,1.278-0.862c1.771-1.127,3.849-1.827,6.098-1.92
	c6.658-0.285,12.275,4.763,12.807,11.34l6.894,0.923c0,0,4.464,9.941-1.229,9.179c-1.265-0.17-2.949-0.395-4.896-0.656
	c0.007,0.148,0.006,0.295,0.012,0.443c-0.116-0.089-0.239-0.169-0.356-0.256l0.703,16.851c0.078,1.891-0.285,3.695-0.979,5.329
	l2.267,17.976l9.662,19.605C112.377,116.014,111.55,118.447,109.544,119.439z M38.847,35.014l-0.943-0.104l-0.393,3.585l0.944,0.104
	L38.847,35.014z M41.916,35.35l-0.944-0.103l-0.393,3.585l0.944,0.103L41.916,35.35z M44.866,35.671l-0.944-0.103l-0.393,3.585
	l0.944,0.104L44.866,35.671z M62.039,43.563c0,0.491,0.4,0.89,0.891,0.89h1.542c0.491,0,0.891-0.399,0.891-0.89
	c0-0.036-0.016-0.065-0.021-0.1c-0.468,0.315-1.139,0.575-2.117,0.575c-0.264,0-0.475-0.213-0.475-0.475
	c0-0.263,0.211-0.475,0.475-0.475c0.152,0,0.282-0.016,0.415-0.031c-0.417-0.052-0.845-0.105-1.286-0.161
	C62.166,43.06,62.039,43.293,62.039,43.563z M67.305,43.522c-0.314-0.04-0.654-0.084-1.009-0.129
	c0.005,0.057,0.019,0.112,0.019,0.17c0,1.015-0.826,1.84-1.84,1.84H62.93c-1.015,0-1.84-0.825-1.84-1.84
	c0-0.288,0.072-0.558,0.191-0.801c-1.009-0.126-2.064-0.258-3.148-0.392l7.67,5.962l0.426-0.393
	C65.963,46.355,66.418,44.78,67.305,43.522z M59.61,33.704l-11.136-1.126l-0.122,1.206l11.136,1.126L59.61,33.704z"/>
</svg>
