<?xml version="1.0" encoding="UTF-8" standalone="no"?>
<!DOCTYPE svg PUBLIC "-//W3C//DTD SVG 20010904//EN"
              "http://www.w3.org/TR/2001/REC-SVG-20010904/DTD/svg10.dtd">

<svg xmlns="http://www.w3.org/2000/svg"
     width="0.788889in" height="1.11111in"
     viewBox="0 0 71 100">

     <defs>
     <linearGradient id="fr_color" x1="0%" y1="0%" x2="100%" y2="0%">
<stop offset="0%" style="stop-color:rgb(70,200,210);stop-opacity:1" />
<stop offset="100%" style="stop-color:rgb(10,140,155);stop-opacity:1" />
     </linearGradient>
     </defs>
  <path id="infantry_fr"
        fill="url(#fr_color)"  stroke="black" stroke-width="1"
        d="M 24.05,14.07 C 23.95,14.07 22.04,14.16 22.04,14.16 22.04,14.16 20.04,15.40 20.04,15.40 20.04,15.40 18.70,16.25 18.70,16.25 18.70,16.25 18.04,18.16 18.04,18.25 18.04,18.35 18.04,21.10 18.04,21.10 18.04,21.10 18.13,23.00 18.04,23.00 17.94,23.00 19.47,24.14 19.47,24.14 19.47,24.14 20.61,24.52 20.61,24.52 20.61,24.52 21.85,25.86 21.85,25.86 21.85,25.86 21.57,27.09 21.57,27.09 21.57,27.09 19.75,28.23 19.75,28.23 19.75,28.23 17.37,29.75 17.37,29.75 17.37,29.75 15.94,31.18 15.84,31.27 15.75,31.37 15.08,32.51 15.08,32.51 15.08,32.51 14.31,34.79 14.31,34.79 14.31,34.79 14.03,36.98 14.03,36.98 14.03,36.98 13.07,39.35 13.07,39.35 13.07,39.35 12.79,41.06 12.79,41.06 12.79,41.06 12.79,42.97 12.79,42.97 12.79,42.97 13.84,44.58 13.84,44.58 13.84,44.58 15.75,46.01 15.75,46.01 15.75,46.01 17.56,46.48 17.56,46.48 17.56,46.48 17.27,47.62 17.27,47.62 17.27,47.62 16.03,49.05 16.03,49.05 16.03,49.05 14.98,50.86 14.98,50.86 14.98,50.86 15.08,53.14 15.08,53.14 15.08,53.14 15.27,55.80 15.27,55.80 15.27,55.80 16.13,57.60 16.13,57.70 16.13,57.79 17.56,58.56 17.56,58.56 17.56,58.56 18.90,59.32 18.90,59.32 18.90,59.32 19.56,64.26 19.56,64.26 19.56,64.26 19.85,69.68 19.85,69.68 19.85,69.68 19.47,72.15 19.47,72.15 19.47,72.15 18.99,76.62 18.99,76.62 18.99,76.62 19.66,77.28 19.66,77.28 19.66,77.28 20.99,79.56 20.99,79.56 20.99,79.56 20.71,82.22 20.71,82.22 20.71,82.22 19.47,83.46 19.47,83.46 19.47,83.46 17.08,84.22 17.08,84.22 17.08,84.22 15.75,85.84 15.75,85.84 15.75,85.84 26.72,85.84 26.72,85.84 26.72,85.84 26.34,79.94 26.34,79.94 26.34,79.94 27.48,77.95 27.48,77.95 27.48,77.95 27.77,76.14 27.77,76.14 27.77,76.14 27.01,72.72 27.01,72.72 27.01,72.72 26.82,69.58 26.82,69.58 26.82,69.58 27.29,66.44 27.29,66.44 27.29,66.44 28.15,62.74 28.15,62.74 28.15,62.74 29.11,59.51 29.11,59.51 29.11,59.51 31.01,65.11 31.01,65.11 31.01,65.11 32.35,68.82 32.35,68.82 32.35,68.82 33.31,71.77 33.31,71.77 33.31,71.77 34.16,73.86 34.16,73.86 34.16,73.86 35.31,76.24 35.31,76.24 35.31,76.24 36.07,77.85 36.07,77.85 36.07,77.85 38.94,82.79 38.94,82.79 38.94,82.79 39.22,86.03 39.22,86.03 39.22,86.03 44.66,85.84 44.66,85.84 44.66,85.84 43.33,81.37 43.33,81.37 43.33,81.37 42.66,75.48 42.66,75.48 42.66,75.48 41.03,71.96 41.03,71.86 41.03,71.77 39.79,68.82 39.79,68.82 39.79,68.82 38.08,62.83 38.08,62.83 38.08,62.83 38.27,59.32 38.27,59.32 38.27,59.32 36.84,56.27 36.84,56.27 36.84,56.27 37.03,55.04 37.03,55.04 37.03,55.04 37.22,52.57 37.12,52.47 37.03,52.38 36.65,50.76 36.65,50.76 36.65,50.76 36.45,48.86 36.45,48.86 36.45,48.86 35.98,46.77 35.98,46.77 35.98,46.77 36.17,43.06 36.17,42.97 36.17,42.87 35.69,40.97 35.69,40.87 35.69,40.78 36.65,40.21 36.65,40.21 36.65,40.21 39.03,41.54 39.03,41.54 39.03,41.54 41.03,42.11 41.03,42.11 41.03,42.11 43.04,41.25 43.04,41.25 43.04,41.25 43.71,39.26 43.80,39.26 43.90,39.26 44.76,34.98 44.76,34.98 44.76,34.98 43.99,32.51 43.99,32.51 43.99,32.51 43.90,30.13 43.90,30.13 43.90,30.13 43.90,27.85 43.90,27.85 43.90,27.85 44.95,25.57 44.95,25.48 44.95,25.38 45.33,24.52 45.33,24.52 45.33,24.52 45.52,23.00 45.52,23.00 45.52,23.00 46.57,20.44 46.57,20.44 46.57,20.44 50.77,15.49 50.77,15.49 50.77,15.49 52.30,13.40 52.30,13.40 52.30,13.40 52.39,11.88 52.49,11.88 52.58,11.88 53.15,11.22 53.15,11.22 53.15,11.22 53.82,9.79 53.82,9.79 53.82,9.79 52.49,8.75 52.49,8.75 52.49,8.75 51.44,9.22 51.44,9.22 51.44,9.22 49.72,11.41 49.72,11.41 49.72,11.41 48.10,13.31 48.10,13.31 48.10,13.31 44.09,17.59 44.09,17.59 44.09,17.59 40.75,21.01 40.75,21.01 40.75,21.01 38.55,23.29 38.55,23.29 38.55,23.29 35.31,25.95 35.31,25.95 35.31,25.95 33.21,28.99 33.21,28.99 33.21,28.99 33.02,28.04 33.02,28.04 33.02,28.04 30.73,26.33 30.73,26.33 30.73,26.33 28.72,24.43 28.72,24.43 28.72,24.43 29.11,21.01 29.11,21.01 29.11,21.01 29.68,20.25 29.68,20.25 29.68,20.25 29.58,18.44 29.58,18.44 29.58,18.44 28.15,16.73 28.06,16.63 27.96,16.54 25.29,14.73 25.29,14.73 25.29,14.73 23.86,13.97 23.86,13.97" />
</svg>
