<?xml version="1.0" encoding="UTF-8" standalone="no"?>
<!DOCTYPE svg PUBLIC "-//W3C//DTD SVG 20010904//EN"
              "http://www.w3.org/TR/2001/REC-SVG-20010904/DTD/svg10.dtd">

<svg xmlns="http://www.w3.org/2000/svg"
     viewBox="0 0 71 120">
     <defs>
     <linearGradient id="uk_color" x1="0%" y1="0%" x2="100%" y2="0%">
<stop offset="0%" style="stop-color:rgb(210,180,140);stop-opacity:1" />
<stop offset="100%" style="stop-color:rgb(160,140,100);stop-opacity:1" />
     </linearGradient>
     </defs>
  <path id="infantry_uk"
        fill="url(#uk_color)" stroke="black" stroke-width="1"
        d="M 20.94,7.22 C 20.94,7.22 20.12,7.87 20.12,7.87 20.12,7.87 19.30,8.36 19.30,8.36 19.30,8.36 18.40,8.85 18.40,8.85 18.40,8.85 18.73,9.50 18.81,9.50 18.90,9.50 19.55,10.15 19.55,10.15 19.55,10.15 21.27,10.23 21.27,10.23 21.27,10.23 21.92,10.63 21.92,10.63 21.92,10.63 22.58,11.61 22.58,11.61 22.58,11.61 22.82,12.74 22.82,12.74 22.82,12.74 22.98,15.26 22.98,15.26 22.98,15.26 22.58,16.88 22.58,16.88 22.58,16.88 22.33,18.59 22.33,18.59 22.33,18.59 20.78,18.59 20.78,18.59 20.78,18.59 19.96,18.34 19.96,18.34 19.96,18.34 18.65,18.67 18.65,18.67 18.65,18.67 16.85,18.99 16.85,18.99 16.85,18.99 15.87,19.48 15.87,19.48 15.87,19.48 15.30,20.94 15.30,20.94 15.30,20.94 14.48,22.65 14.48,22.65 14.48,22.65 13.99,23.70 13.99,23.70 13.99,23.70 13.41,25.00 13.41,25.00 13.41,25.00 12.60,27.11 12.60,27.11 12.60,27.11 11.78,29.63 11.78,29.63 11.78,29.63 11.04,32.47 10.96,32.55 10.88,32.63 10.63,34.98 10.63,34.98 10.63,34.98 10.72,38.56 10.72,38.56 10.72,38.56 10.47,41.72 10.47,41.72 10.47,41.72 11.12,42.69 11.12,42.69 11.12,42.69 11.86,44.32 11.86,44.32 11.86,44.32 12.35,45.70 12.35,45.70 12.35,45.70 13.09,47.32 13.09,47.32 13.09,47.32 13.91,48.30 13.91,48.30 13.91,48.30 14.07,49.59 14.07,49.59 14.07,49.59 14.72,50.00 14.81,50.00 14.89,50.00 15.30,50.32 15.30,50.32 15.30,50.32 15.38,51.62 15.38,51.62 15.38,51.62 13.01,51.62 13.01,51.62 13.01,51.62 10.31,51.79 10.31,51.79 10.31,51.79 8.92,52.11 8.92,52.11 8.92,52.11 7.85,53.57 7.85,53.57 7.85,53.57 8.67,55.60 8.67,55.60 8.67,55.60 9.08,58.85 9.08,58.85 9.08,58.85 9.82,59.09 9.82,59.09 9.82,59.09 10.96,58.28 10.96,58.28 10.96,58.28 13.58,57.31 13.58,57.31 13.58,57.31 15.95,56.09 15.95,56.09 15.95,56.09 17.18,55.60 17.18,55.60 17.18,55.60 16.93,57.71 16.93,57.71 16.93,57.71 16.69,59.90 16.69,59.90 16.69,59.90 16.60,61.85 16.60,61.85 16.60,61.85 17.18,62.66 17.18,62.66 17.18,62.66 17.50,63.96 17.50,63.96 17.50,63.96 17.67,65.67 17.67,65.67 17.67,65.67 17.75,67.37 17.75,67.37 17.75,67.37 17.91,69.32 17.91,69.32 17.91,69.32 17.75,71.83 17.75,71.83 17.75,71.83 17.34,74.11 17.34,74.11 17.34,74.11 17.42,76.46 17.42,76.46 17.42,76.46 17.83,77.68 17.83,77.68 17.83,77.68 17.91,79.06 17.91,79.22 17.91,79.38 18.16,80.36 18.16,80.36 18.16,80.36 17.67,82.14 17.67,82.14 17.67,82.14 17.75,84.17 17.75,84.25 17.75,84.33 18.08,85.96 18.08,86.04 18.08,86.12 19.30,87.09 19.39,87.09 19.47,87.09 20.29,87.99 20.29,87.99 20.29,87.99 19.88,88.80 19.79,88.96 19.71,89.12 19.22,89.61 19.22,89.61 19.22,89.61 19.14,90.75 19.14,90.75 19.14,90.75 19.96,91.56 19.96,91.56 19.96,91.56 20.12,92.69 20.04,92.94 19.96,93.18 19.79,93.83 19.79,93.91 19.79,93.99 19.63,95.29 19.63,95.29 19.63,95.29 18.90,96.43 18.73,96.43 18.57,96.43 18.73,97.32 18.73,97.32 18.73,97.32 19.14,98.46 19.22,98.46 19.30,98.46 20.61,98.78 20.61,98.78 20.61,98.78 22.58,98.78 22.58,98.78 22.58,98.78 24.13,98.46 24.13,98.46 24.13,98.46 24.13,97.08 24.13,97.00 24.13,96.92 24.46,95.21 24.46,95.05 24.46,94.89 24.54,93.43 24.54,93.43 24.54,93.43 24.70,91.48 24.70,91.23 24.70,90.99 25.11,90.75 25.11,90.75 25.11,90.75 25.19,89.77 25.19,89.77 25.19,89.77 25.28,87.91 25.19,87.91 25.11,87.91 25.19,86.69 25.19,86.69 25.19,86.69 26.34,85.88 26.34,85.88 26.34,85.88 26.18,84.25 26.09,84.17 26.01,84.09 25.68,82.63 25.68,82.55 25.68,82.47 26.01,81.41 26.01,81.33 26.01,81.25 25.85,79.63 25.85,79.63 25.85,79.63 25.77,78.57 25.77,78.57 25.77,78.57 25.28,76.30 25.28,76.30 25.28,76.30 25.85,75.24 25.85,75.16 25.85,75.08 26.58,73.78 26.58,73.78 26.58,73.78 26.67,70.70 26.67,70.70 26.67,70.70 26.83,67.05 26.83,67.05 26.83,67.05 27.24,69.24 27.24,69.24 27.24,69.24 27.16,72.48 27.16,72.48 27.16,72.48 27.40,73.86 27.40,73.94 27.40,74.03 28.06,74.84 28.14,74.84 28.22,74.84 28.14,75.73 28.22,75.89 28.30,76.06 27.73,77.03 27.73,77.19 27.73,77.35 27.73,78.00 27.81,78.08 27.89,78.17 27.65,80.19 27.65,80.19 27.65,80.19 26.99,81.57 26.99,81.57 26.99,81.57 27.48,82.55 27.48,82.63 27.48,82.71 27.89,84.09 27.89,84.17 27.89,84.25 27.65,86.04 27.07,86.28 26.91,86.36 26.91,87.58 26.83,87.66 26.75,87.74 26.58,89.61 26.58,89.61 26.58,89.61 26.91,91.23 26.91,91.31 26.91,91.40 27.97,92.53 27.97,92.61 27.97,92.69 28.87,93.91 28.87,93.99 28.87,94.07 29.37,95.45 29.37,95.45 29.37,95.45 30.51,96.10 30.51,96.10 30.51,96.10 33.37,96.19 33.37,96.19 33.37,96.19 35.42,96.10 35.42,96.10 35.42,96.10 35.50,95.37 35.50,95.37 35.50,95.37 35.91,94.24 35.99,94.24 36.07,94.24 35.25,93.34 35.25,93.34 35.25,93.34 34.27,92.13 34.19,92.05 34.11,91.96 33.37,90.58 33.37,90.50 33.37,90.42 32.64,89.12 32.64,89.04 32.64,88.96 32.88,88.31 32.88,88.23 32.88,88.15 32.88,87.18 32.88,87.09 32.88,87.01 33.29,85.63 33.29,85.55 33.29,85.47 33.46,84.33 33.46,84.33 33.46,84.33 35.01,83.60 35.01,83.60 35.01,83.60 35.50,82.31 35.50,82.31 35.50,82.31 35.01,79.71 35.01,79.71 35.01,79.71 35.75,78.98 35.75,78.98 35.75,78.98 35.99,77.84 36.07,77.84 36.15,77.84 35.99,75.73 35.99,75.73 35.99,75.73 36.32,72.40 36.32,72.40 36.32,72.40 36.24,71.10 36.24,71.10 36.24,71.10 36.65,69.40 36.65,69.32 36.65,69.24 37.46,68.59 37.46,68.59 37.46,68.59 38.36,66.48 38.36,66.48 38.36,66.48 37.95,65.10 37.87,65.10 37.79,65.10 37.87,61.36 37.79,61.28 37.71,61.20 37.79,58.69 37.79,58.69 37.79,58.69 37.71,54.30 37.71,54.30 37.71,54.30 38.04,51.14 38.04,51.22 38.04,51.30 38.77,52.11 38.77,52.11 38.77,52.11 39.75,52.27 39.75,52.27 39.75,52.27 40.73,52.27 40.73,52.27 40.73,52.27 42.04,52.19 42.04,52.19 42.04,52.19 42.94,51.95 42.94,51.95 42.94,51.95 43.76,51.22 43.76,51.22 43.76,51.22 44.09,50.16 44.09,50.16 44.09,50.16 45.56,49.84 45.56,49.84 45.56,49.84 47.28,49.68 47.28,49.68 47.28,49.68 50.71,49.27 50.71,49.27 50.71,49.27 51.94,49.11 51.94,49.11 51.94,49.11 54.31,48.86 54.31,48.86 54.31,48.86 57.59,48.78 57.59,48.78 57.59,48.78 60.28,48.38 60.28,48.38 60.28,48.38 62.41,48.30 62.41,48.30 62.41,48.30 63.47,48.46 63.47,48.46 63.47,48.46 65.27,48.30 65.27,48.21 65.27,48.13 65.93,47.56 65.93,47.56 65.93,47.56 68.71,47.00 68.71,47.00 68.71,47.00 68.63,45.94 68.63,45.94 68.63,45.94 67.89,46.02 67.89,46.02 67.89,46.02 66.66,45.62 66.58,45.62 66.50,45.62 66.42,44.72 66.42,44.72 66.42,44.72 65.44,44.89 65.44,44.89 65.44,44.89 65.44,45.86 65.44,45.86 65.44,45.86 62.57,46.02 62.33,46.02 62.08,46.02 58.40,46.19 58.40,46.19 58.40,46.19 54.72,46.27 54.72,46.27 54.72,46.27 51.12,46.43 51.12,46.43 51.12,46.43 48.59,46.27 48.59,46.27 48.59,46.27 43.93,46.19 43.93,46.19 43.93,46.19 44.01,45.29 44.01,45.29 44.01,45.29 43.84,44.07 43.84,43.99 43.84,43.91 43.76,42.45 43.76,42.37 43.76,42.29 43.76,41.23 43.76,41.23 43.76,41.23 43.76,40.34 43.76,40.18 43.76,40.02 43.68,39.12 43.68,39.04 43.68,38.96 43.43,38.07 43.43,37.99 43.43,37.91 43.43,36.93 43.43,36.93 43.43,36.93 43.27,35.80 43.27,35.80 43.27,35.80 43.11,34.42 43.11,34.33 43.11,34.25 43.19,32.63 43.19,32.63 43.19,32.63 42.78,30.76 42.70,30.76 42.62,30.76 42.70,29.46 42.70,29.46 42.70,29.46 42.13,28.25 42.13,28.25 42.13,28.25 41.55,26.46 41.55,26.46 41.55,26.46 41.55,24.76 41.55,24.76 41.55,24.76 41.55,23.21 41.47,23.13 41.39,23.05 41.23,21.67 41.23,21.59 41.23,21.51 40.65,20.62 40.57,20.54 40.49,20.45 39.51,19.64 39.51,19.64 39.51,19.64 37.95,18.91 37.87,18.83 37.79,18.75 36.73,18.59 36.48,18.51 36.24,18.43 35.09,18.10 35.01,18.10 34.93,18.10 33.70,17.53 33.70,17.53 33.70,17.53 32.72,16.80 32.72,16.80 32.72,16.80 31.74,15.83 31.57,15.67 31.41,15.50 30.84,15.34 30.76,15.34 30.67,15.34 29.94,15.02 29.94,15.02 29.94,15.02 30.43,13.80 30.43,13.64 30.43,13.47 30.92,12.50 30.92,12.50 30.92,12.50 31.33,10.39 31.33,10.39 31.33,10.39 31.74,9.01 31.74,9.01 31.74,9.01 32.15,8.69 32.23,8.60 32.31,8.52 33.70,8.20 33.70,8.20 33.70,8.20 34.35,7.31 34.35,7.31 34.35,7.31 34.44,6.41 34.44,6.41 34.44,6.41 33.29,6.01 33.21,5.93 33.13,5.84 31.74,5.76 31.74,5.76 31.74,5.76 31.33,5.03 31.33,5.03 31.33,5.03 30.51,4.22 30.51,4.22 30.51,4.22 29.94,3.33 29.86,3.25 29.77,3.17 28.87,2.35 28.87,2.35 28.87,2.35 27.65,1.87 27.48,1.87 27.32,1.87 26.26,2.03 26.18,2.03 26.09,2.03 24.78,2.44 24.78,2.44 24.78,2.44 23.23,3.08 23.23,3.08 23.23,3.08 22.25,4.14 22.25,4.22 22.25,4.30 21.59,5.36 21.59,5.36 21.59,5.36 20.94,7.14 20.94,7.14" />
</svg>
