<?xml version="1.0" encoding="UTF-8" standalone="no"?>
<!DOCTYPE svg PUBLIC "-//W3C//DTD SVG 20010904//EN"
              "http://www.w3.org/TR/2001/REC-SVG-20010904/DTD/svg10.dtd">

<svg xmlns="http://www.w3.org/2000/svg"
     width="0.611111in" height="0.902778in"
     viewBox="0 0 44 75">


     <defs>
     <linearGradient id="ru_color" x1="0%" y1="0%" x2="100%" y2="0%">
     <stop offset="0%" style="stop-color:rgb(125,80,80);stop-opacity:1" />
     <stop offset="100%" style="stop-color:rgb(60,40,0);stop-opacity:1" />
     </linearGradient>
     </defs>
  <path id="infantry_ru"
        fill="url(#ru_color)" stroke="black" stroke-width="1"
        d="M 18.47,4.67 C 18.47,4.67 18.16,5.74 18.16,5.74 18.16,5.74 17.99,6.58 17.99,6.58 17.99,6.58 17.81,7.21 17.81,7.21 17.81,7.21 18.04,7.64 18.04,7.64 18.04,7.64 18.42,7.92 18.42,7.92 18.42,7.92 18.98,8.13 18.98,8.13 18.98,8.13 19.48,8.23 19.48,8.23 19.48,8.23 19.54,8.48 19.54,8.48 19.54,8.48 19.64,9.06 19.64,9.06 19.64,9.06 19.89,9.57 19.89,9.57 19.89,9.57 19.79,10.23 19.79,10.23 19.79,10.23 19.69,10.41 19.69,10.41 19.69,10.41 19.15,11.02 19.15,11.02 19.15,11.02 18.82,11.27 18.82,11.27 18.82,11.27 18.44,11.45 18.44,11.48 18.44,11.50 17.81,11.76 17.81,11.76 17.81,11.76 17.35,11.73 17.35,11.73 17.35,11.73 16.82,11.73 16.82,11.73 16.82,11.73 16.28,11.81 16.28,11.81 16.28,11.81 15.88,11.93 15.85,11.93 15.83,11.93 15.47,12.24 15.47,12.24 15.47,12.24 14.84,12.59 14.84,12.59 14.84,12.59 14.25,13.00 14.25,13.00 14.25,13.00 13.67,13.38 13.67,13.38 13.67,13.38 13.01,13.89 13.01,13.89 13.01,13.89 12.55,14.45 12.55,14.45 12.55,14.45 12.14,15.06 12.14,15.06 12.14,15.06 11.51,15.95 11.51,15.95 11.51,15.95 11.03,16.61 11.03,16.61 11.03,16.61 10.77,16.66 10.77,16.66 10.77,16.66 10.57,17.04 10.57,17.04 10.57,17.04 9.93,18.13 9.91,18.18 9.88,18.23 9.63,18.41 9.58,18.51 9.53,18.61 9.12,19.07 9.12,19.07 9.12,19.07 8.64,19.88 8.64,19.88 8.64,19.88 8.21,20.26 8.21,20.26 8.21,20.26 7.93,20.69 7.93,20.69 7.93,20.69 7.72,21.30 7.72,21.30 7.72,21.30 7.72,22.01 7.72,22.01 7.72,22.01 7.80,22.60 7.80,22.60 7.80,22.60 7.80,23.21 7.80,23.21 7.80,23.21 7.93,23.59 7.93,23.59 7.93,23.59 8.43,24.12 8.43,24.12 8.43,24.12 9.09,24.43 9.09,24.43 9.09,24.43 9.70,24.68 9.70,24.68 9.70,24.68 10.19,24.91 10.19,24.91 10.19,24.91 11.15,25.34 11.15,25.34 11.15,25.34 11.43,25.54 11.43,25.54 11.43,25.54 12.22,25.72 12.22,25.72 12.22,25.72 12.88,25.85 12.88,25.85 12.88,25.85 13.41,25.95 13.41,25.95 13.41,25.95 13.87,25.90 13.87,25.90 13.87,25.90 14.33,25.95 14.33,25.95 14.33,25.95 14.25,26.20 14.25,26.20 14.25,26.20 13.64,26.71 13.64,26.71 13.64,26.71 12.70,27.40 12.70,27.40 12.70,27.40 10.85,28.74 10.85,28.74 10.85,28.74 9.96,29.30 9.96,29.30 9.96,29.30 8.64,30.24 8.64,30.24 8.64,30.24 8.97,30.57 8.97,30.57 8.97,30.57 9.40,31.10 9.40,31.10 9.40,31.10 9.78,31.59 9.78,31.59 9.78,31.59 10.01,31.92 10.01,31.92 10.01,31.92 10.54,32.73 10.54,32.73 10.54,32.73 11.08,34.13 11.08,34.13 11.08,34.13 11.43,34.02 11.43,34.02 11.43,34.02 12.27,33.52 12.27,33.52 12.27,33.52 12.58,33.24 12.58,33.24 12.58,33.24 13.16,32.93 13.16,32.93 13.16,32.93 13.67,32.35 13.67,32.35 13.67,32.35 13.95,32.50 13.95,32.50 13.95,32.50 13.95,32.88 13.95,32.88 13.95,32.88 13.85,33.54 13.85,33.54 13.85,33.54 13.62,33.97 13.62,33.97 13.62,33.97 13.21,35.19 13.21,35.19 13.21,35.19 13.03,36.11 13.03,36.11 13.03,36.11 13.08,36.54 13.08,36.54 13.08,36.54 13.06,37.10 13.06,37.10 13.06,37.10 13.06,37.58 13.06,37.58 13.06,37.58 13.01,38.24 13.01,38.24 13.01,38.24 12.98,38.92 12.98,38.92 12.98,38.92 13.08,39.81 13.08,39.81 13.08,39.81 12.63,40.19 12.63,40.19 12.63,40.19 12.22,40.57 12.22,40.57 12.22,40.57 11.99,41.06 11.97,41.06 11.94,41.06 11.84,41.69 11.84,41.69 11.84,41.69 11.79,42.28 11.79,42.28 11.79,42.28 11.94,42.68 11.94,42.68 11.94,42.68 12.19,43.44 12.19,43.44 12.19,43.44 12.65,43.88 12.65,43.88 12.65,43.88 13.03,44.03 13.03,44.03 13.03,44.03 13.59,44.13 13.59,44.13 13.59,44.13 14.02,44.26 14.02,44.26 14.02,44.26 14.28,44.54 14.28,44.54 14.28,44.54 14.38,45.07 14.38,45.07 14.38,45.07 14.30,45.88 14.30,45.88 14.30,45.88 14.30,47.02 14.30,47.02 14.30,47.02 14.10,47.07 14.10,47.07 14.10,47.07 13.85,47.73 13.85,47.73 13.85,47.73 13.77,48.17 13.77,48.17 13.77,48.17 13.77,48.72 13.77,48.72 13.77,48.72 13.85,49.28 13.85,49.28 13.85,49.28 14.05,49.89 14.05,49.89 14.05,49.89 13.97,50.98 13.97,50.98 13.97,50.98 14.02,51.67 14.02,51.67 14.02,51.67 14.07,52.71 14.07,52.71 14.07,52.71 14.12,53.90 14.12,53.90 14.12,53.90 14.12,54.87 14.12,54.87 14.12,54.87 14.25,55.94 14.25,55.94 14.25,55.94 14.38,56.62 14.38,56.62 14.38,56.62 14.63,57.08 14.63,57.08 14.63,57.08 14.63,57.56 14.63,57.56 14.63,57.56 14.43,57.89 14.43,57.89 14.43,57.89 14.33,58.58 14.33,58.58 14.33,58.58 14.00,59.41 14.00,59.41 14.00,59.41 13.49,60.20 13.49,60.20 13.49,60.20 13.01,60.76 13.01,60.76 13.01,60.76 12.50,61.14 12.50,61.14 12.50,61.14 12.14,61.57 12.14,61.57 12.14,61.57 11.76,62.05 11.76,62.05 11.76,62.05 11.58,62.46 11.58,62.46 11.58,62.46 11.48,63.15 11.48,63.15 11.48,63.15 11.58,63.86 11.58,63.86 11.58,63.86 11.64,64.11 11.64,64.11 11.64,64.11 12.07,64.39 12.07,64.39 12.07,64.39 12.55,64.57 12.55,64.57 12.55,64.57 13.01,64.70 13.01,64.70 13.01,64.70 13.39,64.67 13.39,64.67 13.39,64.67 14.02,64.57 14.02,64.57 14.02,64.57 14.35,64.47 14.35,64.47 14.35,64.47 14.99,63.93 14.99,63.93 14.99,63.93 15.34,63.68 15.34,63.68 15.34,63.68 15.78,62.82 15.78,62.82 15.78,62.82 16.13,62.00 16.13,62.00 16.13,62.00 16.67,61.88 16.67,61.88 16.67,61.88 17.17,61.52 17.17,61.52 17.17,61.52 17.43,61.01 17.43,60.99 17.43,60.96 17.55,60.56 17.55,60.53 17.55,60.51 17.63,59.97 17.63,59.97 17.63,59.97 17.66,59.19 17.66,59.19 17.66,59.19 17.71,58.80 17.71,58.80 17.71,58.80 17.99,58.35 17.99,58.35 17.99,58.35 18.09,57.74 18.09,57.74 18.09,57.74 17.99,57.08 17.99,57.08 17.99,57.08 17.83,56.75 17.83,56.72 17.83,56.70 17.71,56.39 17.71,56.39 17.71,56.39 17.99,55.55 17.99,55.55 17.99,55.55 18.24,54.74 18.24,54.74 18.24,54.74 18.62,53.93 18.62,53.93 18.62,53.93 18.75,53.19 18.75,53.19 18.75,53.19 18.80,52.18 18.80,52.18 18.80,52.18 18.95,51.31 18.95,51.31 18.95,51.31 19.69,50.73 19.69,50.73 19.69,50.73 19.94,50.27 19.94,50.27 19.94,50.27 20.04,49.79 20.04,49.79 20.04,49.79 20.04,49.18 20.04,49.18 20.04,49.18 20.04,48.75 20.04,48.75 20.04,48.75 20.25,48.24 20.25,48.24 20.25,48.24 20.25,47.46 20.25,47.46 20.25,47.46 20.35,46.90 20.35,46.90 20.35,46.90 20.42,46.24 20.42,46.24 20.42,46.24 20.63,45.63 20.63,45.63 20.63,45.63 20.93,44.74 20.93,44.74 20.93,44.74 21.06,44.15 21.06,44.15 21.06,44.15 21.11,43.70 21.11,43.70 21.11,43.70 21.11,43.01 21.11,43.01 21.11,43.01 21.36,42.76 21.36,42.76 21.36,42.76 21.82,42.33 21.82,42.33 21.82,42.33 21.95,42.76 21.95,42.76 21.95,42.76 22.25,43.65 22.25,43.65 22.25,43.65 22.56,44.56 22.56,44.56 22.56,44.56 22.79,45.30 22.79,45.30 22.79,45.30 23.22,45.42 23.22,45.42 23.22,45.42 23.50,45.78 23.50,45.78 23.50,45.78 23.65,47.18 23.65,47.18 23.65,47.18 23.63,47.89 23.63,47.89 23.63,47.89 23.80,48.88 23.80,48.88 23.80,48.88 23.80,49.92 23.80,49.92 23.80,49.92 23.58,50.50 23.58,50.50 23.58,50.50 24.01,50.86 24.01,50.86 24.01,50.86 24.26,51.21 24.26,51.21 24.26,51.21 24.62,51.82 24.62,51.82 24.62,51.82 24.69,52.18 24.69,52.18 24.69,52.18 24.92,52.69 24.92,52.69 24.92,52.69 25.12,53.40 25.12,53.40 25.12,53.40 25.38,54.16 25.38,54.16 25.38,54.16 25.66,54.64 25.66,54.64 25.66,54.64 25.94,55.25 25.94,55.25 25.94,55.25 26.01,55.78 26.01,55.78 26.01,55.78 25.96,56.21 25.96,56.21 25.96,56.21 25.81,56.85 25.81,56.85 25.81,56.85 25.63,57.59 25.63,57.59 25.63,57.59 25.91,58.17 25.91,58.17 25.91,58.17 26.32,58.58 26.32,58.58 26.32,58.58 26.34,58.86 26.34,58.86 26.34,58.86 26.14,59.36 26.14,59.36 26.14,59.36 26.01,61.14 26.01,61.14 26.01,61.14 26.29,61.37 26.29,61.37 26.29,61.37 26.95,61.72 26.95,61.72 26.95,61.72 27.51,61.80 27.51,61.80 27.51,61.80 27.97,61.78 27.97,61.78 27.97,61.78 28.61,62.03 28.61,62.03 28.61,62.03 28.99,62.61 28.99,62.61 28.99,62.61 29.34,63.48 29.34,63.48 29.34,63.48 29.90,63.91 29.90,63.91 29.90,63.91 30.66,64.31 30.66,64.31 30.66,64.31 31.45,64.47 31.45,64.47 31.45,64.47 32.03,64.52 32.03,64.52 32.03,64.52 32.97,64.19 32.97,64.19 32.97,64.19 33.36,63.86 33.36,63.86 33.36,63.86 33.20,63.15 33.20,63.15 33.20,63.15 32.85,62.21 32.85,62.21 32.85,62.21 32.16,61.47 32.16,61.47 32.16,61.47 31.48,60.81 31.48,60.81 31.48,60.81 31.07,60.40 31.07,60.40 31.07,60.40 30.59,59.82 30.59,59.82 30.59,59.82 30.21,59.26 30.21,59.26 30.21,59.26 29.95,58.04 29.95,58.04 29.95,58.04 29.90,57.38 29.90,57.38 29.90,57.38 29.67,56.37 29.67,56.37 29.67,56.37 29.60,55.30 29.60,55.30 29.60,55.30 29.55,54.03 29.55,54.03 29.55,54.03 29.57,52.53 29.57,52.53 29.57,52.53 29.52,51.67 29.52,51.67 29.52,51.67 29.82,50.93 29.82,50.93 29.82,50.93 30.00,50.32 30.00,50.32 30.00,50.32 29.90,49.92 29.90,49.92 29.90,49.92 29.82,49.18 29.82,49.18 29.82,49.18 29.55,48.95 29.55,48.95 29.55,48.95 29.44,48.22 29.44,48.22 29.44,48.22 29.37,47.25 29.37,47.25 29.37,47.25 29.21,46.74 29.21,46.74 29.21,46.74 28.96,46.03 28.96,46.03 28.96,46.03 28.99,45.35 28.99,45.35 28.99,45.35 29.16,44.87 29.16,44.87 29.16,44.87 29.34,44.26 29.34,44.26 29.34,44.26 29.60,43.52 29.60,43.52 29.60,43.52 30.13,43.27 30.13,43.27 30.13,43.27 30.79,42.88 30.79,42.88 30.79,42.88 31.09,42.45 31.09,42.45 31.09,42.45 31.15,41.72 31.15,41.72 31.15,41.72 30.99,40.78 30.99,40.75 30.99,40.73 30.74,39.81 30.74,39.81 30.74,39.81 30.36,38.59 30.36,38.59 30.36,38.59 30.13,37.83 30.13,37.81 30.13,37.78 29.93,36.97 29.93,36.97 29.93,36.97 29.77,35.98 29.77,35.98 29.77,35.98 30.13,35.65 30.13,35.65 30.13,35.65 30.56,35.34 30.56,35.34 30.56,35.34 30.48,34.58 30.48,34.58 30.48,34.58 30.38,33.82 30.38,33.82 30.38,33.82 30.15,32.70 30.15,32.70 30.15,32.70 30.13,32.12 30.13,32.12 30.13,32.12 30.31,31.21 30.31,31.21 30.31,31.21 30.64,31.03 30.64,31.03 30.64,31.03 30.84,30.37 30.84,30.37 30.84,30.37 30.48,29.83 30.48,29.83 30.48,29.83 30.46,29.12 30.46,29.12 30.46,29.12 30.43,28.54 30.43,28.54 30.43,28.54 30.38,27.68 30.38,27.68 30.38,27.68 30.51,26.79 30.51,26.76 30.51,26.74 30.89,26.63 30.89,26.63 30.89,26.63 31.42,26.33 31.42,26.33 31.42,26.33 31.76,26.10 31.76,26.10 31.76,26.10 31.86,25.67 31.86,25.67 31.86,25.67 32.16,24.78 32.16,24.78 32.16,24.78 31.98,24.20 31.98,24.20 31.98,24.20 32.09,23.44 32.09,23.44 32.09,23.44 31.88,23.00 31.88,23.00 31.88,23.00 31.48,22.42 31.48,22.42 31.48,22.42 31.50,21.84 31.50,21.84 31.50,21.84 31.30,21.51 31.30,21.51 31.30,21.51 31.37,20.82 31.37,20.82 31.37,20.82 31.20,19.53 31.20,19.53 31.20,19.53 30.89,19.20 30.89,19.20 30.89,19.20 30.79,18.51 30.79,18.51 30.79,18.51 30.82,17.24 30.82,17.24 30.82,17.24 31.22,17.11 31.22,17.11 31.22,17.11 31.65,16.83 31.65,16.83 31.65,16.83 31.81,16.25 31.81,16.25 31.81,16.25 34.96,14.55 34.96,14.55 34.96,14.55 35.52,14.09 35.52,14.09 35.52,14.09 35.79,13.81 35.79,13.81 35.79,13.81 35.79,13.25 35.79,13.25 35.79,13.25 35.77,12.97 35.77,12.97 35.77,12.97 35.46,12.72 35.46,12.72 35.46,12.72 33.84,13.53 33.84,13.53 33.84,13.53 32.95,13.10 32.95,13.10 32.95,13.10 32.26,13.56 32.26,13.56 32.26,13.56 32.52,14.22 32.52,14.22 32.52,14.22 30.69,15.36 30.69,15.36 30.69,15.36 30.46,15.18 30.46,15.18 30.46,15.18 30.10,14.73 30.10,14.73 30.10,14.73 29.77,14.27 29.77,14.27 29.77,14.27 29.27,13.56 29.27,13.56 29.27,13.56 28.91,12.92 28.91,12.92 28.91,12.92 28.45,12.44 28.45,12.44 28.45,12.44 28.12,11.98 28.10,11.98 28.07,11.98 27.46,11.32 27.44,11.30 27.41,11.27 26.85,10.77 26.85,10.77 26.85,10.77 25.99,10.41 25.99,10.41 25.99,10.41 25.10,9.98 25.10,9.98 25.10,9.98 25.28,9.45 25.28,9.45 25.28,9.45 25.53,8.99 25.53,8.99 25.53,8.99 25.79,8.07 25.79,8.07 25.79,8.07 26.01,7.69 26.01,7.69 26.01,7.69 26.42,7.64 26.42,7.64 26.42,7.64 26.83,7.41 26.83,7.41 26.83,7.41 27.16,6.96 27.16,6.96 27.16,6.96 27.26,6.32 27.26,6.32 27.26,6.32 27.08,5.81 27.08,5.81 27.08,5.81 26.80,5.36 26.75,5.36 26.70,5.36 26.52,4.93 26.52,4.93 26.52,4.93 26.19,4.32 26.19,4.32 26.19,4.32 26.04,3.83 26.04,3.81 26.04,3.78 25.68,3.38 25.68,3.38 25.68,3.38 25.48,2.87 25.48,2.87 25.48,2.87 25.12,2.34 25.12,2.34 25.12,2.34 24.59,1.85 24.54,1.80 24.49,1.75 23.96,1.57 23.93,1.57 23.91,1.57 23.14,1.32 23.12,1.32 23.09,1.32 22.28,1.29 22.25,1.29 22.23,1.29 21.34,1.35 21.34,1.35 21.34,1.35 20.55,1.65 20.53,1.65 20.50,1.65 19.84,2.13 19.84,2.13 19.84,2.13 19.31,2.87 19.31,2.87 19.31,2.87 18.90,3.68 18.90,3.68 18.90,3.68 18.44,4.67 18.44,4.67" />
</svg>
