<?xml version="1.0" encoding="UTF-8" standalone="no"?>
<!DOCTYPE svg PUBLIC "-//W3C//DTD SVG 20010904//EN"
              "http://www.w3.org/TR/2001/REC-SVG-20010904/DTD/svg10.dtd">

<svg xmlns="http://www.w3.org/2000/svg"     
     viewBox="0 0 71 100">
     <defs>
     <linearGradient id="de_color" x1="0%" y1="0%" x2="100%" y2="0%">
       <stop offset="0%" style="stop-color:rgb(80,80,80);stop-opacity:1" />
       <stop offset="100%" style="stop-color:rgb(200,200,200);stop-opacity:1" />
     </linearGradient>
     </defs>
  <path id="Infantry"
        fill="url(#de_color)" stroke="black" stroke-width="1"
        d="M 28.00,15.25
           C 28.00,15.25 28.12,11.62 28.12,11.62
             28.12,11.62 29.25,10.25 29.25,10.25
             29.25,10.25 30.12,9.00 30.12,9.00
             30.12,9.00 31.12,8.12 31.12,8.12
             31.12,8.12 32.00,7.62 32.00,7.62
             32.00,7.62 34.75,7.62 34.75,7.62
             34.75,7.62 36.12,8.25 36.12,8.25
             36.12,8.25 37.62,9.88 37.62,9.88
             37.62,9.88 38.62,11.25 38.75,11.25
             38.88,11.25 39.88,12.88 39.88,12.88
             39.88,12.88 40.00,14.25 40.00,14.25
             40.00,14.25 38.88,15.00 38.88,15.00
             38.88,15.00 38.62,17.88 38.62,17.88
             38.62,17.88 37.62,19.00 37.62,19.00
             37.62,19.00 38.00,20.12 38.00,20.12
             38.00,20.12 37.25,21.00 37.25,21.00
             37.25,21.00 36.38,21.75 36.38,21.75
             36.38,21.75 37.25,22.62 37.25,22.62
             37.25,22.62 38.38,23.25 38.38,23.25
             38.38,23.25 40.38,24.12 40.38,24.12
             40.38,24.12 41.50,24.62 41.50,24.62
             41.50,24.62 42.62,26.62 42.62,26.62
             42.62,26.62 43.62,28.62 43.62,28.62
             43.62,28.62 44.25,31.00 44.25,31.00
             44.25,31.00 44.62,33.62 44.62,33.62
             44.62,33.62 45.38,34.75 45.38,34.75
             45.38,34.75 45.38,39.75 45.38,39.75
             45.38,39.75 45.25,42.25 45.25,42.25
             45.25,42.25 45.88,44.12 45.88,44.12
             45.88,44.12 46.38,45.62 46.38,45.62
             46.38,45.62 47.62,46.00 47.62,46.00
             47.62,46.00 48.00,47.25 48.00,47.25
             48.00,47.25 49.00,48.50 49.00,48.50
             49.00,48.50 49.88,49.62 49.88,49.62
             49.88,49.62 52.62,51.50 52.62,51.50
             52.62,51.50 55.50,53.50 55.50,53.50
             55.50,53.50 57.88,55.00 57.88,55.00
             57.88,55.00 59.62,56.00 59.62,56.00
             59.62,56.00 60.00,56.75 60.00,56.75
             60.00,56.75 59.38,57.75 59.38,57.75
             59.38,57.75 56.62,56.25 56.62,56.25
             56.62,56.25 53.62,54.38 53.62,54.38
             53.62,54.38 51.88,53.50 51.88,53.50
             51.88,53.50 50.12,52.75 50.12,52.62
             50.12,52.50 48.50,51.62 48.50,51.62
             48.50,51.62 47.50,51.88 47.38,51.88
             47.25,51.88 46.38,52.25 46.38,52.25
             46.38,52.25 45.50,51.50 45.50,51.50
             45.50,51.50 44.50,50.50 44.50,50.50
             44.50,50.50 43.75,49.62 43.75,49.62
             43.75,49.62 43.25,50.62 43.12,50.62
             43.00,50.62 43.25,52.62 43.25,52.62
             43.25,52.62 41.88,53.75 41.88,53.88
             41.88,54.00 42.25,55.75 42.25,55.75
             42.25,55.75 42.62,58.00 42.62,58.00
             42.62,58.00 43.38,60.75 43.38,60.75
             43.38,60.75 44.12,62.62 44.12,62.62
             44.12,62.62 45.50,64.25 45.50,64.25
             45.50,64.25 45.38,67.25 45.38,67.25
             45.38,67.25 45.00,68.88 45.00,68.88
             45.00,68.88 44.50,70.75 44.50,70.75
             44.50,70.75 44.38,72.38 44.38,72.38
             44.38,72.38 42.75,74.38 42.75,74.38
             42.75,74.38 41.50,76.88 41.50,76.88
             41.50,76.88 40.75,79.12 40.75,79.25
             40.75,79.38 39.88,81.50 39.88,81.50
             39.88,81.50 38.75,83.75 38.75,83.75
             38.75,83.75 39.50,85.12 39.50,85.12
             39.50,85.12 41.38,85.75 41.38,85.75
             41.38,85.75 43.25,86.50 43.25,86.50
             43.25,86.50 45.62,87.25 45.62,87.38
             45.62,87.50 46.62,88.38 46.62,88.38
             46.62,88.38 46.00,89.38 46.00,89.38
             46.00,89.38 40.25,89.38 40.25,89.38
             40.25,89.38 38.25,88.50 38.25,88.50
             38.25,88.50 35.12,88.50 35.12,88.50
             35.12,88.50 34.25,87.12 34.25,87.12
             34.25,87.12 34.38,84.50 34.38,84.50
             34.38,84.50 35.38,83.38 35.38,83.38
             35.38,83.38 35.25,80.62 35.25,80.62
             35.25,80.62 35.25,76.62 35.25,76.62
             35.25,76.62 35.25,74.38 35.25,74.38
             35.25,74.38 36.25,73.62 36.25,73.62
             36.25,73.62 36.12,72.12 36.12,72.12
             36.12,72.12 35.50,71.38 35.50,71.38
             35.50,71.38 35.38,69.12 35.38,69.12
             35.38,69.12 36.62,68.00 36.62,68.00
             36.62,68.00 36.62,66.12 36.62,66.00
             36.62,65.88 36.25,63.88 36.25,63.88
             36.25,63.88 35.00,62.88 35.00,62.88
             35.00,62.88 34.38,63.12 34.12,63.12
             33.88,63.12 33.38,63.88 33.38,64.00
             33.38,64.12 32.50,66.88 32.50,66.88
             32.50,66.88 32.62,69.00 32.62,69.00
             32.62,69.00 32.50,70.88 32.50,71.00
             32.50,71.12 31.50,73.62 31.50,73.62
             31.50,73.62 31.12,77.12 31.12,77.12
             31.12,77.12 31.12,81.12 31.12,81.12
             31.12,81.12 31.25,84.88 31.12,84.88
             31.00,84.88 31.75,87.50 31.75,87.50
             31.75,87.50 34.00,89.38 34.00,89.38
             34.00,89.38 35.62,90.38 35.62,90.38
             35.62,90.38 35.38,91.88 35.38,91.88
             35.38,91.88 34.25,92.62 34.25,92.62
             34.25,92.62 30.62,92.75 30.62,92.75
             30.62,92.75 28.50,91.38 28.50,91.38
             28.50,91.38 26.62,90.38 26.62,90.38
             26.62,90.38 25.88,88.75 25.88,88.75
             25.88,88.75 26.25,85.25 26.25,85.25
             26.25,85.25 26.12,81.62 26.12,81.62
             26.12,81.62 25.38,80.12 25.38,80.12
             25.38,80.12 24.50,77.62 24.50,77.62
             24.50,77.62 24.38,74.75 24.38,74.75
             24.38,74.75 23.38,73.62 23.38,73.62
             23.38,73.62 22.88,72.25 22.88,72.25
             22.88,72.25 22.88,67.75 22.88,67.75
             22.88,67.75 22.12,66.50 22.12,66.50
             22.12,66.50 22.50,64.38 22.50,64.38
             22.50,64.38 23.12,63.12 23.12,63.12
             23.12,63.12 22.75,59.25 22.75,59.25
             22.75,59.25 22.25,55.75 22.25,55.75
             22.25,55.75 21.62,54.25 21.62,54.25
             21.62,54.25 19.88,54.12 19.88,54.12
             19.88,54.12 19.00,55.12 19.00,55.12
             19.00,55.12 17.25,55.50 17.25,55.50
             17.25,55.50 15.12,55.25 15.12,55.25
             15.12,55.25 13.25,54.25 13.25,54.25
             13.25,54.25 11.38,52.38 11.38,52.38
             11.38,52.38 11.50,49.12 11.50,49.12
             11.50,49.12 12.50,48.50 12.50,48.50
             12.50,48.50 13.62,47.12 13.62,47.12
             13.62,47.12 14.75,44.75 14.75,44.75
             14.75,44.75 15.00,43.00 15.00,43.00
             15.00,43.00 17.00,42.12 17.12,42.12
             17.25,42.12 19.88,41.75 19.88,41.75
             19.88,41.75 20.12,40.50 20.12,40.50
             20.12,40.50 19.00,39.00 19.00,39.00
             19.00,39.00 17.12,38.12 17.12,38.12
             17.12,38.12 14.62,36.25 14.62,36.25
             14.62,36.25 14.38,33.50 14.38,33.50
             14.38,33.50 15.38,32.50 15.38,32.50
             15.38,32.50 17.25,29.38 17.25,29.38
             17.25,29.38 18.88,27.38 18.88,27.38
             18.88,27.38 20.25,24.38 20.25,24.38
             20.25,24.38 21.62,23.25 21.62,23.25
             21.62,23.25 23.00,21.88 23.00,21.88
             23.00,21.88 25.88,21.62 25.88,21.50
             25.88,21.38 27.62,21.12 27.62,21.12
             27.62,21.12 28.88,20.62 28.88,20.62
             28.88,20.62 29.50,18.88 29.50,18.88
             29.50,18.88 28.12,18.25 28.12,18.25
             28.12,18.25 28.00,15.25 28.00,15.25" />
</svg>
