<?xml version="1.0" encoding="UTF-8" standalone="no"?>
<!-- Created with Inkscape (http://www.inkscape.org/) -->

<svg
   xmlns:dc="http://purl.org/dc/elements/1.1/"
   xmlns:cc="http://creativecommons.org/ns#"
   xmlns:rdf="http://www.w3.org/1999/02/22-rdf-syntax-ns#"
   xmlns:svg="http://www.w3.org/2000/svg"
   xmlns="http://www.w3.org/2000/svg"
   xmlns:sodipodi="http://sodipodi.sourceforge.net/DTD/sodipodi-0.dtd"
   xmlns:inkscape="http://www.inkscape.org/namespaces/inkscape"
   id="svg2779"
   sodipodi:version="0.32"
   inkscape:version="0.47 r22583"
   width="1080"
   height="1080"
   version="1.0"
   sodipodi:docname="Submarine.svg"
   inkscape:output_extension="org.inkscape.output.svg.inkscape">
  <metadata
     id="metadata2784">
    <rdf:RDF>
      <cc:Work
         rdf:about="">
        <dc:format>image/svg+xml</dc:format>
        <dc:type
           rdf:resource="http://purl.org/dc/dcmitype/StillImage" />
      </cc:Work>
    </rdf:RDF>
  </metadata>
  <defs
     id="defs2782">
    <inkscape:perspective
       sodipodi:type="inkscape:persp3d"
       inkscape:vp_x="0 : 526.18109 : 1"
       inkscape:vp_y="0 : 1000 : 0"
       inkscape:vp_z="744.09448 : 526.18109 : 1"
       inkscape:persp3d-origin="372.04724 : 350.78739 : 1"
       id="perspective2786" />
  </defs>
  <sodipodi:namedview
     inkscape:window-height="1002"
     inkscape:window-width="1280"
     inkscape:pageshadow="2"
     inkscape:pageopacity="0.0"
     guidetolerance="10.0"
     gridtolerance="10.0"
     objecttolerance="10.0"
     borderopacity="1.0"
     bordercolor="#666666"
     pagecolor="#ffffff"
     id="base"
     showgrid="false"
     inkscape:zoom="0.23089983"
     inkscape:cx="-108.27957"
     inkscape:cy="-32.133733"
     inkscape:window-x="1148"
     inkscape:window-y="-4"
     inkscape:current-layer="svg2779"
     units="in"
     inkscape:window-maximized="0" />

  <defs>
<linearGradient id="de_color" x1="0%" y1="0%" x2="100%" y2="0%">
<stop offset="0%" style="stop-color:rgb(210,180,140);stop-opacity:1" />
<stop offset="100%" style="stop-color:rgb(160,140,100);stop-opacity:1" />
</linearGradient>
</defs>
  <path
     fill="url(#de_color)" stroke="black"
     d="m 140.73817,398.92999 c -0.39815,-1.19935 -1.38692,-14.89421 -2.19724,-30.43341 -0.81033,-15.54094 -1.83275,-28.61347 -2.27203,-29.05102 -0.4393,-0.43755 -9.0355,-1.73452 -19.10268,-2.87982 -10.06719,-1.14531 -19.07923,-2.19299 -20.026762,-2.32722 -0.947534,-0.13946 -4.139655,4.46268 -7.093602,10.21536 -2.953947,5.75267 -6.100974,10.29729 -6.99339,10.1003 -7.393159,-1.63864 -23.413019,-10.08984 -23.413019,-12.35256 0,-1.50093 1.685285,-7.9631 3.74508,-14.35903 l 3.745078,-11.62738 -7.144178,-15.44158 c -4.52745,-9.78653 -6.564575,-16.14062 -5.561748,-17.35043 2.947457,-3.55097 17.39172,-9.81616 21.339029,-9.25658 2.799602,0.39746 5.122697,3.15526 8.107566,9.62441 2.30099,4.98565 5.06504,9.40301 6.142333,9.81615 1.077292,0.41315 10.754963,-1.70488 21.505923,-4.70673 l 19.54722,-5.45981 -0.11002,-14.81751 c -0.0605,-8.14962 -1.10065,-23.05429 -2.31142,-33.12147 -1.21078,-10.06719 -1.99123,-18.57417 -1.73433,-18.90539 0.25689,-0.33121 9.34813,-1.29697 20.20277,-2.14592 10.85462,-0.84896 21.43996,-1.95068 23.52299,-2.4475 4.54155,-1.08604 5.49067,1.3266 11.82175,30.04466 4.65861,21.13324 6.77043,26.57562 10.3106,26.57562 3.40568,0 68.66843,-14.66235 109.18108,-24.52906 114.8196,-27.96324 160.37978,-36.04837 244.92459,-43.46235 94.8397,-8.31698 110.68743,-10.18921 109.62667,-12.95398 -0.78846,-2.05528 9.38194,-62.17598 10.74946,-63.54442 0.37021,-0.37131 4.81527,-1.61773 9.8779,-2.77 l 9.20481,-2.09712 0,-12.0475 c 0,-11.097439 0.30358,-12.091083 3.84746,-12.594878 3.41001,-0.48462 3.9801,0.453241 5.01426,8.248988 1.82135,13.72973 2.81782,14.41134 18.15843,12.41359 7.19084,-0.93786 14.32796,-1.72755 15.86029,-1.75718 2.4164,-0.0523 2.56457,-1.33881 1.11692,-9.74121 -0.918,-5.32907 -1.38725,-9.925982 -1.04278,-10.215359 0.34446,-0.289377 2.68339,-1.01805 5.19759,-1.619466 4.45855,-1.068603 4.60042,-0.836753 5.75209,9.341995 l 1.18078,10.43676 26.52498,0 c 22.53214,0 27.43931,0.48811 32.5991,3.2459 9.81089,5.24191 21.56457,24.82716 33.08516,55.12808 l 1.80165,4.73986 34.40425,-1.20632 c 92.61144,-3.24416 151.31542,11.4426 165.86522,41.49772 5.0548,10.44198 5.0628,30.26954 0.016,40.69409 -10.1944,21.06003 -47.36482,40.44132 -99.22751,51.74097 -32.16794,7.00781 -90.61068,15.71004 -129.87104,19.33772 -24.2487,2.24005 -73.90606,6.29656 -107.20898,8.75801 -19.65498,1.45212 -45.54203,3.41849 -57.52677,4.36681 -11.98475,0.95006 -38.65625,2.93909 -59.27001,4.42084 -20.61376,1.48175 -45.71635,3.42546 -55.78354,4.31974 -27.94436,2.48411 -139.55839,2.00995 -195.24237,-0.82978 -127.37583,-6.49704 -133.01079,-6.64522 -135.26434,-3.56317 -1.14298,1.56368 -3.01037,10.84815 -4.14972,20.63293 -4.0571,34.8403 -3.53826,33.26442 -11.41223,34.66249 -12.28336,2.17905 -39.21452,1.67525 -40.01972,-0.74784 z"
     id="path2790" />
</svg>
