<?xml version="1.0" encoding="UTF-8" standalone="no"?>
<!DOCTYPE svg PUBLIC "-//W3C//DTD SVG 20010904//EN"
              "http://www.w3.org/TR/2001/REC-SVG-20010904/DTD/svg10.dtd">

<svg xmlns="http://www.w3.org/2000/svg"
     viewBox="0 0 100 1">
     <defs>
     <linearGradient id="de_color" x1="0%" y1="0%" x2="100%" y2="0%">
       <stop offset="0%" style="stop-color:rgb(80,80,80);stop-opacity:1" />
       <stop offset="100%" style="stop-color:rgb(200,200,200);stop-opacity:1" />
     </linearGradient>
     </defs>
  <path id="Submarine"
        fill="url(#de_color)" stroke="black" stroke-width="1"
        d="M 63.88,8.00
           C 63.88,8.00 66.00,7.88 66.00,7.88
             66.00,7.88 66.00,6.88 66.00,6.88
             66.00,6.88 85.00,6.75 85.00,6.75
             85.00,6.75 86.00,6.00 86.00,6.00
             86.00,6.00 98.75,6.00 98.75,6.00
             98.75,6.00 98.88,9.62 98.88,9.62
             98.88,9.62 97.88,10.88 97.88,10.88
             97.88,10.88 98.00,12.62 98.00,12.62
             98.00,12.62 96.00,14.88 96.00,14.88
             96.00,14.88 22.25,14.88 22.25,14.88
             22.25,14.88 21.75,13.75 21.75,13.75
             21.75,13.75 15.38,13.75 15.38,13.75
             15.38,13.75 14.88,12.88 14.88,12.88
             14.88,12.88 10.12,12.75 10.12,12.75
             10.12,12.75 9.12,11.88 9.12,11.88
             9.12,11.88 1.00,11.75 1.00,11.75
             1.00,11.75 1.00,9.12 1.00,9.12
             1.00,9.12 7.12,9.12 7.12,9.12
             7.12,9.12 7.88,8.00 7.88,8.00
             7.88,8.00 21.38,8.00 21.38,8.00
             21.38,8.00 21.25,6.88 21.25,6.88
             21.25,6.88 22.50,6.88 22.50,6.88
             22.50,6.88 22.62,8.00 22.62,8.00
             22.62,8.00 54.88,8.12 54.88,8.12
             54.88,8.12 55.12,6.25 55.12,6.25
             55.12,6.25 57.00,6.12 57.00,6.12
             57.00,6.12 58.25,5.00 58.25,5.00
             58.25,5.00 58.00,0.62 58.00,0.62
             58.00,0.62 59.00,0.38 59.00,0.38
             59.00,0.38 59.00,3.75 59.00,3.75
             59.00,3.75 61.75,3.88 61.75,3.88
             61.75,3.88 61.88,1.62 61.88,1.62
             61.88,1.62 62.88,1.75 62.88,1.75
             62.88,1.75 62.75,3.88 62.75,3.88
             62.75,3.88 64.00,3.75 64.00,3.75
             64.00,3.75 63.88,8.50 63.88,8.50" />
</svg>
