<?xml version="1.0" encoding="UTF-8" standalone="no"?>
<!-- Created with Inkscape (http://www.inkscape.org/) -->

<svg
   xmlns:dc="http://purl.org/dc/elements/1.1/"
   xmlns:cc="http://creativecommons.org/ns#"
   xmlns:rdf="http://www.w3.org/1999/02/22-rdf-syntax-ns#"
   xmlns:svg="http://www.w3.org/2000/svg"
   xmlns="http://www.w3.org/2000/svg"
   xmlns:sodipodi="http://sodipodi.sourceforge.net/DTD/sodipodi-0.dtd"
   xmlns:inkscape="http://www.inkscape.org/namespaces/inkscape"
   id="svg2779"
   sodipodi:version="0.32"
   inkscape:version="0.47 r22583"
   width="1080"
   height="1080"
   version="1.0"
   sodipodi:docname="Submarine.svg"
   inkscape:output_extension="org.inkscape.output.svg.inkscape">
  <metadata
     id="metadata2784">
    <rdf:RDF>
      <cc:Work
         rdf:about="">
        <dc:format>image/svg+xml</dc:format>
        <dc:type
           rdf:resource="http://purl.org/dc/dcmitype/StillImage" />
      </cc:Work>
    </rdf:RDF>
  </metadata>
  <defs
     id="defs2782">
    <inkscape:perspective
       sodipodi:type="inkscape:persp3d"
       inkscape:vp_x="0 : 526.18109 : 1"
       inkscape:vp_y="0 : 1000 : 0"
       inkscape:vp_z="744.09448 : 526.18109 : 1"
       inkscape:persp3d-origin="372.04724 : 350.78739 : 1"
       id="perspective2786" />
  </defs>
  <sodipodi:namedview
     inkscape:window-height="1002"
     inkscape:window-width="1280"
     inkscape:pageshadow="2"
     inkscape:pageopacity="0.0"
     guidetolerance="10.0"
     gridtolerance="10.0"
     objecttolerance="10.0"
     borderopacity="1.0"
     bordercolor="#666666"
     pagecolor="#ffffff"
     id="base"
     showgrid="false"
     inkscape:zoom="0.23089983"
     inkscape:cx="-108.27957"
     inkscape:cy="-32.133733"
     inkscape:window-x="1148"
     inkscape:window-y="-4"
     inkscape:current-layer="svg2779"
     units="in"
     inkscape:window-maximized="0" />

  <defs>
<linearGradient id="de_color" x1="0%" y1="0%" x2="100%" y2="0%">
<stop offset="0%" style="stop-color:rgb(210,180,140);stop-opacity:1" />
<stop offset="100%" style="stop-color:rgb(160,140,100);stop-opacity:1" />
</linearGradient>
</defs>
  <path
     fill="url(#de_color)" stroke="black" stroke-width="6"
     d="m 111.07489,689.17848 c -0.42086,-1.43604 -1.46604,-17.83361 -2.32259,-36.43948 -0.85655,-18.60798 -1.9373,-34.26038 -2.40164,-34.78428 -0.46436,-0.5239 -9.550966,-2.07684 -20.192462,-3.44816 -10.641495,-1.37134 -20.16766,-2.62577 -21.169247,-2.7865 -1.001589,-0.16698 -4.375814,5.34339 -7.498278,12.23137 -3.122464,6.88797 -6.449023,12.32948 -7.39235,12.09361 -7.814924,-1.96203 -24.748686,-12.08108 -24.748686,-14.79036 0,-1.79713 1.781427,-9.53462 3.958729,-17.1928 l 3.958728,-13.92205 -7.55174,-18.48901 c -4.785733,-11.71791 -6.939071,-19.32598 -5.879035,-20.77455 3.115604,-4.25177 18.383884,-11.7534 22.55638,-11.08338 2.959314,0.47589 5.414937,3.77795 8.570086,11.52379 2.432257,5.96958 5.353992,11.25871 6.492742,11.75338 1.13875,0.4947 11.368513,-2.04133 22.732802,-5.6356 l 20.662351,-6.53731 -0.1163,-17.74177 c -0.064,-9.75796 -1.163438,-27.60408 -2.443287,-39.65804 -1.279848,-12.05396 -2.104822,-22.2398 -1.833268,-22.63639 0.271545,-0.39657 9.881425,-1.55292 21.355305,-2.56941 11.47385,-1.01651 22.66306,-2.33567 24.86493,-2.93053 4.80063,-1.30037 5.8039,1.58842 12.49615,35.97402 4.92438,25.30392 7.15668,31.82035 10.89881,31.82035 3.59996,0 72.58583,-17.55598 115.40965,-29.36989 121.36983,-33.48183 169.52913,-43.16257 258.89706,-52.03972 100.25013,-9.95834 117.00194,-12.20007 115.88066,-15.51046 -0.83344,-2.46089 9.91717,-74.44649 11.3627,-76.085 0.39133,-0.44458 5.08997,-1.93699 10.44141,-3.31666 l 9.72994,-2.51099 0,-14.4251 c 0,-13.28752 0.32088,-14.47728 4.06694,-15.08048 3.60455,-0.58027 4.20716,0.54268 5.30032,9.87692 1.92525,16.43932 2.97857,17.25546 19.19433,14.86344 7.60106,-1.12294 15.14534,-2.06848 16.76509,-2.10396 2.55425,-0.0627 2.71087,-1.60303 1.18063,-11.66366 -0.97037,-6.38076 -1.46639,-11.88489 -1.10226,-12.23136 0.3641,-0.3465 2.83647,-1.21897 5.4941,-1.93908 4.7129,-1.27949 4.86286,-1.00188 6.08023,11.18566 l 1.24815,12.49646 28.03817,0 c 23.81756,0 29.00467,0.58444 34.45882,3.88649 10.37058,6.2764 22.79478,29.72683 34.97261,66.00767 l 1.90443,5.67528 36.36694,-1.44438 c 97.89475,-3.88439 159.94766,13.70081 175.32756,49.68736 5.3431,12.50271 5.3516,36.24326 0.016,48.72511 -10.7759,25.21625 -50.0668,48.42247 -104.88819,61.95212 -34.00306,8.39081 -95.77984,18.81044 -137.27994,23.15404 -25.63204,2.68213 -78.12226,7.5392 -113.32504,10.48642 -20.77626,1.73871 -48.14012,4.09313 -60.80856,5.22861 -12.66846,1.13756 -40.86151,3.51912 -62.65125,5.2933 -21.78974,1.77417 -48.32438,4.10147 -58.96589,5.17224 -29.53853,2.97435 -147.51993,2.40663 -206.38057,-0.99354 -134.64237,-7.77923 -140.5988,-7.95667 -142.98091,-4.26636 -1.20818,1.87228 -3.18211,12.98905 -4.38645,24.70487 -4.28855,41.71608 -3.74012,39.82919 -12.06328,41.50317 -12.9841,2.60908 -41.45163,2.00587 -42.30276,-0.89542 z"
     id="path2790" />
</svg>
