<?xml version="1.0" encoding="UTF-8" standalone="no"?>
<!DOCTYPE svg PUBLIC "-//W3C//DTD SVG 20010904//EN"
              "http://www.w3.org/TR/2001/REC-SVG-20010904/DTD/svg10.dtd">

<svg xmlns="http://www.w3.org/2000/svg"
     width="1.04167in" height="0.8125in"
     viewBox="0 0 90 60">

     <defs>
     <linearGradient id="de_color" x1="0%" y1="0%" x2="100%" y2="0%">
       <stop offset="0%" style="stop-color:rgb(80,80,80);stop-opacity:1" />
       <stop offset="100%" style="stop-color:rgb(200,200,200);stop-opacity:1" />
     </linearGradient>
     </defs>

  <path id="Transport"
        fill="url(#de_color)"
        stroke="black" stroke-width="1"
        d="M 13.00,47.50
                   C 13.00,47.50 59.62,47.88 59.62,47.88
                     59.62,47.88 61.00,39.75 61.00,39.75
                     61.00,39.75 53.00,39.75 53.00,39.75
                     53.00,39.75 49.75,32.25 49.75,32.25
                     49.75,32.25 44.00,32.25 44.00,32.25
                     44.00,32.25 45.75,23.50 45.75,23.50
                     45.75,23.50 40.25,23.50 40.25,23.50
                     40.25,23.50 38.75,32.00 38.75,32.00
                     38.75,32.00 31.00,32.00 31.00,32.00
                     31.00,32.00 34.00,22.75 34.00,22.75
                     34.00,22.75 27.75,22.50 27.75,22.50
                     27.75,22.50 24.50,32.50 24.50,32.50
                     24.50,32.50 16.00,32.75 16.00,32.75
                     16.00,32.75 12.25,37.50 12.25,37.50
                     12.25,37.50 1.50,37.25 1.50,37.25
                     1.50,37.25 13.25,47.50 13.25,47.50" />
        </svg>
